<svg version="1.1" viewBox="0.0 0.0 750.3727034120735 265.7979002624672" fill="none" stroke="none" stroke-linecap="square" stroke-miterlimit="10" xmlns:xlink="http://www.w3.org/1999/xlink" xmlns="http://www.w3.org/2000/svg"><clipPath id="p.0"><path d="m0 0l750.3727 0l0 265.7979l-750.3727 0l0 -265.7979z" clip-rule="nonzero"/></clipPath><g clip-path="url(#p.0)"><path fill="#000000" fill-opacity="0.0" d="m0 0l750.3727 0l0 265.7979l-750.3727 0z" fill-rule="evenodd"/><path fill="#f29724" d="m495.67322 103.11394l60.97632 30.48819l0 68.91339l-60.97632 30.48819l-60.97635 -30.48819l0 -68.91339z" fill-rule="evenodd"/><path stroke="#323432" stroke-width="8.0" stroke-linejoin="round" stroke-linecap="butt" d="m495.67322 103.11394l60.97632 30.48819l0 68.91339l-60.97632 30.48819l-60.97635 -30.48819l0 -68.91339z" fill-rule="evenodd"/><path fill="#ffd100" d="m495.67322 117.06562l50.881897 25.44094l0 51.102356l-50.881897 25.440948l-50.881866 -25.440948l0 -51.102356z" fill-rule="evenodd"/><path fill="#f29724" d="m435.67847 4.9249625l60.97635 30.488188l0 68.91339l-60.97635 30.48819l-60.97635 -30.48819l0 -68.91339z" fill-rule="evenodd"/><path stroke="#323432" stroke-width="8.0" stroke-linejoin="round" stroke-linecap="butt" d="m435.67847 4.9249625l60.97635 30.488188l0 68.91339l-60.97635 30.48819l-60.97635 -30.48819l0 -68.91339z" fill-rule="evenodd"/><path fill="#ffd100" d="m435.67847 18.87664l50.881866 25.440945l0 51.10236l-50.881866 25.440948l-50.881866 -25.440948l0 -51.10236z" fill-rule="evenodd"/><path fill="#f29724" d="m192.22964 4.9249625l60.97635 30.488188l0 68.91339l-60.97635 30.48819l-60.97635 -30.48819l0 -68.91339z" fill-rule="evenodd"/><path stroke="#323432" stroke-width="8.0" stroke-linejoin="round" stroke-linecap="butt" d="m192.22964 4.9249625l60.97635 30.488188l0 68.91339l-60.97635 30.48819l-60.97635 -30.48819l0 -68.91339z" fill-rule="evenodd"/><path fill="#ffd100" d="m192.22966 18.87664l50.881866 25.440945l0 51.10236l-50.881866 25.440948l-50.881866 -25.440948l0 -51.10236z" fill-rule="evenodd"/><path fill="#f29724" d="m680.04065 203.38428l60.97638 30.48819l0 68.91339l-60.97638 30.48819l-60.97632 -30.48819l0 -68.91339z" fill-rule="evenodd"/><path stroke="#323432" stroke-width="8.0" stroke-linejoin="round" stroke-linecap="butt" d="m680.04065 203.38428l60.97638 30.48819l0 68.91339l-60.97638 30.48819l-60.97632 -30.48819l0 -68.91339z" fill-rule="evenodd"/><path fill="#ffd100" d="m680.0407 217.33595l50.881836 25.440948l0 51.10237l-50.881836 25.440948l-50.881897 -25.440948l0 -51.10237z" fill-rule="evenodd"/><path fill="#f29724" d="m558.0879 203.38428l60.97638 30.48819l0 68.91339l-60.97638 30.48819l-60.97632 -30.48819l0 -68.91339z" fill-rule="evenodd"/><path stroke="#323432" stroke-width="8.0" stroke-linejoin="round" stroke-linecap="butt" d="m558.0879 203.38428l60.97638 30.48819l0 68.91339l-60.97638 30.48819l-60.97632 -30.48819l0 -68.91339z" fill-rule="evenodd"/><path fill="#ffd100" d="m558.08795 217.33595l50.881836 25.440948l0 51.10237l-50.881836 25.440948l-50.881897 -25.440948l0 -51.10237z" fill-rule="evenodd"/><path fill="#f29724" d="m436.13516 203.38428l60.97635 30.48819l0 68.91339l-60.97635 30.48819l-60.97635 -30.48819l0 -68.91339z" fill-rule="evenodd"/><path stroke="#323432" stroke-width="8.0" stroke-linejoin="round" stroke-linecap="butt" d="m436.13516 203.38428l60.97635 30.48819l0 68.91339l-60.97635 30.48819l-60.97635 -30.48819l0 -68.91339z" fill-rule="evenodd"/><path fill="#ffd100" d="m436.13516 217.33595l50.881866 25.440948l0 51.10237l-50.881866 25.440948l-50.881866 -25.440948l0 -51.10237z" fill-rule="evenodd"/><path fill="#f29724" d="m314.1824 203.38428l60.97635 30.48819l0 68.91339l-60.97635 30.48819l-60.976364 -30.48819l0 -68.91339z" fill-rule="evenodd"/><path stroke="#323432" stroke-width="8.0" stroke-linejoin="round" stroke-linecap="butt" d="m314.1824 203.38428l60.97635 30.48819l0 68.91339l-60.97635 30.48819l-60.976364 -30.48819l0 -68.91339z" fill-rule="evenodd"/><path fill="#ffd100" d="m314.1824 217.33595l50.881866 25.440948l0 51.10237l-50.881866 25.440948l-50.881866 -25.440948l0 -51.10237z" fill-rule="evenodd"/><path fill="#f29724" d="m192.22964 203.38428l60.97635 30.48819l0 68.91339l-60.97635 30.48819l-60.97635 -30.48819l0 -68.91339z" fill-rule="evenodd"/><path stroke="#323432" stroke-width="8.0" stroke-linejoin="round" stroke-linecap="butt" d="m192.22964 203.38428l60.97635 30.48819l0 68.91339l-60.97635 30.48819l-60.97635 -30.48819l0 -68.91339z" fill-rule="evenodd"/><path fill="#ffd100" d="m192.22966 217.33595l50.881866 25.440948l0 51.10237l-50.881866 25.440948l-50.881866 -25.440948l0 -51.10237z" fill-rule="evenodd"/><path fill="#f29724" d="m70.276886 203.38428l60.97635 30.48819l0 68.91339l-60.97635 30.48819l-60.976353 -30.48819l0 -68.91339z" fill-rule="evenodd"/><path stroke="#323432" stroke-width="8.0" stroke-linejoin="round" stroke-linecap="butt" d="m70.276886 203.38428l60.97635 30.48819l0 68.91339l-60.97635 30.48819l-60.976353 -30.48819l0 -68.91339z" fill-rule="evenodd"/><path fill="#ffd100" d="m70.2769 217.33595l50.881866 25.440948l0 51.10237l-50.881866 25.440948l-50.881866 -25.440948l0 -51.10237z" fill-rule="evenodd"/><path fill="#f29724" d="m373.72046 103.11394l60.97635 30.48819l0 68.91339l-60.97635 30.48819l-60.97635 -30.48819l0 -68.91339z" fill-rule="evenodd"/><path stroke="#323432" stroke-width="8.0" stroke-linejoin="round" stroke-linecap="butt" d="m373.72046 103.11394l60.97635 30.48819l0 68.91339l-60.97635 30.48819l-60.97635 -30.48819l0 -68.91339z" fill-rule="evenodd"/><path fill="#ffd100" d="m373.72046 117.06562l50.881866 25.44094l0 51.102356l-50.881866 25.440948l-50.881866 -25.440948l0 -51.102356z" fill-rule="evenodd"/><path fill="#f29724" d="m251.7677 103.11394l60.97635 30.48819l0 68.91339l-60.97635 30.48819l-60.97635 -30.48819l0 -68.91339z" fill-rule="evenodd"/><path stroke="#323432" stroke-width="8.0" stroke-linejoin="round" stroke-linecap="butt" d="m251.7677 103.11394l60.97635 30.48819l0 68.91339l-60.97635 30.48819l-60.97635 -30.48819l0 -68.91339z" fill-rule="evenodd"/><path fill="#ffd100" d="m251.76772 117.06562l50.88188 25.44094l0 51.102356l-50.88188 25.440948l-50.881866 -25.440948l0 -51.102356z" fill-rule="evenodd"/><path fill="#f29724" d="m129.81494 103.11394l60.97635 30.48819l0 68.91339l-60.97635 30.48819l-60.97635 -30.48819l0 -68.91339z" fill-rule="evenodd"/><path stroke="#323432" stroke-width="8.0" stroke-linejoin="round" stroke-linecap="butt" d="m129.81494 103.11394l60.97635 30.48819l0 68.91339l-60.97635 30.48819l-60.97635 -30.48819l0 -68.91339z" fill-rule="evenodd"/><path fill="#ffd100" d="m129.81496 117.06562l50.881866 25.44094l0 51.102356l-50.881866 25.440948l-50.88186 -25.440948l0 -51.102356z" fill-rule="evenodd"/><path fill="#f29724" d="m617.626 103.11394l60.97632 30.48819l0 68.91339l-60.97632 30.48819l-60.97638 -30.48819l0 -68.91339z" fill-rule="evenodd"/><path stroke="#323432" stroke-width="8.0" stroke-linejoin="round" stroke-linecap="butt" d="m617.626 103.11394l60.97632 30.48819l0 68.91339l-60.97632 30.48819l-60.97638 -30.48819l0 -68.91339z" fill-rule="evenodd"/><path fill="#ffd100" d="m617.626 117.06562l50.881897 25.44094l0 51.102356l-50.881897 25.440948l-50.881836 -25.440948l0 -51.102356z" fill-rule="evenodd"/><path fill="#ffee32" d="m229.43045 238.72179l20.0 0l0 59.2126l-20.0 0z" fill-rule="evenodd"/><path fill="#ffee32" d="m352.43045 238.72179l20.0 0l0 59.2126l-20.0 0z" fill-rule="evenodd"/><path fill="#ffee32" d="m474.77954 37.721786l17.700775 0l0 59.212593l-17.700775 0z" fill-rule="evenodd"/><path fill="#ffee32" d="m411.43045 140.72179l20.0 0l0 59.2126l-20.0 0z" fill-rule="evenodd"/><path fill="#ffee32" d="m289.43045 140.72179l20.0 0l0 59.2126l-20.0 0z" fill-rule="evenodd"/><path fill="#ffee32" d="m226.43045 37.721786l20.0 0l0 59.212593l-20.0 0z" fill-rule="evenodd"/><path fill="#ffee32" d="m167.43045 140.72179l20.0 0l0 59.2126l-20.0 0z" fill-rule="evenodd"/><path fill="#ffee32" d="m106.43044 238.72179l20.0 0l0 59.2126l-20.0 0z" fill-rule="evenodd"/><path fill="#ffee32" d="m472.93045 238.72179l20.0 0l0 59.2126l-20.0 0z" fill-rule="evenodd"/><path fill="#ffee32" d="m593.4304 238.72179l20.0 0l0 59.2126l-20.0 0z" fill-rule="evenodd"/><path fill="#ffee32" d="m717.48553 238.72179l20.0 0l0 59.2126l-20.0 0z" fill-rule="evenodd"/><path fill="#ffee32" d="m655.4304 140.72179l20.0 0l0 59.2126l-20.0 0z" fill-rule="evenodd"/><path fill="#ffee32" d="m533.4304 140.72179l20.0 0l0 59.2126l-20.0 0z" fill-rule="evenodd"/><path fill="#ffee32" d="m191.92914 21.015749l0 -12.503938l20.0 12.503938z" fill-rule="evenodd"/><path fill="#ffee32" d="m199.10759 12.968529l49.133865 23.46457l-4.2204742 8.850391l-49.133865 -23.464567z" fill-rule="evenodd"/><path fill="#ffee32" d="m616.2304 120.33025l0 -13.941887l21.026001 13.941887z" fill-rule="evenodd"/><path fill="#ffee32" d="m623.7771 111.357605l51.65442 26.162994l-4.4369507 9.868195l-51.65442 -26.163002z" fill-rule="evenodd"/><path fill="#ffee32" d="m662.9265 138.38846l12.503906 0l0 12.0l-12.503906 0z" fill-rule="evenodd"/><path fill="#ffee32" d="m433.7317 22.453615l0 -13.94189l21.026001 13.94189z" fill-rule="evenodd"/><path fill="#ffee32" d="m441.2784 13.480966l51.65442 26.162994l-4.436981 9.868187l-51.65442 -26.16299z" fill-rule="evenodd"/><path fill="#ffee32" d="m480.42783 40.51181l12.503937 0l0 12.0l-12.503937 0z" fill-rule="evenodd"/><path fill="#ffee32" d="m494.34183 120.388306l0 -13.842903l20.946136 13.842903z" fill-rule="evenodd"/><path fill="#ffee32" d="m501.85986 111.47936l51.45813 25.977226l-4.420105 9.798126l-51.45813 -25.977226z" fill-rule="evenodd"/><path fill="#ffee32" d="m540.86053 138.31828l12.456421 0l0 11.91481l-12.456421 0z" fill-rule="evenodd"/><path fill="#ffee32" d="m372.28552 120.331566l0 -13.941887l21.026001 13.941887z" fill-rule="evenodd"/><path fill="#ffee32" d="m379.8322 111.35892l51.65445 26.162994l-4.4370117 9.868195l-51.65442 -26.163002z" fill-rule="evenodd"/><path fill="#ffee32" d="m418.98163 138.38977l12.503937 0l0 12.0l-12.503937 0z" fill-rule="evenodd"/><path fill="#ffee32" d="m250.2304 120.331566l0 -13.941887l21.025986 13.941887z" fill-rule="evenodd"/><path fill="#ffee32" d="m257.7771 111.35892l51.65442 26.162994l-4.436981 9.868195l-51.65442 -26.163002z" fill-rule="evenodd"/><path fill="#ffee32" d="m296.9265 138.38977l12.503937 0l0 12.0l-12.503937 0z" fill-rule="evenodd"/><path fill="#ffee32" d="m678.2855 219.83157l0 -13.941895l21.026001 13.941895z" fill-rule="evenodd"/><path fill="#ffee32" d="m685.8322 210.85892l51.65442 26.162994l-4.4369507 9.868195l-51.65442 -26.162994z" fill-rule="evenodd"/><path fill="#ffee32" d="m724.9816 237.88977l12.503906 0l0 12.0l-12.503906 0z" fill-rule="evenodd"/><path fill="#ffee32" d="m553.3183 219.83157l0 -13.941895l21.026001 13.941895z" fill-rule="evenodd"/><path fill="#ffee32" d="m560.86505 210.85892l51.65442 26.162994l-4.4370117 9.868195l-51.65442 -26.162994z" fill-rule="evenodd"/><path fill="#ffee32" d="m600.01447 237.88977l12.503906 0l0 12.0l-12.503906 0z" fill-rule="evenodd"/><path fill="#ffee32" d="m433.2737 219.83157l0 -13.941895l21.026001 13.941895z" fill-rule="evenodd"/><path fill="#ffee32" d="m440.8204 210.85892l51.65445 26.162994l-4.4370117 9.868195l-51.65442 -26.162994z" fill-rule="evenodd"/><path fill="#ffee32" d="m479.96982 237.88977l12.503937 0l0 12.0l-12.503937 0z" fill-rule="evenodd"/><path fill="#ffee32" d="m313.22906 219.83157l0 -13.941895l21.026001 13.941895z" fill-rule="evenodd"/><path fill="#ffee32" d="m320.7758 210.85892l51.65442 26.162994l-4.436981 9.868195l-51.65442 -26.162994z" fill-rule="evenodd"/><path fill="#ffee32" d="m359.9252 237.88977l12.503937 0l0 12.0l-12.503937 0z" fill-rule="evenodd"/><path fill="#ffee32" d="m190.22908 219.83157l0 -13.941895l21.026001 13.941895z" fill-rule="evenodd"/><path fill="#ffee32" d="m197.77579 210.85892l51.654434 26.162994l-4.436981 9.868195l-51.654434 -26.162994z" fill-rule="evenodd"/><path fill="#ffee32" d="m236.9252 237.88977l12.503937 0l0 12.0l-12.503937 0z" fill-rule="evenodd"/><path fill="#ffee32" d="m67.22908 219.83157l0 -13.941895l21.026001 13.941895z" fill-rule="evenodd"/><path fill="#ffee32" d="m74.775795 210.85892l51.654427 26.162994l-4.436989 9.868195l-51.65442 -26.162994z" fill-rule="evenodd"/><path fill="#ffee32" d="m113.92519 237.88977l12.503937 0l0 12.0l-12.503937 0z" fill-rule="evenodd"/></g></svg>