<svg version="1.1" viewBox="0.0 0.0 702.9396325459318 146.83202099737534" fill="none" stroke="none" stroke-linecap="square" stroke-miterlimit="10" xmlns:xlink="http://www.w3.org/1999/xlink" xmlns="http://www.w3.org/2000/svg"><clipPath id="p.0"><path d="m0 0l702.93964 0l0 146.83202l-702.93964 0l0 -146.83202z" clip-rule="nonzero"/></clipPath><g clip-path="url(#p.0)"><path fill="#000000" fill-opacity="0.0" d="m0 0l702.93964 0l0 146.83202l-702.93964 0z" fill-rule="evenodd"/><path fill="#ffd100" d="m42.266697 12.200382c-2.106926 0 -4.253765 0.15969658 -6.440525 0.47908783c-2.6974297 0.46639156 -5.2973633 1.1566505 -7.799774 2.0707808c-2.4861774 0.9141264 -4.728613 2.3506155 -6.7273045 4.3094606c-2.8924236 2.2946491 -4.964239 5.214264 -6.2154446 8.758841c-1.2512054 3.5445805 -2.1286802 7.2104206 -2.6324234 10.997522c-0.4874859 3.6751633 -0.83684254 7.4342804 -1.0480947 11.277355c-0.19499397 3.824417 -0.34123993 7.5742073 -0.43873692 11.249374c-0.09749699 4.234833 -0.12187195 7.99395 -0.07312298 11.277351c0.048748016 3.2647476 0.14624596 6.361595 0.29249096 9.290527c0.14624596 2.910286 0.31686592 5.8578873 0.51186085 8.842796c0.21125126 2.9662476 0.46311092 6.286957 0.75560284 9.962128c0.21125126 2.2946472 0.4874859 4.5613174 0.8287258 6.7999954c0.35749722 2.238678 0.68247986 3.982994 0.9749718 5.232918c1.2024574 4.9250946 2.8517914 9.057327 4.947981 12.396698c2.0961895 3.3207092 5.142975 5.9511566 9.14036 7.891342c2.3886795 1.156662 4.9073505 1.9028931 7.5560284 2.2386932c1.444725 0.18315125 2.9112053 0.27474976 4.3994675 0.27474976c1.2402077 0 2.4955063 -0.06361389 3.7659225 -0.19081116c2.7949257 -0.27983093 5.5411034 -0.7368927 8.23851 -1.3711853c2.6974297 -0.6342926 5.2892227 -1.3525238 7.7753983 -2.1547241c3.802391 -1.6044006 6.9954224 -3.955017 9.579094 -7.0518494c2.5999374 -3.09684 4.1517715 -7.5648727 4.6554947 -13.404106c0.9912262 -6.1936874 1.3893356 -12.695198 1.1943359 -19.504509c-0.19499207 -6.82798 -0.5930939 -13.282845 -1.1943359 -19.364594l-0.14624786 -0.16790009l-0.2924881 0c-1.0074692 0 -2.9330368 -0.13991547 -5.7767105 -0.41975403c-2.8436737 -0.27983093 -5.914837 -0.47571564 -9.213482 -0.5876541c-1.3582726 -0.053771973 -2.6862411 -0.08065796 -3.9838867 -0.08065796c-1.8538055 0 -3.6457443 0.054870605 -5.375843 0.16461182c-2.9411697 0.16790009 -5.0617332 0.7089081 -6.3616867 1.6230392c-0.19499588 0.11193848 -0.2924919 0.16790009 -0.2924919 0.16790009c-0.09749985 0 -0.14624786 0.05596924 -0.14624786 0.16790771l0 0.16790009c0.19499588 2.070778 0.2924919 3.7964325 0.2924919 5.1769485c0 1.3618622 -0.0243721 2.7050781 -0.07312393 4.029625c-0.048748016 1.3245544 -0.048748016 2.6771011 0 4.0576096c0.04875183 1.3618622 0.17061996 2.9569244 0.36561584 4.785179c0.5037422 0.2425232 1.2268562 0.3917694 2.1693115 0.44773865c0.47937012 0.02798462 0.98106384 0.04197693 1.5051117 0.04197693c0.52404785 0 1.070446 -0.01399231 1.6391716 -0.04197693c1.1537094 -0.05596924 2.2505531 -0.11193085 3.2905312 -0.16790009c0.35206985 -0.01865387 0.6788597 -0.02798462 0.9803963 -0.02798462c0.60302734 0 1.1049614 0.03731537 1.5057793 0.11193085c0.2924919 0.11193848 0.46311188 0.6249695 0.5118599 1.539093c0.04875183 0.91412354 0.04875183 1.9495163 0 3.1061707c-0.048748016 1.1379929 -0.14624405 2.2573318 -0.2924919 3.3580246c-0.14624405 1.0820236 -0.268116 1.8469086 -0.36561203 2.2946472c-0.4062462 1.604393 -1.0074883 2.9009705 -1.8036995 3.8897095c-0.79623413 0.9700928 -1.74683 1.7442932 -2.8517914 2.3226318c-1.3974495 0.5596695 -2.9249153 1.0167389 -4.582367 1.3711929c-0.9847069 0.20146942 -1.9431114 0.30221558 -2.8751907 0.30221558c-0.62137604 0 -1.2310677 -0.044776917 -1.8290482 -0.13431549c-1.3974495 -0.35445404 -2.5430412 -0.86748505 -3.4367752 -1.539093c-1.9011917 -1.7349777 -3.1523972 -4.085594 -3.7536392 -7.0518494c-0.60124207 -2.9849014 -0.9993477 -5.736618 -1.1943398 -8.255135c-0.2924919 -4.2534943 -0.49560356 -8.721519 -0.60935783 -13.4040985c-0.09749794 -4.701233 -0.048748016 -9.25322 0.14624596 -13.65596c0.21125221 -4.4213943 0.5362339 -8.581612 0.9749718 -12.480644c0.4549942 -3.8990364 1.0318604 -7.2290726 1.7305756 -9.990116c0.2112503 -0.91413116 0.48748398 -1.8562431 0.8287239 -2.826336c0.35749817 -0.9700966 0.63373184 -1.5764084 0.8287277 -1.8189278c1.2024574 -1.361866 2.599907 -2.042797 4.192375 -2.042797c1.5924492 0 3.2417831 0.05596924 4.947983 0.16790009c1.4949493 0 2.7867851 0.5503464 3.8755112 1.6510277c1.1049614 1.0820312 2.0799332 2.3412895 2.9249153 3.7777748c0.84498596 1.4178352 1.5437241 2.9569283 2.0961914 4.617279c0.55249023 1.6603546 0.98311234 3.0688553 1.2918358 4.2255135c1.4949493 0.22386551 2.7867851 0.3917694 3.8755112 0.50370026c1.1049614 0.11193466 2.1774292 0.1679039 3.2174072 0.1679039c1.0562134 0 2.104309 -0.02798462 3.144287 -0.08395004c1.0562057 -0.05596924 2.331787 -0.08395386 3.8267593 -0.08395386c1.5924454 -0.11193085 2.738037 -0.16790009 3.4367752 -0.16790009c0.6987381 0 1.1537323 -0.16790009 1.3649597 -0.5037041l0.14624786 -1.035389c0.6987381 -6.9958763 0.14624786 -13.040318 -1.6574478 -18.133316c-1.7874451 -5.111658 -4.484871 -9.215906 -8.09227 -12.312748c-3.591137 -3.09684 -7.881012 -5.242242 -12.869625 -6.436208c-3.0023918 -0.7298155 -6.0960236 -1.0947256 -9.280891 -1.0947256z" fill-rule="evenodd"/><path fill="#ffd100" d="m136.74214 12.847372c-3.2824097 0 -7.0685425 0.06529522 -11.358421 0.19588375c-4.289871 0.11193466 -8.734116 0.22386837 -13.332733 0.33580303c-4.598625 0.11193371 -9.172874 0.25185108 -13.722733 0.41975212c-4.533615 0.16790104 -8.742249 0.3731146 -12.625877 0.6156378c-0.50374603 9.850198 -0.8043518 19.653755 -0.90185547 29.410675c-0.09749603 9.738262 -0.09749603 19.476524 0 29.214787c0.09750366 9.738266 0.2437439 19.513847 0.4387436 29.326729c0.19499207 9.794228 0.2924881 19.67241 0.2924881 29.634537c6.779312 0.6398926 13.76564 0.9598236 20.958961 0.9598236c3.0828476 0 6.2037354 -0.058761597 9.362656 -0.17628479c8.000366 -0.3113556 15.897865 -0.46702576 23.692497 -0.46702576c2.4801178 0 4.949814 0.01574707 7.4091034 0.04727173c0.79623413 -3.4513092 1.2430878 -7.154457 1.3405914 -11.109451c0.0974884 -3.9550095 0.048736572 -7.760765 -0.1462555 -11.417274l0 -0.3637848c-2.597046 0.09273529 -5.1656036 0.13909912 -7.705658 0.13909912c-4.103134 0 -8.131897 -0.12099457 -12.086258 -0.36296844c-6.3860703 -0.41042328 -12.869629 -0.61563873 -19.450691 -0.61563873l-0.14624786 -0.16790009c-0.19499207 -2.761032 -0.3737259 -6.2030106 -0.536232 -10.32592c-0.14624786 -4.1229095 0.03249359 -7.8447113 0.536232 -11.165421c0.50374603 -0.4663849 1.4543457 -0.7555542 2.8517914 -0.86748505c1.3974533 -0.11193848 2.9655228 -0.16790009 4.704239 -0.16790009c1.7549515 0 3.5749054 -0.02798462 5.4598465 -0.08395386c1.9011917 -0.05596924 3.5992737 -0.31715393 5.094223 -0.7835388c-0.09749603 -4.234833 -0.0487442 -8.301773 0.14624786 -12.200813c0.2112503 -3.8990326 0.06500244 -7.798065 -0.43873596 -11.697109l0 -0.16790009c-3.103653 -0.11193466 -6.199188 -0.16790009 -9.286606 -0.16790009c-3.0874176 0 -6.1342087 -0.1212616 -9.140358 -0.3637848l-0.14624786 -0.1679039c-0.6987381 -3.0968437 -0.8774719 -6.389572 -0.536232 -9.878178c0.35749054 -3.488617 0.48748016 -6.902603 0.38998413 -10.241966l0.14624786 -0.1679039l0.46311188 0c3.2824097 -0.33580017 6.572937 -0.5037041 9.87159 -0.5037041c3.298645 0 6.5891724 0.02798462 9.871582 0.08395386c0.82466125 0.013988495 1.6477966 0.02098465 2.4694214 0.02098465c2.464859 0 4.915985 -0.06296158 7.353424 -0.18888855c3.2498932 -0.16790009 6.4673004 -0.6529465 9.652222 -1.455143l0 -0.1958847c0 -4.0109673 0.12187195 -8.077902 0.36561584 -12.200811c0.2599945 -4.1229057 0.13812256 -8.189844 -0.36561584 -12.200811c0 -0.11193466 -0.9993439 -0.22386837 -2.9980469 -0.33580303c-1.9986877 -0.13058853 -4.6473694 -0.19588375 -7.9460144 -0.19588375z" fill-rule="evenodd"/><path fill="#ffd100" d="m185.21208 11.556584c-0.45698547 0 -0.91444397 0.0011816025 -1.372406 0.003545761c-10.822189 0.05596733 -21.3275 0.14924622 -31.51596 0.27983475c0 0.11193466 0.024368286 0.16790104 0.07312012 0.16790104c0.06500244 0 0.09750366 0.05596733 0.09750366 0.16790104c-0.21124268 2.742385 -0.316864 5.6060324 -0.316864 8.5909395c0 2.9849072 0.024368286 5.7646046 0.07312012 8.339087c0.04875183 2.5744839 0.14624023 4.785183 0.29249573 6.6320953c0.16249084 1.8282509 0.3412323 2.9755745 0.53622437 3.4419708c0.6012268 0.22386932 1.6493225 0.33580017 3.144287 0.33580017c1.4949646 0 3.144287 0.02798462 4.947983 0.08395386c1.8036957 0.055965424 3.5992584 0.16790009 5.3867188 0.33580017c1.8036957 0.16790009 3.2986603 0.59698105 4.4848633 1.2872429l0.17062378 0.16790009c0.58499146 16.062538 0.95059204 29.765137 1.0968475 41.10778c0.16249084 11.342659 0.21936035 20.65184 0.17062378 27.927551c-0.04875183 7.275711 -0.13000488 12.751152 -0.2437439 16.426323c-0.09750366 3.6751785 -0.08937073 5.7366257 0.024368286 6.184349c1.7874451 -0.33580017 3.7292633 -0.5036926 5.8254547 -0.5036926l6.3616943 0c2.144928 0 4.289871 -0.02798462 6.4348145 -0.08395386c2.1611786 -0.05596924 4.135498 -0.2611847 5.922943 -0.6156311l0 -0.16790771l0 -0.16790771c-0.19499207 -12.49929 -0.3412323 -23.356895 -0.43873596 -32.572807c-0.0974884 -9.234558 -0.203125 -17.14457 -0.316864 -23.730019c-0.0974884 -6.6041107 -0.17062378 -11.995602 -0.21936035 -16.174469c-0.04875183 -4.178871 -0.073135376 -7.5555496 -0.073135376 -10.130035c0 -2.5931396 0.024383545 -4.4866943 0.073135376 -5.6806526c0.048736572 -1.212616 0.12187195 -2.0987625 0.21936035 -2.658432c0 -0.11193466 0.024383545 -0.1958847 0.07312012 -0.25185394c0.06500244 -0.07462311 0.09750366 -0.16790009 0.09750366 -0.27983475l0.43873596 0c4.696106 -0.22386551 8.44162 -0.3917694 11.236542 -0.5037041c0.5589905 -0.022384644 1.1000977 -0.033576965 1.6233368 -0.033576965c2.0929413 0 3.899887 0.1790924 5.4208374 0.53728104c0.4874878 -4.122902 0.7556 -8.646906 0.8043518 -13.572004c0.04875183 -4.9250984 -0.024368286 -9.281197 -0.21936035 -13.0683c-9.851334 -1.2149839 -19.95607 -1.8224745 -30.314178 -1.8224745z" fill-rule="evenodd"/><path fill="#ffd100" d="m275.33813 47.61303c0.355896 0 0.711792 0.6309128 1.067688 1.892746c0.5524597 1.9401894 1.2024536 5.661995 1.9499207 11.165424c0.74749756 5.484768 1.6168518 13.161579 2.6080627 23.03043c-1.8849487 0 -3.7780151 0.02798462 -5.6792297 0.08395386c-0.633728 0.01864624 -1.2557068 0.02798462 -1.8659668 0.02798462c-1.22052 0 -2.394104 -0.037322998 -3.520752 -0.11193848c0.698761 -5.8578796 1.3162231 -11.305336 1.8524475 -16.34237c0.55249023 -5.037037 1.0562439 -9.215904 1.5112305 -12.536617c0.45498657 -3.339363 0.95059204 -5.5500603 1.4868164 -6.6320915c0.19659424 -0.38501358 0.39318848 -0.5775223 0.5897827 -0.5775223zm8.623718 -35.96895c-3.2824097 0.3544569 -5.9473267 0.55967045 -7.9947815 0.6156378c-2.0474548 0.05596733 -3.7211304 0.08395004 -5.021118 0.08395004l-3.1442566 0c-0.79623413 0 -1.5437317 0.05596733 -2.2424622 0.16790104c-2.4049072 9.178594 -4.60672 18.413155 -6.6054077 27.703678c-1.9987183 9.27187 -3.8511505 18.207935 -5.5573425 26.808205c-1.6899567 8.6002655 -3.1605377 16.715492 -4.4117584 24.345657c-1.2349548 7.611519 -2.3074188 14.336899 -3.2174072 20.176117c-0.89372253 5.839226 -1.5924377 10.59642 -2.0961914 14.271591c-0.48747253 3.675171 -0.8287201 5.913849 -1.0237122 6.716049c0.09750366 0.11192322 0.19499207 0.16789246 0.29249573 0.16789246c2.2640991 -0.03730774 4.3277893 -0.05596924 6.1910706 -0.05596924c3.7265472 0 6.651474 0.07463074 8.77475 0.22387695c1.6005554 0.11193848 2.9005432 0.16789246 3.8998718 0.16789246c0.99935913 0 1.6980896 -0.05595398 2.0961914 -0.16789246c0.09750366 0 0.17062378 -0.02798462 0.21936035 -0.08395386c0.04876709 -0.05596924 0.12188721 -0.08395386 0.21939087 -0.08395386c0.90997314 -1.958847 1.6087036 -4.197525 2.0961914 -6.7160416c0.50372314 -2.5185165 0.97494507 -5.1209793 1.4136963 -7.807396c0.45498657 -2.7050705 0.90997314 -5.288887 1.3649597 -7.7514343c0.45498657 -2.4625473 1.0318604 -4.6079483 1.7305603 -6.4362106c1.0887451 0 1.9580994 -0.02798462 2.6080627 -0.08394623c0.6499939 -0.05596924 1.2512207 -0.08395386 1.8037109 -0.08395386l1.8768005 0c0.69873047 0 1.6980896 0.11193085 2.9980469 0.33580017c0.69873047 1.7163315 1.3405762 3.7777786 1.9255676 6.1843567c0.6012268 2.4065857 1.1781006 4.934433 1.7305603 7.5835342c0.55249023 2.6304474 1.1049805 5.204933 1.6574707 7.7234497c0.55249023 2.5185165 1.1212158 4.691902 1.7062073 6.5201645l0.17059326 0c3.1849365 0.80218506 6.572937 1.2872314 10.164093 1.4551392c0.7675476 0.03968811 1.5210876 0.059539795 2.2606506 0.059539795c2.7364502 0 5.281555 -0.271698 7.635315 -0.815094l0 -0.16790771l-11.236542 -60.192535c-0.38998413 -1.9401855 -0.9343567 -4.5706406 -1.6330872 -7.89135c-0.69873047 -3.320713 -1.4543457 -6.986553 -2.2668152 -10.99752c-0.79623413 -4.010971 -1.6168213 -8.189838 -2.461792 -12.536617c-0.8449707 -4.365429 -1.6412048 -8.469677 -2.3886719 -12.312746c-0.74749756 -3.843069 -1.446228 -7.285042 -2.0961914 -10.325916c-0.6499939 -3.0408745 -1.129364 -5.307539 -1.4380798 -6.7999945z" fill-rule="evenodd"/><path fill="#ffd100" d="m371.87616 35.73789c4.6961365 0 7.9378967 1.2872391 9.725342 3.8617249c1.8037109 2.574482 2.8518066 5.9231796 3.144287 10.046082c0.40625 4.122902 0.6824951 7.6768074 0.82873535 10.661716c0.14624023 2.9849129 0.21936035 6.482849 0.21936035 10.49382c0 1.2685852 0.024383545 2.7890167 0.07312012 4.56131c0.06500244 1.7722855 0.09750366 3.6098785 0.09750366 5.5127563c0 1.8842239 -0.03250122 3.6845016 -0.09750366 5.400818c-0.048736572 1.7163239 -0.12185669 3.208786 -0.21936035 4.4773636c-0.09750366 0.5596695 -0.19500732 1.3338699 -0.29248047 2.3226318c-0.09750366 0.97008514 -0.19500732 2.005478 -0.292511 3.1061707c-0.097473145 1.0820236 -0.20309448 2.108078 -0.316864 3.078186c-0.097473145 0.97008514 -0.1949768 1.7442932 -0.29248047 2.3226318c-0.6012268 -0.69026184 -1.1293335 -1.5484161 -1.5843201 -2.5744858c-0.43875122 -1.0447235 -0.8856201 -1.9961624 -1.3406067 -2.8543167c-0.4387207 -0.8581619 -0.90997314 -1.5950623 -1.4136963 -2.210701c-0.50372314 -0.634285 -1.0562134 -0.9514389 -1.6574402 -0.9514389c-1.0887451 0 -2.0393372 0.4570694 -2.8518066 1.3711929c-0.79623413 0.91412354 -1.5924683 1.660347 -2.3886719 2.238678c-1.0887146 0.91412354 -2.1855774 1.660347 -3.2905273 2.2386856c-1.0887146 0.5596695 -1.6330872 1.6416931 -1.6330872 3.2460861c0 1.0447235 0.316864 2.1733932 0.95059204 3.3860092c0.6499939 1.1939545 1.3812256 2.359932 2.193695 3.4979324c0.99121094 1.2685928 2.0880737 2.5838165 3.2905273 3.9456787c-0.50375366 0.11193085 -0.95874023 0.16790009 -1.3649597 0.16790009l-1.3405762 0c-2.9899292 0 -5.711731 -0.7369003 -8.165405 -2.2106934c-2.437439 -1.4924622 -4.208618 -3.9643402 -5.3135986 -7.415634c-0.50372314 -1.7163239 -0.8530884 -3.917694 -1.0480957 -6.6041107c-0.1949768 -2.7050705 -0.29248047 -5.4847717 -0.29248047 -8.339088c0 -2.8729706 0.024383545 -5.624687 0.07312012 -8.255135c0.048736572 -2.6304474 0.07312012 -4.7478714 0.07312012 -6.352257c0 -2.4065857 0.024383545 -4.607956 0.07312012 -6.6041107c0.04876709 -2.0148163 0.09750366 -3.9643326 0.14624023 -5.8485565c0.04876709 -1.9028778 0.14627075 -3.852398 0.292511 -5.8485527c0.16247559 -2.0148125 0.34121704 -4.2255096 0.53622437 -6.6320915c0.19500732 -2.8729782 0.46310425 -5.19561 0.8043518 -6.9678955c0.3574829 -1.7722893 1.0074768 -3.1154976 1.9499512 -4.0296288c0.9587097 -0.9327812 2.258667 -1.539093 3.8998718 -1.8189278c1.6574707 -0.27983475 3.9324036 -0.4197502 6.8247986 -0.4197502zm0.43875122 -25.6329c-3.8836365 0 -7.4747925 0.40109825 -10.7734375 1.2032909c-3.298645 0.80219364 -6.2723083 1.9495173 -8.92099 3.4419727c-2.6324158 1.4924555 -4.8504944 3.246087 -6.654175 5.2609015c-1.8037109 1.9961567 -3.0549316 4.197527 -3.753662 6.604109c-0.99121094 4.122902 -1.714325 8.479004 -2.1693115 13.068302c-0.4387207 4.5892944 -0.73934937 9.2065735 -0.90182495 13.851837c-0.14627075 4.626606 -0.21939087 9.206577 -0.21939087 13.739906c0 4.533333 0 8.805481 0 12.816452c0 4.2348404 0 8.35775 0 12.368713c0 4.010971 0.2518921 7.8820343 0.75561523 11.613159c0.50372314 3.7311401 1.3730774 7.22908 2.6080322 10.493813c1.2512207 3.26474 3.1280518 6.2683105 5.6304626 9.010696c1.4949646 1.604393 2.9655457 2.9849167 4.4117737 4.141556c1.4461975 1.1380005 2.9898987 2.1360626 4.6311035 2.9942322c1.6574402 0.85816956 3.4611511 1.5484161 5.4111023 2.0707855c1.9499207 0.5223541 4.1679993 0.8954773 6.654175 1.119339c0.47207642 0.035354614 0.95388794 0.053024292 1.4454346 0.053024292c1.0650024 0 2.1756287 -0.082977295 3.3319092 -0.24890137c1.7062073 -0.22387695 3.3067932 -0.5596771 4.801758 -1.0074158c1.5112 -0.4663849 2.8598938 -1.0353851 4.046112 -1.7069855c1.2024841 -0.69026184 2.1043396 -1.4364777 2.7055664 -2.238678c0.6012268 0.91412354 1.5193176 2.0614471 2.7542725 3.4419708c1.2512207 1.3618469 2.1774597 2.0427856 2.7786865 2.0427856c1.1049805 0 2.2505493 -0.3731079 3.4367676 -1.119339c1.2024841 -0.7462158 2.2018127 -1.3991699 2.9980469 -1.958847c1.10495 -0.93278503 2.0555725 -1.856247 2.8517761 -2.7703705c0.79623413 -0.9141159 1.1943665 -2.173378 1.1943665 -3.777771c0 -0.80218506 -0.30062866 -1.6323624 -0.90185547 -2.490532c-0.58499146 -0.8581543 -1.2268372 -1.7442932 -1.9255676 -2.658432c1.6899414 -4.2534943 2.8355408 -7.7514343 3.4367676 -10.49382c0.40625 -1.604393 0.6581116 -3.0968475 0.75561523 -4.477356c0.6012268 -2.7423859 0.9262085 -5.540741 0.97494507 -8.395058c0.04876709 -2.8729706 0.17062378 -5.745941 0.3656311 -8.618919c0.1949768 -3.43264 0.316864 -6.3802414 0.3656006 -8.842796c0.04876709 -2.4812012 0.07312012 -5.4941025 0.07312012 -9.038673c0 -6.8839455 -0.30059814 -13.758564 -0.90182495 -20.623848c-0.58499146 -6.8839455 -1.7305908 -13.422764 -3.436798 -19.616446c-1.6899414 -4.5706425 -3.4367676 -8.143202 -5.240448 -10.717686c-1.7874756 -2.5931377 -3.7861633 -4.5146713 -5.9960938 -5.7646046c-2.193695 -1.2685871 -4.6392517 -2.0427961 -7.33667 -2.322631c-2.6974182 -0.29849052 -5.792938 -0.44773674 -9.286591 -0.44773674z" fill-rule="evenodd"/><path fill="#ffd100" d="m425.3358 15.61774c-1.9012146 0 -3.7780151 0.05596733 -5.6304626 0.16790104c-1.8362122 0.11193371 -3.50177 0.16790104 -4.9967346 0.16790104l-0.14624023 0l0.14624023 0.16790104c0.19500732 15.129755 0.13812256 30.38077 -0.17062378 45.753044c-0.29248047 15.353622 -0.4387207 30.595314 -0.4387207 45.725067c0.21124268 5.260895 1.535553 9.756912 3.972992 13.488052c2.4536743 3.7311401 5.500458 6.7160416 9.14035 8.95472c3.6398926 2.2200317 7.702301 3.7591248 12.187164 4.617279c2.9382324 0.57237244 5.810669 0.858551 8.61734 0.858551c1.4929199 0 2.9672241 -0.080963135 4.4229126 -0.24290466c7.198517 -0.8022003 12.893982 -3.8337402 17.086365 -9.09465c4.192383 -5.2795486 6.686676 -11.706429 7.48291 -19.28064c1.3974609 -14.775291 2.193695 -29.643867 2.3886719 -44.60572c0.19500732 -14.961857 0 -29.77446 -0.58499146 -44.43782c-1.2024536 -0.8021927 -2.7542725 -1.3152256 -4.655487 -1.539093c-1.3008118 -0.16593742 -2.6472778 -0.24890709 -4.0393677 -0.24890709c-0.6425171 0 -1.2947388 0.017673492 -1.9566956 0.053022385c-2.0961914 0.11193466 -4.1679993 0.3171482 -6.215454 0.6156368c-2.0474243 0.27983475 -3.7130127 0.47571945 -4.9967346 0.5876541c-0.30871582 13.301495 -0.48745728 27.060059 -0.53622437 41.275684c-0.048736572 14.215622 -0.3249817 28.198051 -0.82873535 41.94729c-0.50372314 2.6304474 -1.6005554 4.6918945 -3.2905273 6.1843567c-1.6899414 1.4924622 -3.5342712 2.2946472 -5.532959 2.4065857c-0.16427612 0.00919342 -0.32806396 0.013793945 -0.491333 0.013793945c-1.8233948 0 -3.5851746 -0.57359314 -5.28537 -1.7207947c-1.8361816 -1.2685852 -3.1036682 -3.2740707 -3.8023987 -6.0164566c-1.9986877 -28.543182 -2.4536743 -56.685272 -1.3649597 -84.42626l0 -0.16790009c-1.4949341 -0.46639252 -3.144287 -0.7835388 -4.9479675 -0.9514408c-1.7874451 -0.16790104 -3.631775 -0.25185108 -5.532959 -0.25185108z" fill-rule="evenodd"/><path fill="#ffd100" d="m521.1653 36.077488c1.270874 0 2.5232544 0.2878952 3.757019 0.8636894c2.2911377 1.2499313 4.111084 3.1994553 5.459839 5.8485565c1.3486938 2.6304474 2.128662 5.5500603 2.3399048 8.758839c0.097473145 1.9401894 0.21936035 4.029625 0.3656006 6.2683067c0.14624023 2.2386818 0.21936035 3.41399 0.21936035 3.5259247l0.31689453 11.697105l0 8.255142c0 0.2238617 -0.03253174 1.1939545 -0.097473145 2.910286c-0.04876709 1.7163239 -0.12188721 3.7218018 -0.21942139 6.016449c-0.19494629 2.4065857 -0.2680664 4.3281174 -0.21936035 5.7646103c0.04876709 1.4364853 0.024414062 2.6770935 -0.07312012 3.7218018c-0.097473145 1.026062 -0.34936523 1.9681702 -0.75561523 2.8263397c-0.3899536 0.8581543 -1.039917 1.9681625 -1.9498901 3.3300323c-1.4949951 1.958847 -3.3392944 3.3673553 -5.53302 4.2255173c-1.8347168 0.71772766 -3.6694336 1.0765991 -5.5041504 1.0765991c-0.35894775 0 -0.7178955 -0.01373291 -1.0769043 -0.04121399c-2.1936646 -0.16790009 -4.241089 -0.8861389 -6.142273 -2.1547318c-1.9012146 -1.2685852 -3.3474426 -3.0408783 -4.3386536 -5.316864c-1.0074768 -3.7871094 -1.6087036 -7.770096 -1.8036804 -11.948959c-0.19500732 -4.1975327 -0.54437256 -8.301773 -1.0480957 -12.312752c-0.19500732 -4.8131638 -0.21939087 -9.6263275 -0.07312012 -14.439491c0.14624023 -4.8131638 0.61746216 -9.393135 1.4136963 -13.739906c1.2024841 -4.8131638 3.550537 -8.768166 7.0441895 -11.865009c1.5924683 -1.380516 3.4367676 -2.3599396 5.532959 -2.9382668c0.8022461 -0.22133636 1.5973511 -0.33200455 2.385315 -0.33200455zm-1.1104736 -23.635395c-3.0441284 0 -6.093384 0.34030437 -9.147736 1.0209169c-3.8349 0.85816 -7.4016724 2.2013683 -10.700317 4.029627c-1.2837219 0.93278503 -2.4293213 1.968174 -3.436798 3.1061687c-3.0874023 4.010973 -5.15921 8.628256 -6.2154236 13.851841c-1.039978 5.204933 -1.6168213 10.391209 -1.7305908 15.558834c-0.4874878 9.048 -0.5606079 18.07735 -0.21936035 27.08804c0.3574829 8.992043 0.6824646 17.9561 0.9749756 26.892159c0.09750366 3.3207092 0.37374878 6.613426 0.82873535 9.878181c0.45495605 3.26474 1.3811951 6.3335953 2.778656 9.2065735c0.8937073 2.2946548 2.0393066 4.1602173 3.4367676 5.59671c1.3974609 1.4178162 2.9655457 2.5931244 4.704254 3.5259247c1.7549438 0.91412354 3.6073914 1.5670776 5.5573425 1.958847c1.9499207 0.41041565 3.972992 0.7275696 6.069214 0.9514313c1.446167 0.11193848 2.8862915 0.16790771 4.3203125 0.16790771c1.434021 0 2.8619385 -0.05596924 4.2838135 -0.16790771c2.843628 -0.2238617 5.662903 -0.80218506 8.457825 -1.7349701c3.1036987 -0.91412354 6.020447 -2.2013702 8.750366 -3.8617249c2.7462158 -1.6603699 4.972412 -3.8617325 6.678589 -6.6041183c1.7874756 -3.3393707 3.1280518 -7.0425262 4.0217285 -11.109451c0.90997314 -4.0669403 1.4624634 -8.105904 1.6574707 -12.116867l0.46313477 -5.680649c0.3899536 -5.9511566 0.53619385 -11.79039 0.4387207 -17.517685c-0.097473145 -5.727295 0.008117676 -11.631813 0.31689453 -17.713562c0.097473145 -2.8729744 0.12182617 -5.708637 0.07312012 -8.506989c-0.04876709 -2.817009 -0.17877197 -5.652668 -0.39001465 -8.506989c-0.19500732 -1.8469124 -0.47125244 -3.6565132 -0.82873535 -5.4288025c-0.34124756 -1.7722855 -0.86120605 -3.51659 -1.5599365 -5.232916c-1.2024536 -4.0109673 -3.249939 -7.5089073 -6.142334 -10.493818c-2.892395 -2.5185165 -6.166687 -4.440048 -9.822815 -5.7646036c-3.6398926 -1.3245535 -7.385437 -2.0987635 -11.236572 -2.3226318c-0.793396 -0.046316147 -1.5872192 -0.06947708 -2.3812866 -0.06947708z" fill-rule="evenodd"/><path fill="#ffd100" d="m590.89996 11.556584c-0.4569702 0 -0.9144287 0.0011816025 -1.3723755 0.003545761c-10.822205 0.05596733 -21.327515 0.14924622 -31.515991 0.27983475c0 0.11193466 0.024414062 0.16790104 0.07312012 0.16790104c0.06500244 0 0.09753418 0.05596733 0.09753418 0.16790104c-0.21124268 2.742385 -0.31689453 5.6060324 -0.31689453 8.5909395c0 2.9849072 0.024414062 5.7646046 0.07312012 8.339087c0.04876709 2.5744839 0.14624023 4.785183 0.29248047 6.6320953c0.16253662 1.8282509 0.34124756 2.9755745 0.5362549 3.4419708c0.6012573 0.22386932 1.649353 0.33580017 3.144287 0.33580017c1.4949341 0 3.144287 0.02798462 4.947998 0.08395386c1.8037109 0.055965424 3.5992432 0.16790009 5.3867188 0.33580017c1.8037109 0.16790009 3.298645 0.59698105 4.4848633 1.2872429l0.17059326 0.16790009c0.585022 16.062538 0.95062256 29.765137 1.0968628 41.10778c0.16247559 11.342659 0.21936035 20.65184 0.17059326 27.927551c-0.048706055 7.275711 -0.12994385 12.751152 -0.24371338 16.426323c-0.097473145 3.6751785 -0.08935547 5.7366257 0.024353027 6.184349c1.7874756 -0.33580017 3.729309 -0.5036926 5.8255005 -0.5036926l6.3616333 0c2.1449585 0 4.289917 -0.02798462 6.4348145 -0.08395386c2.1611938 -0.05596924 4.135559 -0.2611847 5.9229736 -0.6156311l0 -0.16790771l0 -0.16790771c-0.19500732 -12.49929 -0.34124756 -23.356895 -0.4387207 -32.572807c-0.09753418 -9.234558 -0.203125 -17.14457 -0.31689453 -23.730019c-0.097473145 -6.6041107 -0.17059326 -11.995602 -0.21936035 -16.174469c-0.04876709 -4.178871 -0.07312012 -7.5555496 -0.07312012 -10.130035c0 -2.5931396 0.024353027 -4.4866943 0.07312012 -5.6806526c0.04876709 -1.212616 0.12188721 -2.0987625 0.21936035 -2.658432c0 -0.11193466 0.024414062 -0.1958847 0.07312012 -0.25185394c0.06500244 -0.07462311 0.09753418 -0.16790009 0.09753418 -0.27983475l0.4387207 0c4.696106 -0.22386551 8.44165 -0.3917694 11.236572 -0.5037041c0.55895996 -0.022384644 1.1000977 -0.033576965 1.623291 -0.033576965c2.0929565 0 3.8999023 0.1790924 5.4208374 0.53728104c0.4874878 -4.122902 0.75561523 -8.646906 0.8043823 -13.572004c0.04876709 -4.9250984 -0.024414062 -9.281197 -0.21936035 -13.0683c-9.851379 -1.2149839 -19.956055 -1.8224745 -30.314209 -1.8224745z" fill-rule="evenodd"/><path fill="#ffd100" d="m680.8042 12.847372c-3.2824097 0 -7.0685425 0.06529522 -11.358398 0.19588375c-4.289917 0.11193466 -8.734131 0.22386837 -13.332764 0.33580303c-4.598633 0.11193371 -9.172852 0.25185108 -13.722717 0.41975212c-4.5336304 0.16790104 -8.742249 0.3731146 -12.6258545 0.6156378c-0.5037842 9.850198 -0.8043823 19.653755 -0.90185547 29.410675c-0.09753418 9.738262 -0.09753418 19.476524 0 29.214787c0.097473145 9.738266 0.24371338 19.513847 0.4387207 29.326729c0.19500732 9.794228 0.29248047 19.67241 0.29248047 29.634537c6.779297 0.6398926 13.765625 0.9598236 20.958984 0.9598236c3.0828247 0 6.2037354 -0.058761597 9.36261 -0.17628479c8.000366 -0.3113556 15.897888 -0.46702576 23.692505 -0.46702576c2.4801636 0 4.949829 0.01574707 7.4091187 0.04727173c0.79626465 -3.4513092 1.243103 -7.154457 1.3405762 -11.109451c0.09753418 -3.9550095 0.04876709 -7.760765 -0.14624023 -11.417274l0 -0.3637848c-2.597046 0.09273529 -5.1655884 0.13909912 -7.7056274 0.13909912c-4.1031494 0 -8.131897 -0.12099457 -12.086304 -0.36296844c-6.3860474 -0.41042328 -12.869629 -0.61563873 -19.450684 -0.61563873l-0.14624023 -0.16790009c-0.19500732 -2.761032 -0.37371826 -6.2030106 -0.5362549 -10.32592c-0.14624023 -4.1229095 0.03253174 -7.8447113 0.5362549 -11.165421c0.50372314 -0.4663849 1.4543457 -0.7555542 2.8518066 -0.86748505c1.3974609 -0.11193848 2.9655151 -0.16790009 4.7042236 -0.16790009c1.7549438 0 3.5748901 -0.02798462 5.459839 -0.08395386c1.9011841 -0.05596924 3.5993042 -0.31715393 5.0942383 -0.7835388c-0.097473145 -4.234833 -0.04876709 -8.301773 0.14624023 -12.200813c0.21124268 -3.8990326 0.06500244 -7.798065 -0.4387207 -11.697109l0 -0.16790009c-3.1036377 -0.11193466 -6.1992188 -0.16790009 -9.286621 -0.16790009c-3.0874023 0 -6.1342163 -0.1212616 -9.140381 -0.3637848l-0.14624023 -0.1679039c-0.69873047 -3.0968437 -0.8774414 -6.389572 -0.53619385 -9.878178c0.3574829 -3.488617 0.4874878 -6.902603 0.3899536 -10.241966l0.14624023 -0.1679039l0.46313477 0c3.2824097 -0.33580017 6.572937 -0.5037041 9.871582 -0.5037041c3.298645 0 6.5891724 0.02798462 9.871582 0.08395386c0.824646 0.013988495 1.6477661 0.02098465 2.4694214 0.02098465c2.4648438 0 4.9160156 -0.06296158 7.3534546 -0.18888855c3.249878 -0.16790009 6.467285 -0.6529465 9.652161 -1.455143l0 -0.1958847c0 -4.0109673 0.12188721 -8.077902 0.36566162 -12.200811c0.26000977 -4.1229057 0.13812256 -8.189844 -0.36566162 -12.200811c0 -0.11193466 -0.9993286 -0.22386837 -2.9979858 -0.33580303c-1.9987183 -0.13058853 -4.6474 -0.19588375 -7.946045 -0.19588375z" fill-rule="evenodd"/><path stroke="#000000" stroke-width="3.0" stroke-linejoin="round" stroke-linecap="butt" d="m42.266697 12.200382c-2.106926 0 -4.253765 0.15969658 -6.440525 0.47908783c-2.6974297 0.46639156 -5.2973633 1.1566505 -7.799774 2.0707808c-2.4861774 0.9141264 -4.728613 2.3506155 -6.7273045 4.3094606c-2.8924236 2.2946491 -4.964239 5.214264 -6.2154446 8.758841c-1.2512054 3.5445805 -2.1286802 7.2104206 -2.6324234 10.997522c-0.4874859 3.6751633 -0.83684254 7.4342804 -1.0480947 11.277355c-0.19499397 3.824417 -0.34123993 7.5742073 -0.43873692 11.249374c-0.09749699 4.234833 -0.12187195 7.99395 -0.07312298 11.277351c0.048748016 3.2647476 0.14624596 6.361595 0.29249096 9.290527c0.14624596 2.910286 0.31686592 5.8578873 0.51186085 8.842796c0.21125126 2.9662476 0.46311092 6.286957 0.75560284 9.962128c0.21125126 2.2946472 0.4874859 4.5613174 0.8287258 6.7999954c0.35749722 2.238678 0.68247986 3.982994 0.9749718 5.232918c1.2024574 4.9250946 2.8517914 9.057327 4.947981 12.396698c2.0961895 3.3207092 5.142975 5.9511566 9.14036 7.891342c2.3886795 1.156662 4.9073505 1.9028931 7.5560284 2.2386932c1.444725 0.18315125 2.9112053 0.27474976 4.3994675 0.27474976c1.2402077 0 2.4955063 -0.06361389 3.7659225 -0.19081116c2.7949257 -0.27983093 5.5411034 -0.7368927 8.23851 -1.3711853c2.6974297 -0.6342926 5.2892227 -1.3525238 7.7753983 -2.1547241c3.802391 -1.6044006 6.9954224 -3.955017 9.579094 -7.0518494c2.5999374 -3.09684 4.1517715 -7.5648727 4.6554947 -13.404106c0.9912262 -6.1936874 1.3893356 -12.695198 1.1943359 -19.504509c-0.19499207 -6.82798 -0.5930939 -13.282845 -1.1943359 -19.364594l-0.14624786 -0.16790009l-0.2924881 0c-1.0074692 0 -2.9330368 -0.13991547 -5.7767105 -0.41975403c-2.8436737 -0.27983093 -5.914837 -0.47571564 -9.213482 -0.5876541c-1.3582726 -0.053771973 -2.6862411 -0.08065796 -3.9838867 -0.08065796c-1.8538055 0 -3.6457443 0.054870605 -5.375843 0.16461182c-2.9411697 0.16790009 -5.0617332 0.7089081 -6.3616867 1.6230392c-0.19499588 0.11193848 -0.2924919 0.16790009 -0.2924919 0.16790009c-0.09749985 0 -0.14624786 0.05596924 -0.14624786 0.16790771l0 0.16790009c0.19499588 2.070778 0.2924919 3.7964325 0.2924919 5.1769485c0 1.3618622 -0.0243721 2.7050781 -0.07312393 4.029625c-0.048748016 1.3245544 -0.048748016 2.6771011 0 4.0576096c0.04875183 1.3618622 0.17061996 2.9569244 0.36561584 4.785179c0.5037422 0.2425232 1.2268562 0.3917694 2.1693115 0.44773865c0.47937012 0.02798462 0.98106384 0.04197693 1.5051117 0.04197693c0.52404785 0 1.070446 -0.01399231 1.6391716 -0.04197693c1.1537094 -0.05596924 2.2505531 -0.11193085 3.2905312 -0.16790009c0.35206985 -0.01865387 0.6788597 -0.02798462 0.9803963 -0.02798462c0.60302734 0 1.1049614 0.03731537 1.5057793 0.11193085c0.2924919 0.11193848 0.46311188 0.6249695 0.5118599 1.539093c0.04875183 0.91412354 0.04875183 1.9495163 0 3.1061707c-0.048748016 1.1379929 -0.14624405 2.2573318 -0.2924919 3.3580246c-0.14624405 1.0820236 -0.268116 1.8469086 -0.36561203 2.2946472c-0.4062462 1.604393 -1.0074883 2.9009705 -1.8036995 3.8897095c-0.79623413 0.9700928 -1.74683 1.7442932 -2.8517914 2.3226318c-1.3974495 0.5596695 -2.9249153 1.0167389 -4.582367 1.3711929c-0.9847069 0.20146942 -1.9431114 0.30221558 -2.8751907 0.30221558c-0.62137604 0 -1.2310677 -0.044776917 -1.8290482 -0.13431549c-1.3974495 -0.35445404 -2.5430412 -0.86748505 -3.4367752 -1.539093c-1.9011917 -1.7349777 -3.1523972 -4.085594 -3.7536392 -7.0518494c-0.60124207 -2.9849014 -0.9993477 -5.736618 -1.1943398 -8.255135c-0.2924919 -4.2534943 -0.49560356 -8.721519 -0.60935783 -13.4040985c-0.09749794 -4.701233 -0.048748016 -9.25322 0.14624596 -13.65596c0.21125221 -4.4213943 0.5362339 -8.581612 0.9749718 -12.480644c0.4549942 -3.8990364 1.0318604 -7.2290726 1.7305756 -9.990116c0.2112503 -0.91413116 0.48748398 -1.8562431 0.8287239 -2.826336c0.35749817 -0.9700966 0.63373184 -1.5764084 0.8287277 -1.8189278c1.2024574 -1.361866 2.599907 -2.042797 4.192375 -2.042797c1.5924492 0 3.2417831 0.05596924 4.947983 0.16790009c1.4949493 0 2.7867851 0.5503464 3.8755112 1.6510277c1.1049614 1.0820312 2.0799332 2.3412895 2.9249153 3.7777748c0.84498596 1.4178352 1.5437241 2.9569283 2.0961914 4.617279c0.55249023 1.6603546 0.98311234 3.0688553 1.2918358 4.2255135c1.4949493 0.22386551 2.7867851 0.3917694 3.8755112 0.50370026c1.1049614 0.11193466 2.1774292 0.1679039 3.2174072 0.1679039c1.0562134 0 2.104309 -0.02798462 3.144287 -0.08395004c1.0562057 -0.05596924 2.331787 -0.08395386 3.8267593 -0.08395386c1.5924454 -0.11193085 2.738037 -0.16790009 3.4367752 -0.16790009c0.6987381 0 1.1537323 -0.16790009 1.3649597 -0.5037041l0.14624786 -1.035389c0.6987381 -6.9958763 0.14624786 -13.040318 -1.6574478 -18.133316c-1.7874451 -5.111658 -4.484871 -9.215906 -8.09227 -12.312748c-3.591137 -3.09684 -7.881012 -5.242242 -12.869625 -6.436208c-3.0023918 -0.7298155 -6.0960236 -1.0947256 -9.280891 -1.0947256z" fill-rule="evenodd"/><path stroke="#000000" stroke-width="3.0" stroke-linejoin="round" stroke-linecap="butt" d="m136.74214 12.847372c-3.2824097 0 -7.0685425 0.06529522 -11.358421 0.19588375c-4.289871 0.11193466 -8.734116 0.22386837 -13.332733 0.33580303c-4.598625 0.11193371 -9.172874 0.25185108 -13.722733 0.41975212c-4.533615 0.16790104 -8.742249 0.3731146 -12.625877 0.6156378c-0.50374603 9.850198 -0.8043518 19.653755 -0.90185547 29.410675c-0.09749603 9.738262 -0.09749603 19.476524 0 29.214787c0.09750366 9.738266 0.2437439 19.513847 0.4387436 29.326729c0.19499207 9.794228 0.2924881 19.67241 0.2924881 29.634537c6.779312 0.6398926 13.76564 0.9598236 20.958961 0.9598236c3.0828476 0 6.2037354 -0.058761597 9.362656 -0.17628479c8.000366 -0.3113556 15.897865 -0.46702576 23.692497 -0.46702576c2.4801178 0 4.949814 0.01574707 7.4091034 0.04727173c0.79623413 -3.4513092 1.2430878 -7.154457 1.3405914 -11.109451c0.0974884 -3.9550095 0.048736572 -7.760765 -0.1462555 -11.417274l0 -0.3637848c-2.597046 0.09273529 -5.1656036 0.13909912 -7.705658 0.13909912c-4.103134 0 -8.131897 -0.12099457 -12.086258 -0.36296844c-6.3860703 -0.41042328 -12.869629 -0.61563873 -19.450691 -0.61563873l-0.14624786 -0.16790009c-0.19499207 -2.761032 -0.3737259 -6.2030106 -0.536232 -10.32592c-0.14624786 -4.1229095 0.03249359 -7.8447113 0.536232 -11.165421c0.50374603 -0.4663849 1.4543457 -0.7555542 2.8517914 -0.86748505c1.3974533 -0.11193848 2.9655228 -0.16790009 4.704239 -0.16790009c1.7549515 0 3.5749054 -0.02798462 5.4598465 -0.08395386c1.9011917 -0.05596924 3.5992737 -0.31715393 5.094223 -0.7835388c-0.09749603 -4.234833 -0.0487442 -8.301773 0.14624786 -12.200813c0.2112503 -3.8990326 0.06500244 -7.798065 -0.43873596 -11.697109l0 -0.16790009c-3.103653 -0.11193466 -6.199188 -0.16790009 -9.286606 -0.16790009c-3.0874176 0 -6.1342087 -0.1212616 -9.140358 -0.3637848l-0.14624786 -0.1679039c-0.6987381 -3.0968437 -0.8774719 -6.389572 -0.536232 -9.878178c0.35749054 -3.488617 0.48748016 -6.902603 0.38998413 -10.241966l0.14624786 -0.1679039l0.46311188 0c3.2824097 -0.33580017 6.572937 -0.5037041 9.87159 -0.5037041c3.298645 0 6.5891724 0.02798462 9.871582 0.08395386c0.82466125 0.013988495 1.6477966 0.02098465 2.4694214 0.02098465c2.464859 0 4.915985 -0.06296158 7.353424 -0.18888855c3.2498932 -0.16790009 6.4673004 -0.6529465 9.652222 -1.455143l0 -0.1958847c0 -4.0109673 0.12187195 -8.077902 0.36561584 -12.200811c0.2599945 -4.1229057 0.13812256 -8.189844 -0.36561584 -12.200811c0 -0.11193466 -0.9993439 -0.22386837 -2.9980469 -0.33580303c-1.9986877 -0.13058853 -4.6473694 -0.19588375 -7.9460144 -0.19588375z" fill-rule="evenodd"/><path stroke="#000000" stroke-width="3.0" stroke-linejoin="round" stroke-linecap="butt" d="m185.21208 11.556584c-0.45698547 0 -0.91444397 0.0011816025 -1.372406 0.003545761c-10.822189 0.05596733 -21.3275 0.14924622 -31.51596 0.27983475c0 0.11193466 0.024368286 0.16790104 0.07312012 0.16790104c0.06500244 0 0.09750366 0.05596733 0.09750366 0.16790104c-0.21124268 2.742385 -0.316864 5.6060324 -0.316864 8.5909395c0 2.9849072 0.024368286 5.7646046 0.07312012 8.339087c0.04875183 2.5744839 0.14624023 4.785183 0.29249573 6.6320953c0.16249084 1.8282509 0.3412323 2.9755745 0.53622437 3.4419708c0.6012268 0.22386932 1.6493225 0.33580017 3.144287 0.33580017c1.4949646 0 3.144287 0.02798462 4.947983 0.08395386c1.8036957 0.055965424 3.5992584 0.16790009 5.3867188 0.33580017c1.8036957 0.16790009 3.2986603 0.59698105 4.4848633 1.2872429l0.17062378 0.16790009c0.58499146 16.062538 0.95059204 29.765137 1.0968475 41.10778c0.16249084 11.342659 0.21936035 20.65184 0.17062378 27.927551c-0.04875183 7.275711 -0.13000488 12.751152 -0.2437439 16.426323c-0.09750366 3.6751785 -0.08937073 5.7366257 0.024368286 6.184349c1.7874451 -0.33580017 3.7292633 -0.5036926 5.8254547 -0.5036926l6.3616943 0c2.144928 0 4.289871 -0.02798462 6.4348145 -0.08395386c2.1611786 -0.05596924 4.135498 -0.2611847 5.922943 -0.6156311l0 -0.16790771l0 -0.16790771c-0.19499207 -12.49929 -0.3412323 -23.356895 -0.43873596 -32.572807c-0.0974884 -9.234558 -0.203125 -17.14457 -0.316864 -23.730019c-0.0974884 -6.6041107 -0.17062378 -11.995602 -0.21936035 -16.174469c-0.04875183 -4.178871 -0.073135376 -7.5555496 -0.073135376 -10.130035c0 -2.5931396 0.024383545 -4.4866943 0.073135376 -5.6806526c0.048736572 -1.212616 0.12187195 -2.0987625 0.21936035 -2.658432c0 -0.11193466 0.024383545 -0.1958847 0.07312012 -0.25185394c0.06500244 -0.07462311 0.09750366 -0.16790009 0.09750366 -0.27983475l0.43873596 0c4.696106 -0.22386551 8.44162 -0.3917694 11.236542 -0.5037041c0.5589905 -0.022384644 1.1000977 -0.033576965 1.6233368 -0.033576965c2.0929413 0 3.899887 0.1790924 5.4208374 0.53728104c0.4874878 -4.122902 0.7556 -8.646906 0.8043518 -13.572004c0.04875183 -4.9250984 -0.024368286 -9.281197 -0.21936035 -13.0683c-9.851334 -1.2149839 -19.95607 -1.8224745 -30.314178 -1.8224745z" fill-rule="evenodd"/><path stroke="#000000" stroke-width="3.0" stroke-linejoin="round" stroke-linecap="butt" d="m275.33813 47.61303c0.355896 0 0.711792 0.6309128 1.067688 1.892746c0.5524597 1.9401894 1.2024536 5.661995 1.9499207 11.165424c0.74749756 5.484768 1.6168518 13.161579 2.6080627 23.03043c-1.8849487 0 -3.7780151 0.02798462 -5.6792297 0.08395386c-0.633728 0.01864624 -1.2557068 0.02798462 -1.8659668 0.02798462c-1.22052 0 -2.394104 -0.037322998 -3.520752 -0.11193848c0.698761 -5.8578796 1.3162231 -11.305336 1.8524475 -16.34237c0.55249023 -5.037037 1.0562439 -9.215904 1.5112305 -12.536617c0.45498657 -3.339363 0.95059204 -5.5500603 1.4868164 -6.6320915c0.19659424 -0.38501358 0.39318848 -0.5775223 0.5897827 -0.5775223zm8.623718 -35.96895c-3.2824097 0.3544569 -5.9473267 0.55967045 -7.9947815 0.6156378c-2.0474548 0.05596733 -3.7211304 0.08395004 -5.021118 0.08395004l-3.1442566 0c-0.79623413 0 -1.5437317 0.05596733 -2.2424622 0.16790104c-2.4049072 9.178594 -4.60672 18.413155 -6.6054077 27.703678c-1.9987183 9.27187 -3.8511505 18.207935 -5.5573425 26.808205c-1.6899567 8.6002655 -3.1605377 16.715492 -4.4117584 24.345657c-1.2349548 7.611519 -2.3074188 14.336899 -3.2174072 20.176117c-0.89372253 5.839226 -1.5924377 10.59642 -2.0961914 14.271591c-0.48747253 3.675171 -0.8287201 5.913849 -1.0237122 6.716049c0.09750366 0.11192322 0.19499207 0.16789246 0.29249573 0.16789246c2.2640991 -0.03730774 4.3277893 -0.05596924 6.1910706 -0.05596924c3.7265472 0 6.651474 0.07463074 8.77475 0.22387695c1.6005554 0.11193848 2.9005432 0.16789246 3.8998718 0.16789246c0.99935913 0 1.6980896 -0.05595398 2.0961914 -0.16789246c0.09750366 0 0.17062378 -0.02798462 0.21936035 -0.08395386c0.04876709 -0.05596924 0.12188721 -0.08395386 0.21939087 -0.08395386c0.90997314 -1.958847 1.6087036 -4.197525 2.0961914 -6.7160416c0.50372314 -2.5185165 0.97494507 -5.1209793 1.4136963 -7.807396c0.45498657 -2.7050705 0.90997314 -5.288887 1.3649597 -7.7514343c0.45498657 -2.4625473 1.0318604 -4.6079483 1.7305603 -6.4362106c1.0887451 0 1.9580994 -0.02798462 2.6080627 -0.08394623c0.6499939 -0.05596924 1.2512207 -0.08395386 1.8037109 -0.08395386l1.8768005 0c0.69873047 0 1.6980896 0.11193085 2.9980469 0.33580017c0.69873047 1.7163315 1.3405762 3.7777786 1.9255676 6.1843567c0.6012268 2.4065857 1.1781006 4.934433 1.7305603 7.5835342c0.55249023 2.6304474 1.1049805 5.204933 1.6574707 7.7234497c0.55249023 2.5185165 1.1212158 4.691902 1.7062073 6.5201645l0.17059326 0c3.1849365 0.80218506 6.572937 1.2872314 10.164093 1.4551392c0.7675476 0.03968811 1.5210876 0.059539795 2.2606506 0.059539795c2.7364502 0 5.281555 -0.271698 7.635315 -0.815094l0 -0.16790771l-11.236542 -60.192535c-0.38998413 -1.9401855 -0.9343567 -4.5706406 -1.6330872 -7.89135c-0.69873047 -3.320713 -1.4543457 -6.986553 -2.2668152 -10.99752c-0.79623413 -4.010971 -1.6168213 -8.189838 -2.461792 -12.536617c-0.8449707 -4.365429 -1.6412048 -8.469677 -2.3886719 -12.312746c-0.74749756 -3.843069 -1.446228 -7.285042 -2.0961914 -10.325916c-0.6499939 -3.0408745 -1.129364 -5.307539 -1.4380798 -6.7999945z" fill-rule="evenodd"/><path stroke="#000000" stroke-width="3.0" stroke-linejoin="round" stroke-linecap="butt" d="m371.87616 35.73789c4.6961365 0 7.9378967 1.2872391 9.725342 3.8617249c1.8037109 2.574482 2.8518066 5.9231796 3.144287 10.046082c0.40625 4.122902 0.6824951 7.6768074 0.82873535 10.661716c0.14624023 2.9849129 0.21936035 6.482849 0.21936035 10.49382c0 1.2685852 0.024383545 2.7890167 0.07312012 4.56131c0.06500244 1.7722855 0.09750366 3.6098785 0.09750366 5.5127563c0 1.8842239 -0.03250122 3.6845016 -0.09750366 5.400818c-0.048736572 1.7163239 -0.12185669 3.208786 -0.21936035 4.4773636c-0.09750366 0.5596695 -0.19500732 1.3338699 -0.29248047 2.3226318c-0.09750366 0.97008514 -0.19500732 2.005478 -0.292511 3.1061707c-0.097473145 1.0820236 -0.20309448 2.108078 -0.316864 3.078186c-0.097473145 0.97008514 -0.1949768 1.7442932 -0.29248047 2.3226318c-0.6012268 -0.69026184 -1.1293335 -1.5484161 -1.5843201 -2.5744858c-0.43875122 -1.0447235 -0.8856201 -1.9961624 -1.3406067 -2.8543167c-0.4387207 -0.8581619 -0.90997314 -1.5950623 -1.4136963 -2.210701c-0.50372314 -0.634285 -1.0562134 -0.9514389 -1.6574402 -0.9514389c-1.0887451 0 -2.0393372 0.4570694 -2.8518066 1.3711929c-0.79623413 0.91412354 -1.5924683 1.660347 -2.3886719 2.238678c-1.0887146 0.91412354 -2.1855774 1.660347 -3.2905273 2.2386856c-1.0887146 0.5596695 -1.6330872 1.6416931 -1.6330872 3.2460861c0 1.0447235 0.316864 2.1733932 0.95059204 3.3860092c0.6499939 1.1939545 1.3812256 2.359932 2.193695 3.4979324c0.99121094 1.2685928 2.0880737 2.5838165 3.2905273 3.9456787c-0.50375366 0.11193085 -0.95874023 0.16790009 -1.3649597 0.16790009l-1.3405762 0c-2.9899292 0 -5.711731 -0.7369003 -8.165405 -2.2106934c-2.437439 -1.4924622 -4.208618 -3.9643402 -5.3135986 -7.415634c-0.50372314 -1.7163239 -0.8530884 -3.917694 -1.0480957 -6.6041107c-0.1949768 -2.7050705 -0.29248047 -5.4847717 -0.29248047 -8.339088c0 -2.8729706 0.024383545 -5.624687 0.07312012 -8.255135c0.048736572 -2.6304474 0.07312012 -4.7478714 0.07312012 -6.352257c0 -2.4065857 0.024383545 -4.607956 0.07312012 -6.6041107c0.04876709 -2.0148163 0.09750366 -3.9643326 0.14624023 -5.8485565c0.04876709 -1.9028778 0.14627075 -3.852398 0.292511 -5.8485527c0.16247559 -2.0148125 0.34121704 -4.2255096 0.53622437 -6.6320915c0.19500732 -2.8729782 0.46310425 -5.19561 0.8043518 -6.9678955c0.3574829 -1.7722893 1.0074768 -3.1154976 1.9499512 -4.0296288c0.9587097 -0.9327812 2.258667 -1.539093 3.8998718 -1.8189278c1.6574707 -0.27983475 3.9324036 -0.4197502 6.8247986 -0.4197502zm0.43875122 -25.6329c-3.8836365 0 -7.4747925 0.40109825 -10.7734375 1.2032909c-3.298645 0.80219364 -6.2723083 1.9495173 -8.92099 3.4419727c-2.6324158 1.4924555 -4.8504944 3.246087 -6.654175 5.2609015c-1.8037109 1.9961567 -3.0549316 4.197527 -3.753662 6.604109c-0.99121094 4.122902 -1.714325 8.479004 -2.1693115 13.068302c-0.4387207 4.5892944 -0.73934937 9.2065735 -0.90182495 13.851837c-0.14627075 4.626606 -0.21939087 9.206577 -0.21939087 13.739906c0 4.533333 0 8.805481 0 12.816452c0 4.2348404 0 8.35775 0 12.368713c0 4.010971 0.2518921 7.8820343 0.75561523 11.613159c0.50372314 3.7311401 1.3730774 7.22908 2.6080322 10.493813c1.2512207 3.26474 3.1280518 6.2683105 5.6304626 9.010696c1.4949646 1.604393 2.9655457 2.9849167 4.4117737 4.141556c1.4461975 1.1380005 2.9898987 2.1360626 4.6311035 2.9942322c1.6574402 0.85816956 3.4611511 1.5484161 5.4111023 2.0707855c1.9499207 0.5223541 4.1679993 0.8954773 6.654175 1.119339c0.47207642 0.035354614 0.95388794 0.053024292 1.4454346 0.053024292c1.0650024 0 2.1756287 -0.082977295 3.3319092 -0.24890137c1.7062073 -0.22387695 3.3067932 -0.5596771 4.801758 -1.0074158c1.5112 -0.4663849 2.8598938 -1.0353851 4.046112 -1.7069855c1.2024841 -0.69026184 2.1043396 -1.4364777 2.7055664 -2.238678c0.6012268 0.91412354 1.5193176 2.0614471 2.7542725 3.4419708c1.2512207 1.3618469 2.1774597 2.0427856 2.7786865 2.0427856c1.1049805 0 2.2505493 -0.3731079 3.4367676 -1.119339c1.2024841 -0.7462158 2.2018127 -1.3991699 2.9980469 -1.958847c1.10495 -0.93278503 2.0555725 -1.856247 2.8517761 -2.7703705c0.79623413 -0.9141159 1.1943665 -2.173378 1.1943665 -3.777771c0 -0.80218506 -0.30062866 -1.6323624 -0.90185547 -2.490532c-0.58499146 -0.8581543 -1.2268372 -1.7442932 -1.9255676 -2.658432c1.6899414 -4.2534943 2.8355408 -7.7514343 3.4367676 -10.49382c0.40625 -1.604393 0.6581116 -3.0968475 0.75561523 -4.477356c0.6012268 -2.7423859 0.9262085 -5.540741 0.97494507 -8.395058c0.04876709 -2.8729706 0.17062378 -5.745941 0.3656311 -8.618919c0.1949768 -3.43264 0.316864 -6.3802414 0.3656006 -8.842796c0.04876709 -2.4812012 0.07312012 -5.4941025 0.07312012 -9.038673c0 -6.8839455 -0.30059814 -13.758564 -0.90182495 -20.623848c-0.58499146 -6.8839455 -1.7305908 -13.422764 -3.436798 -19.616446c-1.6899414 -4.5706425 -3.4367676 -8.143202 -5.240448 -10.717686c-1.7874756 -2.5931377 -3.7861633 -4.5146713 -5.9960938 -5.7646046c-2.193695 -1.2685871 -4.6392517 -2.0427961 -7.33667 -2.322631c-2.6974182 -0.29849052 -5.792938 -0.44773674 -9.286591 -0.44773674z" fill-rule="evenodd"/><path stroke="#000000" stroke-width="3.0" stroke-linejoin="round" stroke-linecap="butt" d="m425.3358 15.61774c-1.9012146 0 -3.7780151 0.05596733 -5.6304626 0.16790104c-1.8362122 0.11193371 -3.50177 0.16790104 -4.9967346 0.16790104l-0.14624023 0l0.14624023 0.16790104c0.19500732 15.129755 0.13812256 30.38077 -0.17062378 45.753044c-0.29248047 15.353622 -0.4387207 30.595314 -0.4387207 45.725067c0.21124268 5.260895 1.535553 9.756912 3.972992 13.488052c2.4536743 3.7311401 5.500458 6.7160416 9.14035 8.95472c3.6398926 2.2200317 7.702301 3.7591248 12.187164 4.617279c2.9382324 0.57237244 5.810669 0.858551 8.61734 0.858551c1.4929199 0 2.9672241 -0.080963135 4.4229126 -0.24290466c7.198517 -0.8022003 12.893982 -3.8337402 17.086365 -9.09465c4.192383 -5.2795486 6.686676 -11.706429 7.48291 -19.28064c1.3974609 -14.775291 2.193695 -29.643867 2.3886719 -44.60572c0.19500732 -14.961857 0 -29.77446 -0.58499146 -44.43782c-1.2024536 -0.8021927 -2.7542725 -1.3152256 -4.655487 -1.539093c-1.3008118 -0.16593742 -2.6472778 -0.24890709 -4.0393677 -0.24890709c-0.6425171 0 -1.2947388 0.017673492 -1.9566956 0.053022385c-2.0961914 0.11193466 -4.1679993 0.3171482 -6.215454 0.6156368c-2.0474243 0.27983475 -3.7130127 0.47571945 -4.9967346 0.5876541c-0.30871582 13.301495 -0.48745728 27.060059 -0.53622437 41.275684c-0.048736572 14.215622 -0.3249817 28.198051 -0.82873535 41.94729c-0.50372314 2.6304474 -1.6005554 4.6918945 -3.2905273 6.1843567c-1.6899414 1.4924622 -3.5342712 2.2946472 -5.532959 2.4065857c-0.16427612 0.00919342 -0.32806396 0.013793945 -0.491333 0.013793945c-1.8233948 0 -3.5851746 -0.57359314 -5.28537 -1.7207947c-1.8361816 -1.2685852 -3.1036682 -3.2740707 -3.8023987 -6.0164566c-1.9986877 -28.543182 -2.4536743 -56.685272 -1.3649597 -84.42626l0 -0.16790009c-1.4949341 -0.46639252 -3.144287 -0.7835388 -4.9479675 -0.9514408c-1.7874451 -0.16790104 -3.631775 -0.25185108 -5.532959 -0.25185108z" fill-rule="evenodd"/><path stroke="#000000" stroke-width="3.0" stroke-linejoin="round" stroke-linecap="butt" d="m521.1653 36.077488c1.270874 0 2.5232544 0.2878952 3.757019 0.8636894c2.2911377 1.2499313 4.111084 3.1994553 5.459839 5.8485565c1.3486938 2.6304474 2.128662 5.5500603 2.3399048 8.758839c0.097473145 1.9401894 0.21936035 4.029625 0.3656006 6.2683067c0.14624023 2.2386818 0.21936035 3.41399 0.21936035 3.5259247l0.31689453 11.697105l0 8.255142c0 0.2238617 -0.03253174 1.1939545 -0.097473145 2.910286c-0.04876709 1.7163239 -0.12188721 3.7218018 -0.21942139 6.016449c-0.19494629 2.4065857 -0.2680664 4.3281174 -0.21936035 5.7646103c0.04876709 1.4364853 0.024414062 2.6770935 -0.07312012 3.7218018c-0.097473145 1.026062 -0.34936523 1.9681702 -0.75561523 2.8263397c-0.3899536 0.8581543 -1.039917 1.9681625 -1.9498901 3.3300323c-1.4949951 1.958847 -3.3392944 3.3673553 -5.53302 4.2255173c-1.8347168 0.71772766 -3.6694336 1.0765991 -5.5041504 1.0765991c-0.35894775 0 -0.7178955 -0.01373291 -1.0769043 -0.04121399c-2.1936646 -0.16790009 -4.241089 -0.8861389 -6.142273 -2.1547318c-1.9012146 -1.2685852 -3.3474426 -3.0408783 -4.3386536 -5.316864c-1.0074768 -3.7871094 -1.6087036 -7.770096 -1.8036804 -11.948959c-0.19500732 -4.1975327 -0.54437256 -8.301773 -1.0480957 -12.312752c-0.19500732 -4.8131638 -0.21939087 -9.6263275 -0.07312012 -14.439491c0.14624023 -4.8131638 0.61746216 -9.393135 1.4136963 -13.739906c1.2024841 -4.8131638 3.550537 -8.768166 7.0441895 -11.865009c1.5924683 -1.380516 3.4367676 -2.3599396 5.532959 -2.9382668c0.8022461 -0.22133636 1.5973511 -0.33200455 2.385315 -0.33200455zm-1.1104736 -23.635395c-3.0441284 0 -6.093384 0.34030437 -9.147736 1.0209169c-3.8349 0.85816 -7.4016724 2.2013683 -10.700317 4.029627c-1.2837219 0.93278503 -2.4293213 1.968174 -3.436798 3.1061687c-3.0874023 4.010973 -5.15921 8.628256 -6.2154236 13.851841c-1.039978 5.204933 -1.6168213 10.391209 -1.7305908 15.558834c-0.4874878 9.048 -0.5606079 18.07735 -0.21936035 27.08804c0.3574829 8.992043 0.6824646 17.9561 0.9749756 26.892159c0.09750366 3.3207092 0.37374878 6.613426 0.82873535 9.878181c0.45495605 3.26474 1.3811951 6.3335953 2.778656 9.2065735c0.8937073 2.2946548 2.0393066 4.1602173 3.4367676 5.59671c1.3974609 1.4178162 2.9655457 2.5931244 4.704254 3.5259247c1.7549438 0.91412354 3.6073914 1.5670776 5.5573425 1.958847c1.9499207 0.41041565 3.972992 0.7275696 6.069214 0.9514313c1.446167 0.11193848 2.8862915 0.16790771 4.3203125 0.16790771c1.434021 0 2.8619385 -0.05596924 4.2838135 -0.16790771c2.843628 -0.2238617 5.662903 -0.80218506 8.457825 -1.7349701c3.1036987 -0.91412354 6.020447 -2.2013702 8.750366 -3.8617249c2.7462158 -1.6603699 4.972412 -3.8617325 6.678589 -6.6041183c1.7874756 -3.3393707 3.1280518 -7.0425262 4.0217285 -11.109451c0.90997314 -4.0669403 1.4624634 -8.105904 1.6574707 -12.116867l0.46313477 -5.680649c0.3899536 -5.9511566 0.53619385 -11.79039 0.4387207 -17.517685c-0.097473145 -5.727295 0.008117676 -11.631813 0.31689453 -17.713562c0.097473145 -2.8729744 0.12182617 -5.708637 0.07312012 -8.506989c-0.04876709 -2.817009 -0.17877197 -5.652668 -0.39001465 -8.506989c-0.19500732 -1.8469124 -0.47125244 -3.6565132 -0.82873535 -5.4288025c-0.34124756 -1.7722855 -0.86120605 -3.51659 -1.5599365 -5.232916c-1.2024536 -4.0109673 -3.249939 -7.5089073 -6.142334 -10.493818c-2.892395 -2.5185165 -6.166687 -4.440048 -9.822815 -5.7646036c-3.6398926 -1.3245535 -7.385437 -2.0987635 -11.236572 -2.3226318c-0.793396 -0.046316147 -1.5872192 -0.06947708 -2.3812866 -0.06947708z" fill-rule="evenodd"/><path stroke="#000000" stroke-width="3.0" stroke-linejoin="round" stroke-linecap="butt" d="m590.89996 11.556584c-0.4569702 0 -0.9144287 0.0011816025 -1.3723755 0.003545761c-10.822205 0.05596733 -21.327515 0.14924622 -31.515991 0.27983475c0 0.11193466 0.024414062 0.16790104 0.07312012 0.16790104c0.06500244 0 0.09753418 0.05596733 0.09753418 0.16790104c-0.21124268 2.742385 -0.31689453 5.6060324 -0.31689453 8.5909395c0 2.9849072 0.024414062 5.7646046 0.07312012 8.339087c0.04876709 2.5744839 0.14624023 4.785183 0.29248047 6.6320953c0.16253662 1.8282509 0.34124756 2.9755745 0.5362549 3.4419708c0.6012573 0.22386932 1.649353 0.33580017 3.144287 0.33580017c1.4949341 0 3.144287 0.02798462 4.947998 0.08395386c1.8037109 0.055965424 3.5992432 0.16790009 5.3867188 0.33580017c1.8037109 0.16790009 3.298645 0.59698105 4.4848633 1.2872429l0.17059326 0.16790009c0.585022 16.062538 0.95062256 29.765137 1.0968628 41.10778c0.16247559 11.342659 0.21936035 20.65184 0.17059326 27.927551c-0.048706055 7.275711 -0.12994385 12.751152 -0.24371338 16.426323c-0.097473145 3.6751785 -0.08935547 5.7366257 0.024353027 6.184349c1.7874756 -0.33580017 3.729309 -0.5036926 5.8255005 -0.5036926l6.3616333 0c2.1449585 0 4.289917 -0.02798462 6.4348145 -0.08395386c2.1611938 -0.05596924 4.135559 -0.2611847 5.9229736 -0.6156311l0 -0.16790771l0 -0.16790771c-0.19500732 -12.49929 -0.34124756 -23.356895 -0.4387207 -32.572807c-0.09753418 -9.234558 -0.203125 -17.14457 -0.31689453 -23.730019c-0.097473145 -6.6041107 -0.17059326 -11.995602 -0.21936035 -16.174469c-0.04876709 -4.178871 -0.07312012 -7.5555496 -0.07312012 -10.130035c0 -2.5931396 0.024353027 -4.4866943 0.07312012 -5.6806526c0.04876709 -1.212616 0.12188721 -2.0987625 0.21936035 -2.658432c0 -0.11193466 0.024414062 -0.1958847 0.07312012 -0.25185394c0.06500244 -0.07462311 0.09753418 -0.16790009 0.09753418 -0.27983475l0.4387207 0c4.696106 -0.22386551 8.44165 -0.3917694 11.236572 -0.5037041c0.55895996 -0.022384644 1.1000977 -0.033576965 1.623291 -0.033576965c2.0929565 0 3.8999023 0.1790924 5.4208374 0.53728104c0.4874878 -4.122902 0.75561523 -8.646906 0.8043823 -13.572004c0.04876709 -4.9250984 -0.024414062 -9.281197 -0.21936035 -13.0683c-9.851379 -1.2149839 -19.956055 -1.8224745 -30.314209 -1.8224745z" fill-rule="evenodd"/><path stroke="#000000" stroke-width="3.0" stroke-linejoin="round" stroke-linecap="butt" d="m680.8042 12.847372c-3.2824097 0 -7.0685425 0.06529522 -11.358398 0.19588375c-4.289917 0.11193466 -8.734131 0.22386837 -13.332764 0.33580303c-4.598633 0.11193371 -9.172852 0.25185108 -13.722717 0.41975212c-4.5336304 0.16790104 -8.742249 0.3731146 -12.6258545 0.6156378c-0.5037842 9.850198 -0.8043823 19.653755 -0.90185547 29.410675c-0.09753418 9.738262 -0.09753418 19.476524 0 29.214787c0.097473145 9.738266 0.24371338 19.513847 0.4387207 29.326729c0.19500732 9.794228 0.29248047 19.67241 0.29248047 29.634537c6.779297 0.6398926 13.765625 0.9598236 20.958984 0.9598236c3.0828247 0 6.2037354 -0.058761597 9.36261 -0.17628479c8.000366 -0.3113556 15.897888 -0.46702576 23.692505 -0.46702576c2.4801636 0 4.949829 0.01574707 7.4091187 0.04727173c0.79626465 -3.4513092 1.243103 -7.154457 1.3405762 -11.109451c0.09753418 -3.9550095 0.04876709 -7.760765 -0.14624023 -11.417274l0 -0.3637848c-2.597046 0.09273529 -5.1655884 0.13909912 -7.7056274 0.13909912c-4.1031494 0 -8.131897 -0.12099457 -12.086304 -0.36296844c-6.3860474 -0.41042328 -12.869629 -0.61563873 -19.450684 -0.61563873l-0.14624023 -0.16790009c-0.19500732 -2.761032 -0.37371826 -6.2030106 -0.5362549 -10.32592c-0.14624023 -4.1229095 0.03253174 -7.8447113 0.5362549 -11.165421c0.50372314 -0.4663849 1.4543457 -0.7555542 2.8518066 -0.86748505c1.3974609 -0.11193848 2.9655151 -0.16790009 4.7042236 -0.16790009c1.7549438 0 3.5748901 -0.02798462 5.459839 -0.08395386c1.9011841 -0.05596924 3.5993042 -0.31715393 5.0942383 -0.7835388c-0.097473145 -4.234833 -0.04876709 -8.301773 0.14624023 -12.200813c0.21124268 -3.8990326 0.06500244 -7.798065 -0.4387207 -11.697109l0 -0.16790009c-3.1036377 -0.11193466 -6.1992188 -0.16790009 -9.286621 -0.16790009c-3.0874023 0 -6.1342163 -0.1212616 -9.140381 -0.3637848l-0.14624023 -0.1679039c-0.69873047 -3.0968437 -0.8774414 -6.389572 -0.53619385 -9.878178c0.3574829 -3.488617 0.4874878 -6.902603 0.3899536 -10.241966l0.14624023 -0.1679039l0.46313477 0c3.2824097 -0.33580017 6.572937 -0.5037041 9.871582 -0.5037041c3.298645 0 6.5891724 0.02798462 9.871582 0.08395386c0.824646 0.013988495 1.6477661 0.02098465 2.4694214 0.02098465c2.4648438 0 4.9160156 -0.06296158 7.3534546 -0.18888855c3.249878 -0.16790009 6.467285 -0.6529465 9.652161 -1.455143l0 -0.1958847c0 -4.0109673 0.12188721 -8.077902 0.36566162 -12.200811c0.26000977 -4.1229057 0.13812256 -8.189844 -0.36566162 -12.200811c0 -0.11193466 -0.9993286 -0.22386837 -2.9979858 -0.33580303c-1.9987183 -0.13058853 -4.6474 -0.19588375 -7.946045 -0.19588375z" fill-rule="evenodd"/></g></svg>