<svg version="1.1" viewBox="0.0 0.0 556.4724409448819 486.7007874015748" fill="none" stroke="none" stroke-linecap="square" stroke-miterlimit="10" xmlns:xlink="http://www.w3.org/1999/xlink" xmlns="http://www.w3.org/2000/svg"><clipPath id="p.0"><path d="m0 0l556.4724 0l0 486.70078l-556.4724 0l0 -486.70078z" clip-rule="nonzero"/></clipPath><g clip-path="url(#p.0)"><path fill="#000000" fill-opacity="0.0" d="m0 0l556.4724 0l0 486.70078l-556.4724 0z" fill-rule="evenodd"/><path fill="#ffee32" d="m432.35385 454.4618l-1.64328 0l0 0c-1.6723633 0 -3.2762146 -0.66433716 -4.4587708 -1.8468933c-1.1825256 -1.1825256 -1.8468628 -2.7864075 -1.8468628 -4.4587708l0 -98.30408c0 -6.1035156E-5 6.1035156E-5 -1.2207031E-4 1.2207031E-4 -1.2207031E-4l14.254425 1.2207031E-4l0 0c6.1035156E-5 0 1.2207031E-4 6.1035156E-5 1.2207031E-4 1.2207031E-4l-1.2207031E-4 98.303955l0 0c0 3.4825134 -2.82312 6.305664 -6.3056335 6.305664z" fill-rule="evenodd"/><path fill="#c8a508" d="m444.21414 455.8769l-4.59433 0l0 0c-2.291626 0 -4.4894104 -0.9103699 -6.109833 -2.5307922c-1.6204529 -1.6204529 -2.5307922 -3.8182373 -2.5307922 -6.1098633l0 -97.25632c0 -9.1552734E-5 6.1035156E-5 -1.8310547E-4 1.8310547E-4 -1.8310547E-4l21.875427 1.8310547E-4l0 0c9.1552734E-5 0 1.8310547E-4 9.1552734E-5 1.8310547E-4 1.8310547E-4l-1.8310547E-4 97.256134l0 0c0 4.7720947 -3.8685608 8.6406555 -8.6406555 8.6406555z" fill-rule="evenodd"/><path fill="#000000" fill-opacity="0.0" d="m440.81015 457.40375l-5.922119 0l0 0c-2.953949 0 -5.7868958 -1.1734619 -7.8756714 -3.262207c-2.088745 -2.088745 -3.262207 -4.9217224 -3.262207 -7.8756714l0 -96.8186c0 -1.2207031E-4 1.2207031E-4 -2.4414062E-4 2.4414062E-4 -2.4414062E-4l28.197601 2.4414062E-4l0 0c1.5258789E-4 0 2.4414062E-4 9.1552734E-5 2.4414062E-4 2.4414062E-4l-2.4414062E-4 96.81836l0 0c0 6.1512756 -4.9865723 11.137878 -11.137848 11.137878z" fill-rule="evenodd"/><path stroke="#000000" stroke-width="8.0" stroke-linejoin="round" stroke-linecap="butt" d="m440.81015 457.40375l-5.922119 0l0 0c-2.953949 0 -5.7868958 -1.1734619 -7.8756714 -3.262207c-2.088745 -2.088745 -3.262207 -4.9217224 -3.262207 -7.8756714l0 -96.8186c0 -1.2207031E-4 1.2207031E-4 -2.4414062E-4 2.4414062E-4 -2.4414062E-4l28.197601 2.4414062E-4l0 0c1.5258789E-4 0 2.4414062E-4 9.1552734E-5 2.4414062E-4 2.4414062E-4l-2.4414062E-4 96.81836l0 0c0 6.1512756 -4.9865723 11.137878 -11.137848 11.137878z" fill-rule="evenodd"/><path fill="#ffd100" d="m438.56656 456.35706l-3.6148071 0l0 0c-1.8030701 0 -3.5322876 -0.7162781 -4.807251 -1.9912415c-1.2749634 -1.2749634 -1.9912109 -3.004181 -1.9912109 -4.807251l0 -99.064606c0 -6.1035156E-5 6.1035156E-5 -1.2207031E-4 1.5258789E-4 -1.2207031E-4l17.211578 1.2207031E-4l0 0c9.1552734E-5 0 1.5258789E-4 6.1035156E-5 1.5258789E-4 1.5258789E-4l-1.5258789E-4 99.06445l0 0c0 3.7546997 -3.0437622 6.7984924 -6.798462 6.7984924z" fill-rule="evenodd"/><path fill="#c8a508" d="m465.123 410.7295l-6.3910217 0l0 0c-3.1878357 0 -6.2450867 -1.2663574 -8.499237 -3.5205078c-2.2541199 -2.2541199 -3.5205078 -5.3114014 -3.5205078 -8.499237l0 -49.265137c0 -1.2207031E-4 1.2207031E-4 -2.4414062E-4 2.746582E-4 -2.4414062E-4l30.430237 2.4414062E-4l0 0c1.2207031E-4 0 2.4414062E-4 1.2207031E-4 2.4414062E-4 2.746582E-4l-2.4414062E-4 49.264862l0 0c0 6.638336 -5.381439 12.019745 -12.019745 12.019745z" fill-rule="evenodd"/><path stroke="#000000" stroke-width="8.0" stroke-linejoin="round" stroke-linecap="butt" d="m465.123 410.7295l-6.3910217 0l0 0c-3.1878357 0 -6.2450867 -1.2663574 -8.499237 -3.5205078c-2.2541199 -2.2541199 -3.5205078 -5.3114014 -3.5205078 -8.499237l0 -49.265137c0 -1.2207031E-4 1.2207031E-4 -2.4414062E-4 2.746582E-4 -2.4414062E-4l30.430237 2.4414062E-4l0 0c1.2207031E-4 0 2.4414062E-4 1.2207031E-4 2.4414062E-4 2.746582E-4l-2.4414062E-4 49.264862l0 0c0 6.638336 -5.381439 12.019745 -12.019745 12.019745z" fill-rule="evenodd"/><path fill="#ffd100" d="m452.88425 400.38983l-5.8556213 0l0 0c-2.9207764 0 -5.721924 -1.1602783 -7.7872314 -3.225586c-2.065277 -2.065277 -3.2255554 -4.8664246 -3.2255554 -7.787201l0 -38.99881c0 -1.2207031E-4 9.1552734E-5 -2.4414062E-4 2.1362305E-4 -2.4414062E-4l27.880981 2.4414062E-4l0 0c1.2207031E-4 0 2.4414062E-4 9.1552734E-5 2.4414062E-4 2.4414062E-4l-2.4414062E-4 38.998566l0 0c0 6.082184 -4.930603 11.012787 -11.012787 11.012787z" fill-rule="evenodd"/><path fill="#ffd100" d="m459.2218 408.78494l-3.6858215 0l0 0c-1.8384705 0 -3.601654 -0.7303467 -4.9016724 -2.0303345c-1.3000183 -1.3000183 -2.0303345 -3.063202 -2.0303345 -4.9016724l0 -51.34485c0 -9.1552734E-5 6.1035156E-5 -1.5258789E-4 1.5258789E-4 -1.5258789E-4l17.549713 1.5258789E-4l0 0c6.1035156E-5 0 1.2207031E-4 6.1035156E-5 1.2207031E-4 1.5258789E-4l-1.2207031E-4 51.344696l0 0c0 3.8284302 -3.1035767 6.932007 -6.9320374 6.932007z" fill-rule="evenodd"/><path fill="#ffee32" d="m531.4245 339.7854l1.2807007 0l0 0c1.3033447 0 2.5532837 -0.51776123 3.4748535 -1.4393616c0.92163086 -0.92160034 1.4393921 -2.1715698 1.4393921 -3.4749146l0 -57.919678c0 -3.0517578E-5 -6.1035156E-5 -9.1552734E-5 -1.2207031E-4 -9.1552734E-5l-11.10907 9.1552734E-5l0 0c-6.1035156E-5 0 -1.2207031E-4 6.1035156E-5 -1.2207031E-4 1.2207031E-4l1.2207031E-4 57.919556l0 0c0 2.7140808 2.2001953 4.914276 4.9142456 4.914276z" fill-rule="evenodd"/><path fill="#c8a508" d="m522.1813 340.63538l3.5805664 0l0 0c1.7859497 0 3.4987793 -0.7095032 4.7616577 -1.9723511c1.2628784 -1.2628784 1.9723511 -2.975708 1.9723511 -4.761688l0 -56.873077c0 -6.1035156E-5 -6.1035156E-5 -1.2207031E-4 -1.2207031E-4 -1.2207031E-4l-17.048462 1.2207031E-4l0 0c-1.2207031E-4 0 -1.8310547E-4 6.1035156E-5 -1.8310547E-4 1.5258789E-4l1.8310547E-4 56.872925l0 0c0 3.7191162 3.0148926 6.7340393 6.734009 6.7340393z" fill-rule="evenodd"/><path fill="#000000" fill-opacity="0.0" d="m524.83417 341.5525l4.6153564 0l0 0c2.302124 0 4.5099487 -0.91452026 6.1378174 -2.542389c1.6278687 -1.6278687 2.5423584 -3.8356934 2.5423584 -6.137848l0 -56.16394c0 -9.1552734E-5 -6.1035156E-5 -1.8310547E-4 -1.8310547E-4 -1.8310547E-4l-21.975586 1.8310547E-4l0 0c-1.2207031E-4 0 -1.8310547E-4 9.1552734E-5 -1.8310547E-4 1.8310547E-4l1.8310547E-4 56.163757l0 0c0 4.7939453 3.8862915 8.680237 8.680237 8.680237z" fill-rule="evenodd"/><path stroke="#000000" stroke-width="8.0" stroke-linejoin="round" stroke-linecap="butt" d="m524.83417 341.5525l4.6153564 0l0 0c2.302124 0 4.5099487 -0.91452026 6.1378174 -2.542389c1.6278687 -1.6278687 2.5423584 -3.8356934 2.5423584 -6.137848l0 -56.16394c0 -9.1552734E-5 -6.1035156E-5 -1.8310547E-4 -1.8310547E-4 -1.8310547E-4l-21.975586 1.8310547E-4l0 0c-1.2207031E-4 0 -1.8310547E-4 9.1552734E-5 -1.8310547E-4 1.8310547E-4l1.8310547E-4 56.163757l0 0c0 4.7939453 3.8862915 8.680237 8.680237 8.680237z" fill-rule="evenodd"/><path fill="#ffd100" d="m526.5827 340.92377l2.8171387 0l0 0c1.4052124 0 2.7528687 -0.558197 3.746521 -1.5518494c0.9935913 -0.9936218 1.5518188 -2.341278 1.5518188 -3.7464905l0 -58.28839c0 -6.1035156E-5 -6.1035156E-5 -1.2207031E-4 -1.2207031E-4 -1.2207031E-4l-13.413696 1.2207031E-4l0 0c-6.1035156E-5 0 -1.2207031E-4 3.0517578E-5 -1.2207031E-4 9.1552734E-5l1.2207031E-4 58.2883l0 0c0 2.9262085 2.3721313 5.29834 5.29834 5.29834z" fill-rule="evenodd"/><path fill="#c8a508" d="m505.8861 313.51755l4.9808044 0l0 0c2.4844055 0 4.867096 -0.9869385 6.62381 -2.7436829c1.7567749 -1.7567444 2.7436523 -4.1394043 2.7436523 -6.62381l0 -27.443329c0 -9.1552734E-5 -6.1035156E-5 -1.8310547E-4 -1.8310547E-4 -1.8310547E-4l-23.715576 1.8310547E-4l0 0c-9.1552734E-5 0 -1.8310547E-4 9.1552734E-5 -1.8310547E-4 2.1362305E-4l1.8310547E-4 27.443115l0 0c0 5.173523 4.1939697 9.367493 9.367493 9.367493z" fill-rule="evenodd"/><path stroke="#000000" stroke-width="8.0" stroke-linejoin="round" stroke-linecap="butt" d="m505.8861 313.51755l4.9808044 0l0 0c2.4844055 0 4.867096 -0.9869385 6.62381 -2.7436829c1.7567749 -1.7567444 2.7436523 -4.1394043 2.7436523 -6.62381l0 -27.443329c0 -9.1552734E-5 -6.1035156E-5 -1.8310547E-4 -1.8310547E-4 -1.8310547E-4l-23.715576 1.8310547E-4l0 0c-9.1552734E-5 0 -1.8310547E-4 9.1552734E-5 -1.8310547E-4 2.1362305E-4l1.8310547E-4 27.443115l0 0c0 5.173523 4.1939697 9.367493 9.367493 9.367493z" fill-rule="evenodd"/><path fill="#ffd100" d="m515.4243 307.307l4.5634766 0l0 0c2.2763062 0 4.4593506 -0.90423584 6.0689697 -2.5138245c1.6095581 -1.6095581 2.513794 -3.792633 2.513794 -6.0689087l0 -21.456757c0 -1.2207031E-4 -6.1035156E-5 -1.8310547E-4 -1.8310547E-4 -1.8310547E-4l-21.72882 1.8310547E-4l0 0c-9.1552734E-5 0 -1.8310547E-4 6.1035156E-5 -1.8310547E-4 1.8310547E-4l1.8310547E-4 21.456573l0 0c0 4.7401123 3.8426208 8.582733 8.582764 8.582733z" fill-rule="evenodd"/><path fill="#ffd100" d="m510.48517 312.34955l2.8724976 0l0 0c1.4328003 0 2.8069458 -0.56918335 3.8200684 -1.5823364c1.0131836 -1.0131531 1.5823364 -2.387268 1.5823364 -3.8200684l0 -29.601654c0 -6.1035156E-5 0 -9.1552734E-5 -1.2207031E-4 -9.1552734E-5l-13.677216 9.1552734E-5l0 0c-6.1035156E-5 0 -1.2207031E-4 6.1035156E-5 -1.2207031E-4 1.2207031E-4l1.2207031E-4 29.601532l0 0c0 2.983673 2.4187622 5.402405 5.4024353 5.402405z" fill-rule="evenodd"/><path fill="#ffee32" d="m182.03363 473.55365l-1.6432648 0l0 0c-1.6723633 0 -3.2762299 -0.66433716 -4.4587555 -1.8468628c-1.1825409 -1.1825562 -1.8468933 -2.7864075 -1.8468933 -4.4587708l0 -98.30411c0 -6.1035156E-5 6.1035156E-5 -1.2207031E-4 1.2207031E-4 -1.2207031E-4l14.25444 1.2207031E-4l0 0c7.6293945E-5 0 1.2207031E-4 6.1035156E-5 1.2207031E-4 1.2207031E-4l-1.2207031E-4 98.303986l0 0c0 3.4825134 -2.8231354 6.3056335 -6.305649 6.3056335z" fill-rule="evenodd"/><path fill="#c8a508" d="m193.89394 474.96875l-4.5943146 0l0 0c-2.2916412 0 -4.4894257 -0.9103699 -6.1098633 -2.5307922c-1.6204376 -1.6204224 -2.5307922 -3.8182068 -2.5307922 -6.1098633l0 -97.25629c0 -1.2207031E-4 9.1552734E-5 -1.8310547E-4 1.8310547E-4 -1.8310547E-4l21.875427 1.8310547E-4l0 0c9.1552734E-5 0 1.8310547E-4 6.1035156E-5 1.8310547E-4 1.8310547E-4l-1.8310547E-4 97.2561l0 0c0 4.7720947 -3.8685455 8.6406555 -8.64064 8.6406555z" fill-rule="evenodd"/><path fill="#000000" fill-opacity="0.0" d="m190.48993 476.4956l-5.922104 0l0 0c-2.953949 0 -5.786911 -1.1734314 -7.8756714 -3.262207c-2.088745 -2.088745 -3.2621918 -4.921692 -3.2621918 -7.875641l0 -96.818634c0 -1.2207031E-4 9.1552734E-5 -2.4414062E-4 2.2888184E-4 -2.4414062E-4l28.197617 2.4414062E-4l0 0c1.2207031E-4 0 2.2888184E-4 9.1552734E-5 2.2888184E-4 2.4414062E-4l-2.2888184E-4 96.81839l0 0c0 6.1512756 -4.986603 11.137848 -11.137878 11.137848z" fill-rule="evenodd"/><path stroke="#000000" stroke-width="8.0" stroke-linejoin="round" stroke-linecap="butt" d="m190.48993 476.4956l-5.922104 0l0 0c-2.953949 0 -5.786911 -1.1734314 -7.8756714 -3.262207c-2.088745 -2.088745 -3.2621918 -4.921692 -3.2621918 -7.875641l0 -96.818634c0 -1.2207031E-4 9.1552734E-5 -2.4414062E-4 2.2888184E-4 -2.4414062E-4l28.197617 2.4414062E-4l0 0c1.2207031E-4 0 2.2888184E-4 9.1552734E-5 2.2888184E-4 2.4414062E-4l-2.2888184E-4 96.81839l0 0c0 6.1512756 -4.986603 11.137848 -11.137878 11.137848z" fill-rule="evenodd"/><path fill="#ffd100" d="m188.24635 475.4489l-3.6148071 0l0 0c-1.8030701 0 -3.5322876 -0.7162781 -4.807251 -1.9912415c-1.2749634 -1.2749634 -1.9912262 -3.004181 -1.9912262 -4.8072205l0 -99.064606c0 -9.1552734E-5 7.6293945E-5 -1.5258789E-4 1.5258789E-4 -1.5258789E-4l17.211594 1.5258789E-4l0 0c7.6293945E-5 0 1.373291E-4 6.1035156E-5 1.373291E-4 1.2207031E-4l-1.373291E-4 99.06448l0 0c0 3.7546692 -3.0437775 6.798462 -6.798462 6.798462z" fill-rule="evenodd"/><path fill="#c8a508" d="m214.80276 429.82135l-6.3910065 0l0 0c-3.1878357 0 -6.245102 -1.2663574 -8.499237 -3.5205078c-2.2541351 -2.2541199 -3.5204926 -5.3114014 -3.5204926 -8.499237l0 -49.265137c0 -1.2207031E-4 1.0681152E-4 -2.4414062E-4 2.4414062E-4 -2.4414062E-4l30.430237 2.4414062E-4l0 0c1.373291E-4 0 2.593994E-4 1.2207031E-4 2.593994E-4 2.746582E-4l-2.593994E-4 49.264862l0 0c0 6.638336 -5.381424 12.019745 -12.019745 12.019745z" fill-rule="evenodd"/><path stroke="#000000" stroke-width="8.0" stroke-linejoin="round" stroke-linecap="butt" d="m214.80276 429.82135l-6.3910065 0l0 0c-3.1878357 0 -6.245102 -1.2663574 -8.499237 -3.5205078c-2.2541351 -2.2541199 -3.5204926 -5.3114014 -3.5204926 -8.499237l0 -49.265137c0 -1.2207031E-4 1.0681152E-4 -2.4414062E-4 2.4414062E-4 -2.4414062E-4l30.430237 2.4414062E-4l0 0c1.373291E-4 0 2.593994E-4 1.2207031E-4 2.593994E-4 2.746582E-4l-2.593994E-4 49.264862l0 0c0 6.638336 -5.381424 12.019745 -12.019745 12.019745z" fill-rule="evenodd"/><path fill="#ffd100" d="m202.56403 419.4817l-5.855606 0l0 0c-2.9207764 0 -5.721924 -1.1602783 -7.787216 -3.2255554c-2.0653076 -2.0653076 -3.225586 -4.866455 -3.225586 -7.7872314l0 -38.99881c0 -1.2207031E-4 1.0681152E-4 -2.4414062E-4 2.4414062E-4 -2.4414062E-4l27.880966 2.4414062E-4l0 0c1.2207031E-4 0 2.2888184E-4 9.1552734E-5 2.2888184E-4 2.4414062E-4l-2.2888184E-4 38.998566l0 0c0 6.082184 -4.930603 11.012787 -11.012802 11.012787z" fill-rule="evenodd"/><path fill="#ffd100" d="m208.9016 427.8768l-3.6858215 0l0 0c-1.8384857 0 -3.6016693 -0.7303467 -4.9016724 -2.0303345c-1.300003 -1.3000183 -2.0303497 -3.063202 -2.0303497 -4.9016724l0 -51.34485c0 -9.1552734E-5 7.6293945E-5 -1.5258789E-4 1.5258789E-4 -1.5258789E-4l17.549713 1.5258789E-4l0 0c7.6293945E-5 0 1.373291E-4 6.1035156E-5 1.373291E-4 1.5258789E-4l-1.373291E-4 51.344696l0 0c0 3.8284302 -3.1035767 6.932007 -6.932022 6.932007z" fill-rule="evenodd"/><path fill="#c8a508" d="m251.62698 119.20481l31.560425 15.78022l0 37.561386l-31.560425 15.780228l-31.56044 -15.780228l0 -37.561386z" fill-rule="evenodd"/><path fill="#ffee32" d="m245.0216 120.830505l24.930115 12.465073l0 41.178787l-24.930115 12.465073l-24.93013 -12.465073l0 -41.178787z" fill-rule="evenodd"/><path fill="#ffd100" d="m249.33311 122.90536l20.954422 10.477226l0 41.004776l-20.954422 10.477234l-20.954437 -10.477234l0 -41.004776z" fill-rule="evenodd"/><path fill="#000000" fill-opacity="0.0" d="m251.62698 119.32406l31.560425 15.78022l0 37.561386l-31.560425 15.780212l-31.56044 -15.780212l0 -37.561386z" fill-rule="evenodd"/><path stroke="#000000" stroke-width="8.0" stroke-linejoin="round" stroke-linecap="butt" d="m251.62698 119.32406l31.560425 15.78022l0 37.561386l-31.560425 15.780212l-31.56044 -15.780212l0 -37.561386z" fill-rule="evenodd"/><path fill="#c8a508" d="m285.6296 172.70613l31.560425 15.780212l0 37.561386l-31.560425 15.780228l-31.56044 -15.780228l0 -37.561386z" fill-rule="evenodd"/><path fill="#ffee32" d="m279.02423 174.33182l24.930115 12.465073l0 41.178787l-24.930115 12.465073l-24.93013 -12.465073l0 -41.178787z" fill-rule="evenodd"/><path fill="#ffd100" d="m283.33572 176.40666l20.954437 10.477234l0 41.004776l-20.954437 10.477234l-20.954437 -10.477234l0 -41.004776z" fill-rule="evenodd"/><path fill="#000000" fill-opacity="0.0" d="m285.6296 172.82536l31.560425 15.780228l0 37.561386l-31.560425 15.780212l-31.56044 -15.780212l0 -37.561386z" fill-rule="evenodd"/><path stroke="#000000" stroke-width="8.0" stroke-linejoin="round" stroke-linecap="butt" d="m285.6296 172.82536l31.560425 15.780228l0 37.561386l-31.560425 15.780212l-31.56044 -15.780212l0 -37.561386z" fill-rule="evenodd"/><path fill="#c8a508" d="m316.12567 119.20481l31.560425 15.78022l0 37.561386l-31.560425 15.780228l-31.560425 -15.780228l0 -37.561386z" fill-rule="evenodd"/><path fill="#ffee32" d="m309.5203 120.830505l24.930115 12.465073l0 41.178787l-24.930115 12.465073l-24.930115 -12.465073l0 -41.178787z" fill-rule="evenodd"/><path fill="#ffd100" d="m313.8318 122.90536l20.954437 10.477226l0 41.004776l-20.954437 10.477234l-20.954437 -10.477234l0 -41.004776z" fill-rule="evenodd"/><path fill="#000000" fill-opacity="0.0" d="m316.12567 119.32406l31.560425 15.78022l0 37.561386l-31.560425 15.780212l-31.560425 -15.780212l0 -37.561386z" fill-rule="evenodd"/><path stroke="#000000" stroke-width="8.0" stroke-linejoin="round" stroke-linecap="butt" d="m316.12567 119.32406l31.560425 15.78022l0 37.561386l-31.560425 15.780212l-31.560425 -15.780212l0 -37.561386z" fill-rule="evenodd"/><path fill="#c8a508" d="m350.1283 172.70613l31.560425 15.780212l0 37.561386l-31.560425 15.780228l-31.560425 -15.780228l0 -37.561386z" fill-rule="evenodd"/><path fill="#ffee32" d="m343.52292 174.33182l24.930115 12.465073l0 41.178787l-24.930115 12.465073l-24.930115 -12.465073l0 -41.178787z" fill-rule="evenodd"/><path fill="#ffd100" d="m347.8344 176.40666l20.954437 10.477234l0 41.004776l-20.954437 10.477234l-20.954437 -10.477234l0 -41.004776z" fill-rule="evenodd"/><path fill="#000000" fill-opacity="0.0" d="m350.1283 172.82536l31.560425 15.780228l0 37.561386l-31.560425 15.780212l-31.560425 -15.780212l0 -37.561386z" fill-rule="evenodd"/><path stroke="#000000" stroke-width="8.0" stroke-linejoin="round" stroke-linecap="butt" d="m350.1283 172.82536l31.560425 15.780228l0 37.561386l-31.560425 15.780212l-31.560425 -15.780212l0 -37.561386z" fill-rule="evenodd"/><path fill="#c8a508" d="m377.6283 116.7035l31.560425 15.78022l0 37.561386l-31.560425 15.780228l-31.560425 -15.780228l0 -37.561386z" fill-rule="evenodd"/><path fill="#ffee32" d="m371.02292 118.32919l24.930115 12.465073l0 41.178787l-24.930115 12.465073l-24.930115 -12.465073l0 -41.178787z" fill-rule="evenodd"/><path fill="#ffd100" d="m375.3344 120.404045l20.954437 10.477226l0 41.004776l-20.954437 10.477234l-20.954437 -10.477234l0 -41.004776z" fill-rule="evenodd"/><path fill="#000000" fill-opacity="0.0" d="m377.6283 116.82275l31.560425 15.78022l0 37.561386l-31.560425 15.780212l-31.560425 -15.780212l0 -37.561386z" fill-rule="evenodd"/><path stroke="#000000" stroke-width="8.0" stroke-linejoin="round" stroke-linecap="butt" d="m377.6283 116.82275l31.560425 15.78022l0 37.561386l-31.560425 15.780212l-31.560425 -15.780212l0 -37.561386z" fill-rule="evenodd"/><path fill="#c8a508" d="m411.63092 170.20482l31.560425 15.780212l0 37.561386l-31.560425 15.780228l-31.560425 -15.780228l0 -37.561386z" fill-rule="evenodd"/><path fill="#ffee32" d="m405.02554 171.8305l24.930115 12.465073l0 41.178787l-24.930115 12.465073l-24.930115 -12.465073l0 -41.178787z" fill-rule="evenodd"/><path fill="#ffd100" d="m409.33704 173.90535l20.954437 10.477234l0 41.004776l-20.954437 10.477234l-20.954437 -10.477234l0 -41.004776z" fill-rule="evenodd"/><path fill="#000000" fill-opacity="0.0" d="m411.63092 170.32405l31.560425 15.780228l0 37.561386l-31.560425 15.780212l-31.560425 -15.780212l0 -37.561386z" fill-rule="evenodd"/><path stroke="#000000" stroke-width="8.0" stroke-linejoin="round" stroke-linecap="butt" d="m411.63092 170.32405l31.560425 15.780228l0 37.561386l-31.560425 15.780212l-31.560425 -15.780212l0 -37.561386z" fill-rule="evenodd"/><path fill="#c8a508" d="m221.25034 174.20482l31.56044 15.780212l0 37.561386l-31.56044 15.780228l-31.560425 -15.780228l0 -37.561386z" fill-rule="evenodd"/><path fill="#ffee32" d="m214.64496 175.8305l24.93013 12.465073l0 41.178787l-24.93013 12.465073l-24.930115 -12.465073l0 -41.178787z" fill-rule="evenodd"/><path fill="#ffd100" d="m218.95647 177.90535l20.954437 10.477234l0 41.004776l-20.954437 10.477234l-20.954437 -10.477234l0 -41.004776z" fill-rule="evenodd"/><path fill="#000000" fill-opacity="0.0" d="m221.25034 174.32405l31.56044 15.780228l0 37.561386l-31.56044 15.780212l-31.560425 -15.780212l0 -37.561386z" fill-rule="evenodd"/><path stroke="#000000" stroke-width="8.0" stroke-linejoin="round" stroke-linecap="butt" d="m221.25034 174.32405l31.56044 15.780228l0 37.561386l-31.56044 15.780212l-31.560425 -15.780212l0 -37.561386z" fill-rule="evenodd"/><path fill="#c8a508" d="m255.25296 227.70613l31.560425 15.780212l0 37.561386l-31.560425 15.780212l-31.560425 -15.780212l0 -37.561386z" fill-rule="evenodd"/><path fill="#ffee32" d="m248.64758 229.33182l24.930145 12.465073l0 41.178787l-24.930145 12.465057l-24.930115 -12.465057l0 -41.178787z" fill-rule="evenodd"/><path fill="#ffd100" d="m252.95909 231.40666l20.954422 10.477234l0 41.004776l-20.954422 10.477234l-20.954437 -10.477234l0 -41.004776z" fill-rule="evenodd"/><path fill="#000000" fill-opacity="0.0" d="m255.25296 227.82536l31.560425 15.780228l0 37.56137l-31.560425 15.780243l-31.560425 -15.780243l0 -37.56137z" fill-rule="evenodd"/><path stroke="#000000" stroke-width="8.0" stroke-linejoin="round" stroke-linecap="butt" d="m255.25296 227.82536l31.560425 15.780228l0 37.56137l-31.560425 15.780243l-31.560425 -15.780243l0 -37.56137z" fill-rule="evenodd"/><path fill="#c8a508" d="m384.12698 226.70088l31.560425 15.780212l0 37.561386l-31.560425 15.780212l-31.560425 -15.780212l0 -37.561386z" fill-rule="evenodd"/><path fill="#ffee32" d="m377.5216 228.32657l24.930115 12.465073l0 41.178787l-24.930115 12.465057l-24.930115 -12.465057l0 -41.178787z" fill-rule="evenodd"/><path fill="#ffd100" d="m381.8331 230.40141l20.954437 10.477234l0 41.004776l-20.954437 10.477234l-20.954437 -10.477234l0 -41.004776z" fill-rule="evenodd"/><path fill="#000000" fill-opacity="0.0" d="m384.12698 226.82011l31.560425 15.780228l0 37.56137l-31.560425 15.780243l-31.560425 -15.780243l0 -37.56137z" fill-rule="evenodd"/><path stroke="#000000" stroke-width="8.0" stroke-linejoin="round" stroke-linecap="butt" d="m384.12698 226.82011l31.560425 15.780228l0 37.56137l-31.560425 15.780243l-31.560425 -15.780243l0 -37.56137z" fill-rule="evenodd"/><path fill="#c8a508" d="m418.1296 280.20218l31.560425 15.780243l0 37.56137l-31.560425 15.780212l-31.560425 -15.780212l0 -37.56137z" fill-rule="evenodd"/><path fill="#ffee32" d="m411.52423 281.82788l24.930115 12.465057l0 41.178802l-24.930115 12.465057l-24.930115 -12.465057l0 -41.178802z" fill-rule="evenodd"/><path fill="#ffd100" d="m415.83572 283.90274l20.954437 10.477203l0 41.00479l-20.954437 10.477234l-20.954437 -10.477234l0 -41.00479z" fill-rule="evenodd"/><path fill="#000000" fill-opacity="0.0" d="m418.1296 280.32144l31.560425 15.780212l0 37.56137l-31.560425 15.780243l-31.560425 -15.780243l0 -37.56137z" fill-rule="evenodd"/><path stroke="#000000" stroke-width="8.0" stroke-linejoin="round" stroke-linecap="butt" d="m418.1296 280.32144l31.560425 15.780212l0 37.56137l-31.560425 15.780243l-31.560425 -15.780243l0 -37.56137z" fill-rule="evenodd"/><path fill="#c8a508" d="m224.25296 280.20218l31.56044 15.780243l0 37.56137l-31.56044 15.780212l-31.560425 -15.780212l0 -37.56137z" fill-rule="evenodd"/><path fill="#ffee32" d="m217.64758 281.82788l24.93013 12.465057l0 41.178802l-24.93013 12.465057l-24.930115 -12.465057l0 -41.178802z" fill-rule="evenodd"/><path fill="#ffd100" d="m221.95909 283.90274l20.954437 10.477203l0 41.00479l-20.954437 10.477234l-20.954437 -10.477234l0 -41.00479z" fill-rule="evenodd"/><path fill="#000000" fill-opacity="0.0" d="m224.25296 280.32144l31.56044 15.780212l0 37.56137l-31.56044 15.780243l-31.560425 -15.780243l0 -37.56137z" fill-rule="evenodd"/><path stroke="#000000" stroke-width="8.0" stroke-linejoin="round" stroke-linecap="butt" d="m224.25296 280.32144l31.56044 15.780212l0 37.56137l-31.56044 15.780243l-31.560425 -15.780243l0 -37.56137z" fill-rule="evenodd"/><path fill="#c8a508" d="m190.25034 226.70088l31.56044 15.780212l0 37.561386l-31.56044 15.780212l-31.560425 -15.780212l0 -37.561386z" fill-rule="evenodd"/><path fill="#ffee32" d="m183.64496 228.32657l24.93013 12.465073l0 41.178787l-24.93013 12.465057l-24.930115 -12.465057l0 -41.178787z" fill-rule="evenodd"/><path fill="#ffd100" d="m187.95647 230.40141l20.954437 10.477234l0 41.004776l-20.954437 10.477234l-20.954437 -10.477234l0 -41.004776z" fill-rule="evenodd"/><path fill="#000000" fill-opacity="0.0" d="m190.25034 226.82011l31.56044 15.780228l0 37.56137l-31.56044 15.780243l-31.560425 -15.780243l0 -37.56137z" fill-rule="evenodd"/><path stroke="#000000" stroke-width="8.0" stroke-linejoin="round" stroke-linecap="butt" d="m190.25034 226.82011l31.56044 15.780228l0 37.56137l-31.56044 15.780243l-31.560425 -15.780243l0 -37.56137z" fill-rule="evenodd"/><path fill="#c8a508" d="m411.63223 172.70613l31.560425 15.780212l0 37.561386l-31.560425 15.780228l-31.560425 -15.780228l0 -37.561386z" fill-rule="evenodd"/><path fill="#ffee32" d="m405.02686 174.33182l24.930115 12.465073l0 41.178787l-24.930115 12.465073l-24.930115 -12.465073l0 -41.178787z" fill-rule="evenodd"/><path fill="#ffd100" d="m409.33835 176.40666l20.954437 10.477234l0 41.004776l-20.954437 10.477234l-20.954437 -10.477234l0 -41.004776z" fill-rule="evenodd"/><path fill="#000000" fill-opacity="0.0" d="m411.63223 172.82536l31.560425 15.780228l0 37.561386l-31.560425 15.780212l-31.560425 -15.780212l0 -37.561386z" fill-rule="evenodd"/><path stroke="#000000" stroke-width="8.0" stroke-linejoin="round" stroke-linecap="butt" d="m411.63223 172.82536l31.560425 15.780228l0 37.561386l-31.560425 15.780212l-31.560425 -15.780212l0 -37.561386z" fill-rule="evenodd"/><path fill="#c8a508" d="m377.6296 119.20481l31.560425 15.78022l0 37.561386l-31.560425 15.780228l-31.560425 -15.780228l0 -37.561386z" fill-rule="evenodd"/><path fill="#ffee32" d="m371.02423 120.830505l24.930115 12.465073l0 41.178787l-24.930115 12.465073l-24.930115 -12.465073l0 -41.178787z" fill-rule="evenodd"/><path fill="#ffd100" d="m375.33572 122.90536l20.954437 10.477226l0 41.004776l-20.954437 10.477234l-20.954437 -10.477234l0 -41.004776z" fill-rule="evenodd"/><path fill="#000000" fill-opacity="0.0" d="m377.6296 119.32406l31.560425 15.78022l0 37.561386l-31.560425 15.780212l-31.560425 -15.780212l0 -37.561386z" fill-rule="evenodd"/><path stroke="#000000" stroke-width="8.0" stroke-linejoin="round" stroke-linecap="butt" d="m377.6296 119.32406l31.560425 15.78022l0 37.561386l-31.560425 15.780212l-31.560425 -15.780212l0 -37.561386z" fill-rule="evenodd"/><path fill="#c8a508" d="m440.5102 117.96072l31.560425 15.780235l0 37.56137l-31.560425 15.780228l-31.560455 -15.780228l0 -37.56137z" fill-rule="evenodd"/><path fill="#ffee32" d="m433.90482 119.58641l24.930115 12.465073l0 41.178787l-24.930115 12.465073l-24.930145 -12.465073l0 -41.178787z" fill-rule="evenodd"/><path fill="#ffd100" d="m438.2163 121.66126l20.954437 10.477226l0 41.004776l-20.954437 10.477234l-20.954437 -10.477234l0 -41.004776z" fill-rule="evenodd"/><path fill="#000000" fill-opacity="0.0" d="m440.5102 118.07996l31.560425 15.78022l0 37.561386l-31.560425 15.780212l-31.560455 -15.780212l0 -37.561386z" fill-rule="evenodd"/><path stroke="#000000" stroke-width="8.0" stroke-linejoin="round" stroke-linecap="butt" d="m440.5102 118.07996l31.560425 15.78022l0 37.561386l-31.560425 15.780212l-31.560455 -15.780212l0 -37.561386z" fill-rule="evenodd"/><path fill="#c8a508" d="m406.50757 64.459404l31.560425 15.780228l0 37.56138l-31.560425 15.780228l-31.560455 -15.780228l0 -37.56138z" fill-rule="evenodd"/><path fill="#ffee32" d="m399.9022 66.0851l24.930115 12.465073l0 41.178787l-24.930115 12.465073l-24.930145 -12.465073l0 -41.178787z" fill-rule="evenodd"/><path fill="#ffd100" d="m404.21368 68.15995l20.954437 10.477219l0 41.00479l-20.954437 10.477226l-20.954437 -10.477226l0 -41.00479z" fill-rule="evenodd"/><path fill="#000000" fill-opacity="0.0" d="m406.50757 64.57865l31.560425 15.780228l0 37.56137l-31.560425 15.78022l-31.560455 -15.78022l0 -37.56137z" fill-rule="evenodd"/><path stroke="#000000" stroke-width="8.0" stroke-linejoin="round" stroke-linecap="butt" d="m406.50757 64.57865l31.560425 15.780228l0 37.56137l-31.560425 15.78022l-31.560455 -15.78022l0 -37.56137z" fill-rule="evenodd"/><path fill="#c8a508" d="m447.25034 330.2048l31.560425 15.780243l0 37.56137l-31.560425 15.780212l-31.560425 -15.780212l0 -37.56137z" fill-rule="evenodd"/><path fill="#ffee32" d="m440.64496 331.8305l24.930145 12.465057l0 41.178802l-24.930145 12.465057l-24.930115 -12.465057l0 -41.178802z" fill-rule="evenodd"/><path fill="#ffd100" d="m444.95648 333.90536l20.954407 10.477203l0 41.00479l-20.954407 10.477234l-20.954437 -10.477234l0 -41.00479z" fill-rule="evenodd"/><path fill="#000000" fill-opacity="0.0" d="m447.25034 330.32407l31.560425 15.780212l0 37.56137l-31.560425 15.780243l-31.560425 -15.780243l0 -37.56137z" fill-rule="evenodd"/><path stroke="#000000" stroke-width="8.0" stroke-linejoin="round" stroke-linecap="butt" d="m447.25034 330.32407l31.560425 15.780212l0 37.56137l-31.560425 15.780243l-31.560425 -15.780243l0 -37.56137z" fill-rule="evenodd"/><path fill="#c8a508" d="m413.2477 276.7035l31.560425 15.780243l0 37.56137l-31.560425 15.780212l-31.560425 -15.780212l0 -37.56137z" fill-rule="evenodd"/><path fill="#ffee32" d="m406.64233 278.3292l24.930145 12.465057l0 41.178802l-24.930145 12.465057l-24.930115 -12.465057l0 -41.178802z" fill-rule="evenodd"/><path fill="#ffd100" d="m410.95386 280.40405l20.954407 10.477203l0 41.00479l-20.954407 10.477234l-20.954437 -10.477234l0 -41.00479z" fill-rule="evenodd"/><path fill="#000000" fill-opacity="0.0" d="m413.2477 276.82275l31.560425 15.780212l0 37.56137l-31.560425 15.780243l-31.560425 -15.780243l0 -37.56137z" fill-rule="evenodd"/><path stroke="#000000" stroke-width="8.0" stroke-linejoin="round" stroke-linecap="butt" d="m413.2477 276.82275l31.560425 15.780212l0 37.56137l-31.560425 15.780243l-31.560425 -15.780243l0 -37.56137z" fill-rule="evenodd"/><path fill="#c8a508" d="m154.5023 174.20482l31.56044 15.780212l0 37.561386l-31.56044 15.780228l-31.560432 -15.780228l0 -37.561386z" fill-rule="evenodd"/><path fill="#ffee32" d="m147.89693 175.8305l24.93013 12.465073l0 41.178787l-24.93013 12.465073l-24.930122 -12.465073l0 -41.178787z" fill-rule="evenodd"/><path fill="#ffd100" d="m152.20844 177.90535l20.954437 10.477234l0 41.004776l-20.954437 10.477234l-20.954437 -10.477234l0 -41.004776z" fill-rule="evenodd"/><path fill="#000000" fill-opacity="0.0" d="m154.5023 174.32405l31.56044 15.780228l0 37.561386l-31.56044 15.780212l-31.560432 -15.780212l0 -37.561386z" fill-rule="evenodd"/><path stroke="#000000" stroke-width="8.0" stroke-linejoin="round" stroke-linecap="butt" d="m154.5023 174.32405l31.56044 15.780228l0 37.561386l-31.56044 15.780212l-31.560432 -15.780212l0 -37.561386z" fill-rule="evenodd"/><path fill="#c8a508" d="m188.50493 227.70613l31.56044 15.780212l0 37.561386l-31.56044 15.780212l-31.560425 -15.780212l0 -37.561386z" fill-rule="evenodd"/><path fill="#ffee32" d="m181.89957 229.33182l24.930115 12.465073l0 41.178787l-24.930115 12.465057l-24.93013 -12.465057l0 -41.178787z" fill-rule="evenodd"/><path fill="#ffd100" d="m186.21106 231.40666l20.954437 10.477234l0 41.004776l-20.954437 10.477234l-20.954437 -10.477234l0 -41.004776z" fill-rule="evenodd"/><path fill="#000000" fill-opacity="0.0" d="m188.50493 227.82536l31.56044 15.780228l0 37.56137l-31.56044 15.780243l-31.560425 -15.780243l0 -37.56137z" fill-rule="evenodd"/><path stroke="#000000" stroke-width="8.0" stroke-linejoin="round" stroke-linecap="butt" d="m188.50493 227.82536l31.56044 15.780228l0 37.56137l-31.56044 15.780243l-31.560425 -15.780243l0 -37.56137z" fill-rule="evenodd"/><path fill="#c8a508" d="m160.12436 285.70087l31.560425 15.780243l0 37.56137l-31.560425 15.780212l-31.56044 -15.780212l0 -37.56137z" fill-rule="evenodd"/><path fill="#ffee32" d="m153.51898 287.32657l24.93013 12.465057l0 41.178802l-24.93013 12.465057l-24.93013 -12.465057l0 -41.178802z" fill-rule="evenodd"/><path fill="#ffd100" d="m157.83049 289.40143l20.954422 10.477203l0 41.00479l-20.954422 10.477234l-20.954437 -10.477234l0 -41.00479z" fill-rule="evenodd"/><path fill="#000000" fill-opacity="0.0" d="m160.12436 285.82013l31.560425 15.780212l0 37.56137l-31.560425 15.780243l-31.56044 -15.780243l0 -37.56137z" fill-rule="evenodd"/><path stroke="#000000" stroke-width="8.0" stroke-linejoin="round" stroke-linecap="butt" d="m160.12436 285.82013l31.560425 15.780212l0 37.56137l-31.560425 15.780243l-31.56044 -15.780243l0 -37.56137z" fill-rule="evenodd"/><path fill="#c8a508" d="m194.12698 339.20218l31.560425 15.780243l0 37.56137l-31.560425 15.780212l-31.56044 -15.780212l0 -37.56137z" fill-rule="evenodd"/><path fill="#ffee32" d="m187.5216 340.82788l24.93013 12.465057l0 41.178802l-24.93013 12.465057l-24.93013 -12.465057l0 -41.178802z" fill-rule="evenodd"/><path fill="#ffd100" d="m191.83311 342.90274l20.954422 10.477203l0 41.00479l-20.954422 10.477234l-20.954437 -10.477234l0 -41.00479z" fill-rule="evenodd"/><path fill="#000000" fill-opacity="0.0" d="m194.12698 339.32144l31.560425 15.780212l0 37.56137l-31.560425 15.780243l-31.56044 -15.780243l0 -37.56137z" fill-rule="evenodd"/><path stroke="#000000" stroke-width="8.0" stroke-linejoin="round" stroke-linecap="butt" d="m194.12698 339.32144l31.560425 15.780212l0 37.56137l-31.560425 15.780243l-31.56044 -15.780243l0 -37.56137z" fill-rule="evenodd"/><path fill="#c8a508" d="m316.12436 226.70088l31.560425 15.780212l0 37.561386l-31.560425 15.780212l-31.560425 -15.780212l0 -37.561386z" fill-rule="evenodd"/><path fill="#ffee32" d="m309.51898 228.32657l24.930115 12.465073l0 41.178787l-24.930115 12.465057l-24.930115 -12.465057l0 -41.178787z" fill-rule="evenodd"/><path fill="#ffd100" d="m313.83047 230.40141l20.954437 10.477234l0 41.004776l-20.954437 10.477234l-20.954437 -10.477234l0 -41.004776z" fill-rule="evenodd"/><path fill="#000000" fill-opacity="0.0" d="m316.12436 226.82011l31.560425 15.780228l0 37.56137l-31.560425 15.780243l-31.560425 -15.780243l0 -37.56137z" fill-rule="evenodd"/><path stroke="#000000" stroke-width="8.0" stroke-linejoin="round" stroke-linecap="butt" d="m316.12436 226.82011l31.560425 15.780228l0 37.56137l-31.560425 15.780243l-31.560425 -15.780243l0 -37.56137z" fill-rule="evenodd"/><path fill="#c8a508" d="m350.12698 280.20218l31.560425 15.780243l0 37.56137l-31.560425 15.780212l-31.560425 -15.780212l0 -37.56137z" fill-rule="evenodd"/><path fill="#ffee32" d="m343.5216 281.82788l24.930115 12.465057l0 41.178802l-24.930115 12.465057l-24.930115 -12.465057l0 -41.178802z" fill-rule="evenodd"/><path fill="#ffd100" d="m347.8331 283.90274l20.954437 10.477203l0 41.00479l-20.954437 10.477234l-20.954437 -10.477234l0 -41.00479z" fill-rule="evenodd"/><path fill="#000000" fill-opacity="0.0" d="m350.12698 280.32144l31.560425 15.780212l0 37.56137l-31.560425 15.780243l-31.560425 -15.780243l0 -37.56137z" fill-rule="evenodd"/><path stroke="#000000" stroke-width="8.0" stroke-linejoin="round" stroke-linecap="butt" d="m350.12698 280.32144l31.560425 15.780212l0 37.56137l-31.560425 15.780243l-31.560425 -15.780243l0 -37.56137z" fill-rule="evenodd"/><path fill="#c8a508" d="m474.75165 174.20482l31.560425 15.780212l0 37.561386l-31.560425 15.780228l-31.560425 -15.780228l0 -37.561386z" fill-rule="evenodd"/><path fill="#ffee32" d="m468.14627 175.8305l24.930145 12.465073l0 41.178787l-24.930145 12.465073l-24.930115 -12.465073l0 -41.178787z" fill-rule="evenodd"/><path fill="#ffd100" d="m472.4578 177.90535l20.954407 10.477234l0 41.004776l-20.954407 10.477234l-20.954437 -10.477234l0 -41.004776z" fill-rule="evenodd"/><path fill="#000000" fill-opacity="0.0" d="m474.75165 174.32405l31.560425 15.780228l0 37.561386l-31.560425 15.780212l-31.560425 -15.780212l0 -37.561386z" fill-rule="evenodd"/><path stroke="#000000" stroke-width="8.0" stroke-linejoin="round" stroke-linecap="butt" d="m474.75165 174.32405l31.560425 15.780228l0 37.561386l-31.560425 15.780212l-31.560425 -15.780212l0 -37.561386z" fill-rule="evenodd"/><path fill="#c8a508" d="m508.75427 227.70613l31.560425 15.780212l0 37.561386l-31.560425 15.780212l-31.560425 -15.780212l0 -37.561386z" fill-rule="evenodd"/><path fill="#ffee32" d="m502.1489 229.33182l24.930145 12.465073l0 41.178787l-24.930145 12.465057l-24.930115 -12.465057l0 -41.178787z" fill-rule="evenodd"/><path fill="#ffd100" d="m506.46042 231.40666l20.954437 10.477234l0 41.004776l-20.954437 10.477234l-20.954437 -10.477234l0 -41.004776z" fill-rule="evenodd"/><path fill="#000000" fill-opacity="0.0" d="m508.75427 227.82536l31.560425 15.780228l0 37.56137l-31.560425 15.780243l-31.560425 -15.780243l0 -37.56137z" fill-rule="evenodd"/><path stroke="#000000" stroke-width="8.0" stroke-linejoin="round" stroke-linecap="butt" d="m508.75427 227.82536l31.560425 15.780228l0 37.56137l-31.560425 15.780243l-31.560425 -15.780243l0 -37.56137z" fill-rule="evenodd"/><path fill="#c8a508" d="m280.50494 64.459404l31.560425 15.780228l0 37.56138l-31.560425 15.780228l-31.56044 -15.780228l0 -37.56138z" fill-rule="evenodd"/><path fill="#ffee32" d="m273.89957 66.0851l24.930115 12.465073l0 41.178787l-24.930115 12.465073l-24.93013 -12.465073l0 -41.178787z" fill-rule="evenodd"/><path fill="#ffd100" d="m278.21106 68.15995l20.954437 10.477219l0 41.00479l-20.954437 10.477226l-20.954437 -10.477226l0 -41.00479z" fill-rule="evenodd"/><path fill="#000000" fill-opacity="0.0" d="m280.50494 64.57865l31.560425 15.780228l0 37.56137l-31.560425 15.78022l-31.56044 -15.78022l0 -37.56137z" fill-rule="evenodd"/><path stroke="#000000" stroke-width="8.0" stroke-linejoin="round" stroke-linecap="butt" d="m280.50494 64.57865l31.560425 15.780228l0 37.56137l-31.560425 15.78022l-31.56044 -15.78022l0 -37.56137z" fill-rule="evenodd"/><path fill="#c8a508" d="m314.50757 117.96072l31.560425 15.780235l0 37.56137l-31.560425 15.780228l-31.560455 -15.780228l0 -37.56137z" fill-rule="evenodd"/><path fill="#ffee32" d="m307.9022 119.58641l24.930115 12.465073l0 41.178787l-24.930115 12.465073l-24.930145 -12.465073l0 -41.178787z" fill-rule="evenodd"/><path fill="#ffd100" d="m312.21368 121.66126l20.954437 10.477226l0 41.004776l-20.954437 10.477234l-20.954437 -10.477234l0 -41.004776z" fill-rule="evenodd"/><path fill="#000000" fill-opacity="0.0" d="m314.50757 118.07996l31.560425 15.78022l0 37.561386l-31.560425 15.780212l-31.560455 -15.780212l0 -37.561386z" fill-rule="evenodd"/><path stroke="#000000" stroke-width="8.0" stroke-linejoin="round" stroke-linecap="butt" d="m314.50757 118.07996l31.560425 15.78022l0 37.561386l-31.560425 15.780212l-31.560455 -15.780212l0 -37.561386z" fill-rule="evenodd"/><path fill="#c8a508" d="m93.126976 177.70876l31.56044 15.780228l0 37.56137l-31.56044 15.780228l-31.560432 -15.780228l0 -37.56137z" fill-rule="evenodd"/><path fill="#ffee32" d="m86.52161 179.33444l24.93013 12.465073l0 41.178787l-24.93013 12.465073l-24.930126 -12.465073l0 -41.178787z" fill-rule="evenodd"/><path fill="#ffd100" d="m90.83311 181.40929l20.954437 10.477234l0 41.004776l-20.954437 10.477234l-20.95443 -10.477234l0 -41.004776z" fill-rule="evenodd"/><path fill="#000000" fill-opacity="0.0" d="m93.126976 177.82799l31.56044 15.780228l0 37.561386l-31.56044 15.780212l-31.560432 -15.780212l0 -37.561386z" fill-rule="evenodd"/><path stroke="#000000" stroke-width="8.0" stroke-linejoin="round" stroke-linecap="butt" d="m93.126976 177.82799l31.56044 15.780228l0 37.561386l-31.56044 15.780212l-31.560432 -15.780212l0 -37.561386z" fill-rule="evenodd"/><path fill="#c8a508" d="m127.12961 231.21007l31.560425 15.780228l0 37.56137l-31.560425 15.780212l-31.56044 -15.780212l0 -37.56137z" fill-rule="evenodd"/><path fill="#ffee32" d="m120.52423 232.83575l24.93013 12.465073l0 41.178787l-24.93013 12.465057l-24.93013 -12.465057l0 -41.178787z" fill-rule="evenodd"/><path fill="#ffd100" d="m124.83573 234.9106l20.95443 10.477234l0 41.004776l-20.95443 10.477234l-20.95443 -10.477234l0 -41.004776z" fill-rule="evenodd"/><path fill="#000000" fill-opacity="0.0" d="m127.12961 231.3293l31.560425 15.780228l0 37.56137l-31.560425 15.780243l-31.56044 -15.780243l0 -37.56137z" fill-rule="evenodd"/><path stroke="#000000" stroke-width="8.0" stroke-linejoin="round" stroke-linecap="butt" d="m127.12961 231.3293l31.560425 15.780228l0 37.56137l-31.560425 15.780243l-31.56044 -15.780243l0 -37.56137z" fill-rule="evenodd"/><path fill="#c8a508" d="m410.12567 174.20482l31.560425 15.780212l0 37.561386l-31.560425 15.780228l-31.560425 -15.780228l0 -37.561386z" fill-rule="evenodd"/><path fill="#ffee32" d="m403.5203 175.8305l24.930115 12.465073l0 41.178787l-24.930115 12.465073l-24.930115 -12.465073l0 -41.178787z" fill-rule="evenodd"/><path fill="#ffd100" d="m407.8318 177.90535l20.954437 10.477234l0 41.004776l-20.954437 10.477234l-20.954437 -10.477234l0 -41.004776z" fill-rule="evenodd"/><path fill="#000000" fill-opacity="0.0" d="m410.12567 174.32405l31.560425 15.780228l0 37.561386l-31.560425 15.780212l-31.560425 -15.780212l0 -37.561386z" fill-rule="evenodd"/><path stroke="#000000" stroke-width="8.0" stroke-linejoin="round" stroke-linecap="butt" d="m410.12567 174.32405l31.560425 15.780228l0 37.561386l-31.560425 15.780212l-31.560425 -15.780212l0 -37.561386z" fill-rule="evenodd"/><path fill="#c8a508" d="m444.1283 227.70613l31.560425 15.780212l0 37.561386l-31.560425 15.780212l-31.560425 -15.780212l0 -37.561386z" fill-rule="evenodd"/><path fill="#ffee32" d="m437.52292 229.33182l24.930115 12.465073l0 41.178787l-24.930115 12.465057l-24.930115 -12.465057l0 -41.178787z" fill-rule="evenodd"/><path fill="#ffd100" d="m441.8344 231.40666l20.954437 10.477234l0 41.004776l-20.954437 10.477234l-20.954437 -10.477234l0 -41.004776z" fill-rule="evenodd"/><path fill="#000000" fill-opacity="0.0" d="m444.1283 227.82536l31.560425 15.780228l0 37.56137l-31.560425 15.780243l-31.560425 -15.780243l0 -37.56137z" fill-rule="evenodd"/><path stroke="#000000" stroke-width="8.0" stroke-linejoin="round" stroke-linecap="butt" d="m444.1283 227.82536l31.560425 15.780228l0 37.56137l-31.560425 15.780243l-31.560425 -15.780243l0 -37.56137z" fill-rule="evenodd"/></g></svg>