<svg version="1.1" viewBox="0.0 0.0 1145.1233595800525 1065.761154855643" fill="none" stroke="none" stroke-linecap="square" stroke-miterlimit="10" xmlns:xlink="http://www.w3.org/1999/xlink" xmlns="http://www.w3.org/2000/svg"><clipPath id="p.0"><path d="m0 0l1145.1234 0l0 1065.7611l-1145.1234 0l0 -1065.7611z" clip-rule="nonzero"/></clipPath><g clip-path="url(#p.0)"><path fill="#000000" fill-opacity="0.0" d="m0 0l1145.1234 0l0 1065.7611l-1145.1234 0z" fill-rule="evenodd"/><path fill="#ffee32" d="m888.1392 992.60547l-3.939209 0l0 0c-4.009033 0 -7.853821 -1.5925293 -10.688599 -4.427307c-2.8347778 -2.8348389 -4.427307 -6.6796265 -4.427307 -10.688599l0 -240.49799c0 -1.2207031E-4 1.2207031E-4 -2.4414062E-4 2.4414062E-4 -2.4414062E-4l34.170776 2.4414062E-4l0 0c1.2207031E-4 0 3.0517578E-4 1.2207031E-4 3.0517578E-4 3.0517578E-4l-3.0517578E-4 240.49768l0 0c0 8.348267 -6.767639 15.115906 -15.115906 15.115906z" fill-rule="evenodd"/><path fill="#c8a508" d="m916.57074 996.06323l-11.013489 0l0 0c-5.4935303 0 -10.762085 -2.182312 -14.646545 -6.0667725c-3.8845215 -3.8845215 -6.0668335 -9.153076 -6.0668335 -14.646545l0 -238.04584c0 -2.4414062E-4 1.8310547E-4 -4.8828125E-4 4.272461E-4 -4.8828125E-4l52.43976 4.8828125E-4l0 0c2.4414062E-4 0 4.272461E-4 1.8310547E-4 4.272461E-4 4.272461E-4l-4.272461E-4 238.04541l0 0c0 11.439636 -9.273682 20.713318 -20.713318 20.713318z" fill-rule="evenodd"/><path fill="#000000" fill-opacity="0.0" d="m908.41064 999.7941l-14.196472 0l0 0c-7.0811768 0 -13.8723755 -2.8129883 -18.879517 -7.8201294c-5.007202 -5.007141 -7.8201904 -11.79834 -7.8201904 -18.879517l0 -237.09198c0 -3.6621094E-4 2.4414062E-4 -6.1035156E-4 5.493164E-4 -6.1035156E-4l67.59534 6.1035156E-4l0 0c3.0517578E-4 0 5.493164E-4 2.4414062E-4 5.493164E-4 5.493164E-4l-5.493164E-4 237.09143l0 0c0 14.745789 -11.953857 26.699646 -26.699707 26.699646z" fill-rule="evenodd"/><path stroke="#000000" stroke-width="8.0" stroke-linejoin="round" stroke-linecap="butt" d="m908.41064 999.7941l-14.196472 0l0 0c-7.0811768 0 -13.8723755 -2.8129883 -18.879517 -7.8201294c-5.007202 -5.007141 -7.8201904 -11.79834 -7.8201904 -18.879517l0 -237.09198c0 -3.6621094E-4 2.4414062E-4 -6.1035156E-4 5.493164E-4 -6.1035156E-4l67.59534 6.1035156E-4l0 0c3.0517578E-4 0 5.493164E-4 2.4414062E-4 5.493164E-4 5.493164E-4l-5.493164E-4 237.09143l0 0c0 14.745789 -11.953857 26.699646 -26.699707 26.699646z" fill-rule="evenodd"/><path fill="#ffd100" d="m903.03235 997.2365l-8.665405 0l0 0c-4.3223267 0 -8.46759 -1.717041 -11.523926 -4.7733765c-3.0563354 -3.0563354 -4.7733765 -7.201599 -4.7733765 -11.523865l0 -242.37915c0 -1.8310547E-4 1.2207031E-4 -3.6621094E-4 3.0517578E-4 -3.6621094E-4l41.259644 3.6621094E-4l0 0c2.4414062E-4 0 3.6621094E-4 1.2207031E-4 3.6621094E-4 3.0517578E-4l-3.6621094E-4 242.37885l0 0c0 9.000732 -7.296509 16.297241 -16.297241 16.297241z" fill-rule="evenodd"/><path fill="#c8a508" d="m966.6934 885.7456l-15.320557 0l0 0c-7.6418457 0 -14.970764 -3.0357056 -20.37439 -8.439331c-5.4036255 -5.4036255 -8.439331 -12.732544 -8.439331 -20.37439l0 -120.93585c0 -3.6621094E-4 2.4414062E-4 -6.1035156E-4 6.1035156E-4 -6.1035156E-4l72.94733 6.1035156E-4l0 0c3.6621094E-4 0 6.1035156E-4 2.4414062E-4 6.1035156E-4 6.1035156E-4l-6.1035156E-4 120.93524l0 0c0 15.913391 -12.90033 28.81372 -28.81366 28.81372z" fill-rule="evenodd"/><path stroke="#000000" stroke-width="8.0" stroke-linejoin="round" stroke-linecap="butt" d="m966.6934 885.7456l-15.320557 0l0 0c-7.6418457 0 -14.970764 -3.0357056 -20.37439 -8.439331c-5.4036255 -5.4036255 -8.439331 -12.732544 -8.439331 -20.37439l0 -120.93585c0 -3.6621094E-4 2.4414062E-4 -6.1035156E-4 6.1035156E-4 -6.1035156E-4l72.94733 6.1035156E-4l0 0c3.6621094E-4 0 6.1035156E-4 2.4414062E-4 6.1035156E-4 6.1035156E-4l-6.1035156E-4 120.93524l0 0c0 15.913391 -12.90033 28.81372 -28.81366 28.81372z" fill-rule="evenodd"/><path fill="#ffd100" d="m937.3547 860.48065l-14.037048 0l0 0c-7.001709 0 -13.716614 -2.781433 -18.667542 -7.732361c-4.9509277 -4.9509277 -7.732361 -11.6658325 -7.732361 -18.667542l0 -95.80347c0 -3.0517578E-4 2.4414062E-4 -5.493164E-4 5.493164E-4 -5.493164E-4l66.83624 5.493164E-4l0 0c3.6621094E-4 0 6.1035156E-4 2.4414062E-4 6.1035156E-4 5.493164E-4l-6.1035156E-4 95.80292l0 0c0 14.580261 -11.81958 26.399902 -26.399841 26.399902z" fill-rule="evenodd"/><path fill="#ffd100" d="m952.5471 880.9941l-8.835693 0l0 0c-4.4072266 0 -8.633911 -1.7507324 -11.750305 -4.8671265c-3.116333 -3.116394 -4.8671265 -7.3430786 -4.8671265 -11.750305l0 -125.78204c0 -1.8310547E-4 1.8310547E-4 -3.6621094E-4 3.6621094E-4 -3.6621094E-4l42.07019 3.6621094E-4l0 0c1.8310547E-4 0 3.0517578E-4 1.2207031E-4 3.0517578E-4 3.0517578E-4l-3.0517578E-4 125.78174l0 0c0 9.177551 -7.4398804 16.617432 -16.617432 16.617432z" fill-rule="evenodd"/><path fill="#ffee32" d="m1125.6313 712.3937l3.0700684 0l0 0c3.1243896 0 6.1208496 -1.2411499 8.330078 -3.4503784c2.2092285 -2.2092896 3.4504395 -5.2056885 3.4504395 -8.330078l0 -141.75421c0 -1.2207031E-4 -1.2207031E-4 -2.4414062E-4 -2.4414062E-4 -2.4414062E-4l-26.630737 2.4414062E-4l0 0c-1.2207031E-4 0 -2.4414062E-4 6.1035156E-5 -2.4414062E-4 1.8310547E-4l2.4414062E-4 141.75403l0 0c0 6.5061646 5.274292 11.780457 11.7803955 11.780457z" fill-rule="evenodd"/><path fill="#c8a508" d="m1103.4735 714.4706l8.583252 0l0 0c4.281372 0 8.387329 -1.7007446 11.414673 -4.7280884c3.0274658 -3.0273438 4.7281494 -7.133362 4.7281494 -11.414673l0 -139.28113c0 -1.8310547E-4 -1.2207031E-4 -3.6621094E-4 -3.6621094E-4 -3.6621094E-4l-40.86853 3.6621094E-4l0 0c-1.2207031E-4 0 -2.4414062E-4 1.2207031E-4 -2.4414062E-4 3.0517578E-4l2.4414062E-4 139.28082l0 0c0 8.915405 7.227417 16.142761 16.142822 16.142761z" fill-rule="evenodd"/><path fill="#000000" fill-opacity="0.0" d="m1109.833 716.71155l11.063965 0l0 0c5.5186768 0 10.811279 -2.1922607 14.713623 -6.0945435c3.9022217 -3.9023438 6.0946045 -9.194946 6.0946045 -14.713623l0 -137.63849c0 -2.4414062E-4 -2.4414062E-4 -4.8828125E-4 -4.8828125E-4 -4.8828125E-4l-52.67993 4.8828125E-4l0 0c-2.4414062E-4 0 -3.6621094E-4 1.8310547E-4 -3.6621094E-4 4.272461E-4l3.6621094E-4 137.63806l0 0c0 11.492065 9.316162 20.808167 20.808228 20.808167z" fill-rule="evenodd"/><path stroke="#000000" stroke-width="8.0" stroke-linejoin="round" stroke-linecap="butt" d="m1109.833 716.71155l11.063965 0l0 0c5.5186768 0 10.811279 -2.1922607 14.713623 -6.0945435c3.9022217 -3.9023438 6.0946045 -9.194946 6.0946045 -14.713623l0 -137.63849c0 -2.4414062E-4 -2.4414062E-4 -4.8828125E-4 -4.8828125E-4 -4.8828125E-4l-52.67993 4.8828125E-4l0 0c-2.4414062E-4 0 -3.6621094E-4 1.8310547E-4 -3.6621094E-4 4.272461E-4l3.6621094E-4 137.63806l0 0c0 11.492065 9.316162 20.808167 20.808228 20.808167z" fill-rule="evenodd"/><path fill="#ffd100" d="m1114.0245 715.17535l6.753418 0l0 0c3.3685303 0 6.599121 -1.3381958 8.981079 -3.7200928c2.381836 -2.381958 3.7200928 -5.612549 3.7200928 -8.981079l0 -142.6731c0 -1.2207031E-4 -1.2207031E-4 -2.4414062E-4 -3.6621094E-4 -2.4414062E-4l-32.155396 2.4414062E-4l0 0c-1.2207031E-4 0 -2.4414062E-4 1.2207031E-4 -2.4414062E-4 3.0517578E-4l2.4414062E-4 142.67279l0 0c0 7.0146484 5.6865234 12.701172 12.701172 12.701172z" fill-rule="evenodd"/><path fill="#c8a508" d="m1064.4108 648.2082l11.939941 0l0 0c5.9556885 0 11.667358 -2.3658447 15.878662 -6.5771484c4.2113037 -4.2112427 6.5771484 -9.922974 6.5771484 -15.878601l0 -67.491455c0 -2.4414062E-4 -2.4414062E-4 -4.8828125E-4 -4.8828125E-4 -4.8828125E-4l-56.850952 4.8828125E-4l0 0c-3.6621094E-4 0 -4.8828125E-4 2.4414062E-4 -4.8828125E-4 4.8828125E-4l4.8828125E-4 67.49097l0 0c0 12.401978 10.053711 22.45575 22.455688 22.45575z" fill-rule="evenodd"/><path stroke="#000000" stroke-width="8.0" stroke-linejoin="round" stroke-linecap="butt" d="m1064.4108 648.2082l11.939941 0l0 0c5.9556885 0 11.667358 -2.3658447 15.878662 -6.5771484c4.2113037 -4.2112427 6.5771484 -9.922974 6.5771484 -15.878601l0 -67.491455c0 -2.4414062E-4 -2.4414062E-4 -4.8828125E-4 -4.8828125E-4 -4.8828125E-4l-56.850952 4.8828125E-4l0 0c-3.6621094E-4 0 -4.8828125E-4 2.4414062E-4 -4.8828125E-4 4.8828125E-4l4.8828125E-4 67.49097l0 0c0 12.401978 10.053711 22.45575 22.455688 22.45575z" fill-rule="evenodd"/><path fill="#ffd100" d="m1087.2758 633.0328l10.939575 0l0 0c5.456787 0 10.689941 -2.1676636 14.548462 -6.026123c3.8585205 -3.8584595 6.026123 -9.091675 6.026123 -14.548401l0 -52.827026c0 -2.4414062E-4 -1.2207031E-4 -4.272461E-4 -3.6621094E-4 -4.272461E-4l-52.08838 4.272461E-4l0 0c-2.4414062E-4 0 -4.8828125E-4 2.4414062E-4 -4.8828125E-4 4.8828125E-4l4.8828125E-4 52.826538l0 0c0 11.362976 9.211548 20.574524 20.574585 20.574524z" fill-rule="evenodd"/><path fill="#ffd100" d="m1075.4355 645.3542l6.8861084 0l0 0c3.4346924 0 6.72876 -1.3644409 9.157471 -3.7931519c2.428711 -2.428711 3.7930908 -5.7227783 3.7930908 -9.157471l0 -72.581726c0 -1.8310547E-4 -1.2207031E-4 -3.0517578E-4 -2.4414062E-4 -3.0517578E-4l-32.78711 3.0517578E-4l0 0c-1.2207031E-4 0 -2.4414062E-4 1.2207031E-4 -2.4414062E-4 2.4414062E-4l2.4414062E-4 72.58148l0 0c0 7.152405 5.798218 12.950623 12.950684 12.950623z" fill-rule="evenodd"/><path fill="#ffee32" d="m288.07162 1039.2565l-3.9392395 0l0 0c-4.0090027 0 -7.8537903 -1.5925293 -10.688568 -4.427368c-2.8347778 -2.8348389 -4.4273376 -6.6795654 -4.4273376 -10.688599l0 -240.49792c0 -1.8310547E-4 1.2207031E-4 -3.0517578E-4 2.746582E-4 -3.0517578E-4l34.170746 3.0517578E-4l0 0c1.8310547E-4 0 3.0517578E-4 1.2207031E-4 3.0517578E-4 2.4414062E-4l-3.0517578E-4 240.49768l0 0c0 8.348267 -6.7676086 15.115967 -15.115875 15.115967z" fill-rule="evenodd"/><path fill="#c8a508" d="m316.5031 1042.7142l-11.013489 0l0 0c-5.4935303 0 -10.762054 -2.182373 -14.646545 -6.0667725c-3.8845215 -3.8845215 -6.066803 -9.153076 -6.066803 -14.646606l0 -238.04584c0 -2.4414062E-4 1.8310547E-4 -4.272461E-4 4.272461E-4 -4.272461E-4l52.43976 4.272461E-4l0 0c2.4414062E-4 0 4.272461E-4 1.8310547E-4 4.272461E-4 4.272461E-4l-4.272461E-4 238.04541l0 0c0 11.439697 -9.273682 20.713379 -20.713348 20.713379z" fill-rule="evenodd"/><path fill="#000000" fill-opacity="0.0" d="m308.34305 1046.4451l-14.196472 0l0 0c-7.0812073 0 -13.8723755 -2.8129883 -18.879547 -7.8200684c-5.0071716 -5.007202 -7.82016 -11.79834 -7.82016 -18.879578l0 -237.09198c0 -3.0517578E-4 2.4414062E-4 -5.493164E-4 5.79834E-4 -5.493164E-4l67.59531 5.493164E-4l0 0c3.0517578E-4 0 5.493164E-4 2.4414062E-4 5.493164E-4 5.493164E-4l-5.493164E-4 237.09143l0 0c0 14.745789 -11.953857 26.699646 -26.699707 26.699646z" fill-rule="evenodd"/><path stroke="#000000" stroke-width="8.0" stroke-linejoin="round" stroke-linecap="butt" d="m308.34305 1046.4451l-14.196472 0l0 0c-7.0812073 0 -13.8723755 -2.8129883 -18.879547 -7.8200684c-5.0071716 -5.007202 -7.82016 -11.79834 -7.82016 -18.879578l0 -237.09198c0 -3.0517578E-4 2.4414062E-4 -5.493164E-4 5.79834E-4 -5.493164E-4l67.59531 5.493164E-4l0 0c3.0517578E-4 0 5.493164E-4 2.4414062E-4 5.493164E-4 5.493164E-4l-5.493164E-4 237.09143l0 0c0 14.745789 -11.953857 26.699646 -26.699707 26.699646z" fill-rule="evenodd"/><path fill="#ffd100" d="m302.96472 1043.8875l-8.665405 0l0 0c-4.3223267 0 -8.46759 -1.717041 -11.523926 -4.7733154c-3.0563354 -3.0563965 -4.7733765 -7.20166 -4.7733765 -11.523926l0 -242.37915c0 -1.8310547E-4 1.5258789E-4 -3.0517578E-4 3.6621094E-4 -3.0517578E-4l41.259644 3.0517578E-4l0 0c1.8310547E-4 0 3.3569336E-4 1.8310547E-4 3.3569336E-4 3.6621094E-4l-3.3569336E-4 242.37878l0 0c0 9.000732 -7.2965393 16.297241 -16.297302 16.297241z" fill-rule="evenodd"/><path fill="#c8a508" d="m366.6258 932.39655l-15.320526 0l0 0c-7.641876 0 -14.970764 -3.0357056 -20.37439 -8.439331c-5.4036255 -5.4036255 -8.439331 -12.732483 -8.439331 -20.37439l0 -120.93585c0 -3.0517578E-4 2.746582E-4 -6.1035156E-4 6.1035156E-4 -6.1035156E-4l72.94736 6.1035156E-4l0 0c3.3569336E-4 0 6.1035156E-4 3.0517578E-4 6.1035156E-4 6.1035156E-4l-6.1035156E-4 120.93524l0 0c0 15.913391 -12.90036 28.81372 -28.81372 28.81372z" fill-rule="evenodd"/><path stroke="#000000" stroke-width="8.0" stroke-linejoin="round" stroke-linecap="butt" d="m366.6258 932.39655l-15.320526 0l0 0c-7.641876 0 -14.970764 -3.0357056 -20.37439 -8.439331c-5.4036255 -5.4036255 -8.439331 -12.732483 -8.439331 -20.37439l0 -120.93585c0 -3.0517578E-4 2.746582E-4 -6.1035156E-4 6.1035156E-4 -6.1035156E-4l72.94736 6.1035156E-4l0 0c3.3569336E-4 0 6.1035156E-4 3.0517578E-4 6.1035156E-4 6.1035156E-4l-6.1035156E-4 120.93524l0 0c0 15.913391 -12.90036 28.81372 -28.81372 28.81372z" fill-rule="evenodd"/><path fill="#ffd100" d="m337.28708 907.1316l-14.037079 0l0 0c-7.0016785 0 -13.716583 -2.781372 -18.667511 -7.7323c-4.9509583 -4.950989 -7.732361 -11.665894 -7.732361 -18.667542l0 -95.80347c0 -3.0517578E-4 2.4414062E-4 -5.493164E-4 5.493164E-4 -5.493164E-4l66.83627 5.493164E-4l0 0c3.0517578E-4 0 5.493164E-4 2.4414062E-4 5.493164E-4 5.493164E-4l-5.493164E-4 95.80292l0 0c0 14.5802 -11.819641 26.399841 -26.399872 26.399841z" fill-rule="evenodd"/><path fill="#ffd100" d="m352.4795 927.6451l-8.835663 0l0 0c-4.407196 0 -8.633911 -1.7507935 -11.750305 -4.8671875c-3.1163635 -3.116333 -4.8671265 -7.3430786 -4.8671265 -11.750244l0 -125.782104c0 -1.8310547E-4 1.5258789E-4 -3.6621094E-4 3.6621094E-4 -3.6621094E-4l42.07016 3.6621094E-4l0 0c1.8310547E-4 0 3.3569336E-4 1.8310547E-4 3.3569336E-4 3.6621094E-4l-3.3569336E-4 125.78174l0 0c0 9.177551 -7.4398804 16.617432 -16.617432 16.617432z" fill-rule="evenodd"/><path fill="#c8a508" d="m454.9008 173.40504l75.65665 37.82837l0 93.24248l-75.65665 37.82834l-75.65668 -37.82834l0 -93.24248z" fill-rule="evenodd"/><path fill="#ffee32" d="m439.06638 177.37744l59.762512 29.881256l0 101.77463l-59.762512 29.881287l-59.762512 -29.881287l0 -101.77463z" fill-rule="evenodd"/><path fill="#ffd100" d="m449.40192 182.44733l50.231964 25.115997l0 101.165375l-50.231964 25.115997l-50.231964 -25.115997l0 -101.165375z" fill-rule="evenodd"/><path fill="#000000" fill-opacity="0.0" d="m454.9008 173.69643l75.65665 37.828354l0 93.24246l-75.65665 37.82837l-75.65668 -37.82837l0 -93.24246z" fill-rule="evenodd"/><path stroke="#000000" stroke-width="8.0" stroke-linejoin="round" stroke-linecap="butt" d="m454.9008 173.69643l75.65665 37.828354l0 93.24246l-75.65665 37.82837l-75.65668 -37.82837l0 -93.24246z" fill-rule="evenodd"/><path fill="#c8a508" d="m536.41187 304.1355l75.65668 37.82837l0 93.24246l-75.65668 37.82837l-75.65668 -37.82837l0 -93.24246z" fill-rule="evenodd"/><path fill="#ffee32" d="m520.57745 308.10788l59.762512 29.881287l0 101.77463l-59.762512 29.881256l-59.76248 -29.881256l0 -101.77463z" fill-rule="evenodd"/><path fill="#ffd100" d="m530.913 313.1778l50.231934 25.115997l0 101.165375l-50.231934 25.115997l-50.231995 -25.115997l0 -101.165375z" fill-rule="evenodd"/><path fill="#000000" fill-opacity="0.0" d="m536.41187 304.42688l75.65668 37.82837l0 93.24246l-75.65668 37.82834l-75.65668 -37.82834l0 -93.24246z" fill-rule="evenodd"/><path stroke="#000000" stroke-width="8.0" stroke-linejoin="round" stroke-linecap="butt" d="m536.41187 304.42688l75.65668 37.82837l0 93.24246l-75.65668 37.82834l-75.65668 -37.82834l0 -93.24246z" fill-rule="evenodd"/><path fill="#c8a508" d="m609.517 173.40504l75.65668 37.82837l0 93.24248l-75.65668 37.82834l-75.65668 -37.82834l0 -93.24248z" fill-rule="evenodd"/><path fill="#ffee32" d="m593.6826 177.37744l59.762512 29.881256l0 101.77463l-59.762512 29.881287l-59.762512 -29.881287l0 -101.77463z" fill-rule="evenodd"/><path fill="#ffd100" d="m604.0182 182.44733l50.231934 25.115997l0 101.165375l-50.231934 25.115997l-50.231995 -25.115997l0 -101.165375z" fill-rule="evenodd"/><path fill="#000000" fill-opacity="0.0" d="m609.517 173.69643l75.65668 37.828354l0 93.24246l-75.65668 37.82837l-75.65668 -37.82837l0 -93.24246z" fill-rule="evenodd"/><path stroke="#000000" stroke-width="8.0" stroke-linejoin="round" stroke-linecap="butt" d="m609.517 173.69643l75.65668 37.828354l0 93.24246l-75.65668 37.82837l-75.65668 -37.82837l0 -93.24246z" fill-rule="evenodd"/><path fill="#c8a508" d="m691.02814 304.1355l75.65668 37.82837l0 93.24246l-75.65668 37.82837l-75.65668 -37.82837l0 -93.24246z" fill-rule="evenodd"/><path fill="#ffee32" d="m675.1937 308.10788l59.762512 29.881287l0 101.77463l-59.762512 29.881256l-59.762512 -29.881256l0 -101.77463z" fill-rule="evenodd"/><path fill="#ffd100" d="m685.52924 313.1778l50.231995 25.115997l0 101.165375l-50.231995 25.115997l-50.231934 -25.115997l0 -101.165375z" fill-rule="evenodd"/><path fill="#000000" fill-opacity="0.0" d="m691.02814 304.42688l75.65668 37.82837l0 93.24246l-75.65668 37.82834l-75.65668 -37.82834l0 -93.24246z" fill-rule="evenodd"/><path stroke="#000000" stroke-width="8.0" stroke-linejoin="round" stroke-linecap="butt" d="m691.02814 304.42688l75.65668 37.82837l0 93.24246l-75.65668 37.82834l-75.65668 -37.82834l0 -93.24246z" fill-rule="evenodd"/><path fill="#c8a508" d="m756.9511 167.29309l75.65668 37.828354l0 93.24248l-75.65668 37.82837l-75.65668 -37.82837l0 -93.24248z" fill-rule="evenodd"/><path fill="#ffee32" d="m741.1167 171.26547l59.762512 29.881271l0 101.77464l-59.762512 29.881256l-59.76245 -29.881256l0 -101.77464z" fill-rule="evenodd"/><path fill="#ffd100" d="m751.4523 176.33537l50.231934 25.115997l0 101.16539l-50.231934 25.115997l-50.231995 -25.115997l0 -101.16539z" fill-rule="evenodd"/><path fill="#000000" fill-opacity="0.0" d="m756.9511 167.58447l75.65668 37.828354l0 93.24248l-75.65668 37.82834l-75.65668 -37.82834l0 -93.24248z" fill-rule="evenodd"/><path stroke="#000000" stroke-width="8.0" stroke-linejoin="round" stroke-linecap="butt" d="m756.9511 167.58447l75.65668 37.828354l0 93.24248l-75.65668 37.82834l-75.65668 -37.82834l0 -93.24248z" fill-rule="evenodd"/><path fill="#c8a508" d="m838.4622 298.02356l75.65668 37.82834l0 93.24249l-75.65668 37.82834l-75.65668 -37.82834l0 -93.24249z" fill-rule="evenodd"/><path fill="#ffee32" d="m822.6278 301.99594l59.762512 29.881256l0 101.77463l-59.762512 29.881287l-59.762512 -29.881287l0 -101.77463z" fill-rule="evenodd"/><path fill="#ffd100" d="m832.9633 307.06583l50.231995 25.115997l0 101.165375l-50.231995 25.115997l-50.231934 -25.115997l0 -101.165375z" fill-rule="evenodd"/><path fill="#000000" fill-opacity="0.0" d="m838.4622 298.3149l75.65668 37.82837l0 93.24246l-75.65668 37.82837l-75.65668 -37.82837l0 -93.24246z" fill-rule="evenodd"/><path stroke="#000000" stroke-width="8.0" stroke-linejoin="round" stroke-linecap="butt" d="m838.4622 298.3149l75.65668 37.82837l0 93.24246l-75.65668 37.82837l-75.65668 -37.82837l0 -93.24246z" fill-rule="evenodd"/><path fill="#c8a508" d="m382.0819 307.79755l75.65665 37.82837l0 93.24246l-75.65665 37.82837l-75.65668 -37.82837l0 -93.24246z" fill-rule="evenodd"/><path fill="#ffee32" d="m366.2475 311.76993l59.76248 29.881287l0 101.77463l-59.76248 29.881256l-59.762512 -29.881256l0 -101.77463z" fill-rule="evenodd"/><path fill="#ffd100" d="m376.58304 316.8398l50.231964 25.115997l0 101.165405l-50.231964 25.115997l-50.231995 -25.115997l0 -101.165405z" fill-rule="evenodd"/><path fill="#000000" fill-opacity="0.0" d="m382.0819 308.08893l75.65665 37.82834l0 93.24249l-75.65665 37.82834l-75.65668 -37.82834l0 -93.24249z" fill-rule="evenodd"/><path stroke="#000000" stroke-width="8.0" stroke-linejoin="round" stroke-linecap="butt" d="m382.0819 308.08893l75.65665 37.82834l0 93.24249l-75.65665 37.82834l-75.65668 -37.82834l0 -93.24249z" fill-rule="evenodd"/><path fill="#c8a508" d="m463.593 438.528l75.65665 37.82834l0 93.24246l-75.65665 37.82837l-75.65668 -37.82837l0 -93.24246z" fill-rule="evenodd"/><path fill="#ffee32" d="m447.75858 442.5004l59.762512 29.881256l0 101.77466l-59.762512 29.881226l-59.76248 -29.881226l0 -101.77466z" fill-rule="evenodd"/><path fill="#ffd100" d="m458.09412 447.57028l50.231964 25.115997l0 101.165405l-50.231964 25.115967l-50.231964 -25.115967l0 -101.165405z" fill-rule="evenodd"/><path fill="#000000" fill-opacity="0.0" d="m463.593 438.81937l75.65665 37.82837l0 93.24246l-75.65665 37.82837l-75.65668 -37.82837l0 -93.24246z" fill-rule="evenodd"/><path stroke="#000000" stroke-width="8.0" stroke-linejoin="round" stroke-linecap="butt" d="m463.593 438.81937l75.65665 37.82837l0 93.24246l-75.65665 37.82837l-75.65668 -37.82837l0 -93.24246z" fill-rule="evenodd"/><path fill="#c8a508" d="m772.5298 436.0717l75.65668 37.82834l0 93.24249l-75.65668 37.82837l-75.65668 -37.82837l0 -93.24249z" fill-rule="evenodd"/><path fill="#ffee32" d="m756.6954 440.04407l59.762512 29.881256l0 101.77463l-59.762512 29.881287l-59.762512 -29.881287l0 -101.77463z" fill-rule="evenodd"/><path fill="#ffd100" d="m767.0309 445.11395l50.231995 25.115997l0 101.165375l-50.231995 25.116028l-50.231934 -25.116028l0 -101.165375z" fill-rule="evenodd"/><path fill="#000000" fill-opacity="0.0" d="m772.5298 436.36307l75.65668 37.82834l0 93.24249l-75.65668 37.82837l-75.65668 -37.82837l0 -93.24249z" fill-rule="evenodd"/><path stroke="#000000" stroke-width="8.0" stroke-linejoin="round" stroke-linecap="butt" d="m772.5298 436.36307l75.65668 37.82834l0 93.24249l-75.65668 37.82837l-75.65668 -37.82837l0 -93.24249z" fill-rule="evenodd"/><path fill="#c8a508" d="m854.0409 566.8021l75.65668 37.82837l0 93.24249l-75.65668 37.82831l-75.65668 -37.82831l0 -93.24249z" fill-rule="evenodd"/><path fill="#ffee32" d="m838.2065 570.77454l59.762512 29.881226l0 101.77466l-59.762512 29.881287l-59.762512 -29.881287l0 -101.77466z" fill-rule="evenodd"/><path fill="#ffd100" d="m848.542 575.8444l50.231995 25.115967l0 101.165405l-50.231995 25.116028l-50.231934 -25.116028l0 -101.165405z" fill-rule="evenodd"/><path fill="#000000" fill-opacity="0.0" d="m854.0409 567.0935l75.65668 37.82837l0 93.24249l-75.65668 37.82831l-75.65668 -37.82831l0 -93.24249z" fill-rule="evenodd"/><path stroke="#000000" stroke-width="8.0" stroke-linejoin="round" stroke-linecap="butt" d="m854.0409 567.0935l75.65668 37.82837l0 93.24249l-75.65668 37.82831l-75.65668 -37.82831l0 -93.24249z" fill-rule="evenodd"/><path fill="#c8a508" d="m389.2798 566.8021l75.65668 37.82837l0 93.24249l-75.65668 37.82831l-75.65668 -37.82831l0 -93.24249z" fill-rule="evenodd"/><path fill="#ffee32" d="m373.44537 570.77454l59.762512 29.881226l0 101.77466l-59.762512 29.881287l-59.76248 -29.881287l0 -101.77466z" fill-rule="evenodd"/><path fill="#ffd100" d="m383.7809 575.8444l50.231964 25.115967l0 101.165405l-50.231964 25.116028l-50.231964 -25.116028l0 -101.165405z" fill-rule="evenodd"/><path fill="#000000" fill-opacity="0.0" d="m389.2798 567.0935l75.65668 37.82837l0 93.24249l-75.65668 37.82831l-75.65668 -37.82831l0 -93.24249z" fill-rule="evenodd"/><path stroke="#000000" stroke-width="8.0" stroke-linejoin="round" stroke-linecap="butt" d="m389.2798 567.0935l75.65668 37.82837l0 93.24249l-75.65668 37.82831l-75.65668 -37.82831l0 -93.24249z" fill-rule="evenodd"/><path fill="#c8a508" d="m307.7687 436.0717l75.65668 37.82834l0 93.24249l-75.65668 37.82837l-75.65669 -37.82837l0 -93.24249z" fill-rule="evenodd"/><path fill="#ffee32" d="m291.9343 440.04407l59.762512 29.881256l0 101.77463l-59.762512 29.881287l-59.762497 -29.881287l0 -101.77463z" fill-rule="evenodd"/><path fill="#ffd100" d="m302.26984 445.11395l50.231964 25.115997l0 101.165375l-50.231964 25.116028l-50.23198 -25.116028l0 -101.165375z" fill-rule="evenodd"/><path fill="#000000" fill-opacity="0.0" d="m307.7687 436.36307l75.65668 37.82834l0 93.24249l-75.65668 37.82837l-75.65669 -37.82837l0 -93.24249z" fill-rule="evenodd"/><path stroke="#000000" stroke-width="8.0" stroke-linejoin="round" stroke-linecap="butt" d="m307.7687 436.36307l75.65668 37.82834l0 93.24249l-75.65668 37.82837l-75.65669 -37.82837l0 -93.24249z" fill-rule="evenodd"/><path fill="#c8a508" d="m838.46533 304.1355l75.65668 37.82837l0 93.24246l-75.65668 37.82837l-75.65668 -37.82837l0 -93.24246z" fill-rule="evenodd"/><path fill="#ffee32" d="m822.631 308.10788l59.76245 29.881287l0 101.77463l-59.76245 29.881256l-59.762512 -29.881256l0 -101.77463z" fill-rule="evenodd"/><path fill="#ffd100" d="m832.9665 313.1778l50.231995 25.115997l0 101.165375l-50.231995 25.115997l-50.231995 -25.115997l0 -101.165375z" fill-rule="evenodd"/><path fill="#000000" fill-opacity="0.0" d="m838.46533 304.42688l75.65668 37.82837l0 93.24246l-75.65668 37.82834l-75.65668 -37.82834l0 -93.24246z" fill-rule="evenodd"/><path stroke="#000000" stroke-width="8.0" stroke-linejoin="round" stroke-linecap="butt" d="m838.46533 304.42688l75.65668 37.82837l0 93.24246l-75.65668 37.82834l-75.65668 -37.82834l0 -93.24246z" fill-rule="evenodd"/><path fill="#c8a508" d="m756.9543 173.40504l75.65668 37.82837l0 93.24248l-75.65668 37.82834l-75.65668 -37.82834l0 -93.24248z" fill-rule="evenodd"/><path fill="#ffee32" d="m741.1199 177.37744l59.762512 29.881256l0 101.77463l-59.762512 29.881287l-59.762512 -29.881287l0 -101.77463z" fill-rule="evenodd"/><path fill="#ffd100" d="m751.4554 182.44733l50.231995 25.115997l0 101.165375l-50.231995 25.115997l-50.231934 -25.115997l0 -101.165375z" fill-rule="evenodd"/><path fill="#000000" fill-opacity="0.0" d="m756.9543 173.69643l75.65668 37.828354l0 93.24246l-75.65668 37.82837l-75.65668 -37.82837l0 -93.24246z" fill-rule="evenodd"/><path stroke="#000000" stroke-width="8.0" stroke-linejoin="round" stroke-linecap="butt" d="m756.9543 173.69643l75.65668 37.828354l0 93.24246l-75.65668 37.82837l-75.65668 -37.82837l0 -93.24246z" fill-rule="evenodd"/><path fill="#c8a508" d="m907.6916 170.36511l75.65668 37.828354l0 93.24248l-75.65668 37.82834l-75.65668 -37.82834l0 -93.24248z" fill-rule="evenodd"/><path fill="#ffee32" d="m891.8572 174.3375l59.762512 29.881256l0 101.77463l-59.762512 29.881287l-59.762512 -29.881287l0 -101.77463z" fill-rule="evenodd"/><path fill="#ffd100" d="m902.19275 179.40738l50.231934 25.115997l0 101.165375l-50.231934 25.115997l-50.231995 -25.115997l0 -101.165375z" fill-rule="evenodd"/><path fill="#000000" fill-opacity="0.0" d="m907.6916 170.65648l75.65668 37.828354l0 93.24246l-75.65668 37.82837l-75.65668 -37.82837l0 -93.24246z" fill-rule="evenodd"/><path stroke="#000000" stroke-width="8.0" stroke-linejoin="round" stroke-linecap="butt" d="m907.6916 170.65648l75.65668 37.828354l0 93.24246l-75.65668 37.82837l-75.65668 -37.82837l0 -93.24246z" fill-rule="evenodd"/><path fill="#c8a508" d="m826.1805 39.63465l75.65668 37.828354l0 93.24247l-75.65668 37.828354l-75.65668 -37.828354l0 -93.24247z" fill-rule="evenodd"/><path fill="#ffee32" d="m810.34607 43.607033l59.762512 29.881264l0 101.77463l-59.762512 29.881271l-59.76245 -29.881271l0 -101.77463z" fill-rule="evenodd"/><path fill="#ffd100" d="m820.68164 48.67692l50.231934 25.116001l0 101.16539l-50.231934 25.115997l-50.231995 -25.115997l0 -101.16539z" fill-rule="evenodd"/><path fill="#000000" fill-opacity="0.0" d="m826.1805 39.92602l75.65668 37.828358l0 93.24248l-75.65668 37.828354l-75.65668 -37.828354l0 -93.24248z" fill-rule="evenodd"/><path stroke="#000000" stroke-width="8.0" stroke-linejoin="round" stroke-linecap="butt" d="m826.1805 39.92602l75.65668 37.828358l0 93.24248l-75.65668 37.828354l-75.65668 -37.828354l0 -93.24248z" fill-rule="evenodd"/><path fill="#c8a508" d="m923.8491 688.9836l75.65668 37.82831l0 93.24249l-75.65668 37.82837l-75.65668 -37.82837l0 -93.24249z" fill-rule="evenodd"/><path fill="#ffee32" d="m908.0147 692.95593l59.762512 29.881287l0 101.7746l-59.762512 29.881287l-59.762512 -29.881287l0 -101.7746z" fill-rule="evenodd"/><path fill="#ffd100" d="m918.3502 698.0258l50.231995 25.116028l0 101.165344l-50.231995 25.116028l-50.231934 -25.116028l0 -101.165344z" fill-rule="evenodd"/><path fill="#000000" fill-opacity="0.0" d="m923.8491 689.2749l75.65668 37.82837l0 93.24249l-75.65668 37.82837l-75.65668 -37.82837l0 -93.24249z" fill-rule="evenodd"/><path stroke="#000000" stroke-width="8.0" stroke-linejoin="round" stroke-linecap="butt" d="m923.8491 689.2749l75.65668 37.82837l0 93.24249l-75.65668 37.82837l-75.65668 -37.82837l0 -93.24249z" fill-rule="evenodd"/><path fill="#c8a508" d="m842.338 558.2531l75.65668 37.82831l0 93.24249l-75.65668 37.82837l-75.65668 -37.82837l0 -93.24249z" fill-rule="evenodd"/><path fill="#ffee32" d="m826.5036 562.22546l59.762512 29.881287l0 101.7746l-59.762512 29.881287l-59.762512 -29.881287l0 -101.7746z" fill-rule="evenodd"/><path fill="#ffd100" d="m836.8391 567.29535l50.231995 25.116028l0 101.165405l-50.231995 25.115967l-50.231934 -25.115967l0 -101.165405z" fill-rule="evenodd"/><path fill="#000000" fill-opacity="0.0" d="m842.338 558.5445l75.65668 37.82831l0 93.24249l-75.65668 37.82837l-75.65668 -37.82837l0 -93.24249z" fill-rule="evenodd"/><path stroke="#000000" stroke-width="8.0" stroke-linejoin="round" stroke-linecap="butt" d="m842.338 558.5445l75.65668 37.82831l0 93.24249l-75.65668 37.82837l-75.65668 -37.82837l0 -93.24249z" fill-rule="evenodd"/><path fill="#c8a508" d="m222.07352 307.79755l75.65668 37.82837l0 93.24246l-75.65668 37.82837l-75.65668 -37.82837l0 -93.24246z" fill-rule="evenodd"/><path fill="#ffee32" d="m206.2391 311.76993l59.762512 29.881287l0 101.77463l-59.762512 29.881256l-59.762497 -29.881256l0 -101.77463z" fill-rule="evenodd"/><path fill="#ffd100" d="m216.57465 316.8398l50.231964 25.115997l0 101.165405l-50.231964 25.115997l-50.231964 -25.115997l0 -101.165405z" fill-rule="evenodd"/><path fill="#000000" fill-opacity="0.0" d="m222.07352 308.08893l75.65668 37.82834l0 93.24249l-75.65668 37.82834l-75.65668 -37.82834l0 -93.24249z" fill-rule="evenodd"/><path stroke="#000000" stroke-width="8.0" stroke-linejoin="round" stroke-linecap="butt" d="m222.07352 308.08893l75.65668 37.82834l0 93.24249l-75.65668 37.82834l-75.65668 -37.82834l0 -93.24249z" fill-rule="evenodd"/><path fill="#c8a508" d="m303.5846 438.528l75.65668 37.82834l0 93.24246l-75.65668 37.82837l-75.65666 -37.82837l0 -93.24246z" fill-rule="evenodd"/><path fill="#ffee32" d="m287.7502 442.5004l59.76248 29.881256l0 101.77466l-59.76248 29.881226l-59.762512 -29.881226l0 -101.77466z" fill-rule="evenodd"/><path fill="#ffd100" d="m298.08572 447.57028l50.231995 25.115997l0 101.165405l-50.231995 25.115967l-50.23195 -25.115967l0 -101.165405z" fill-rule="evenodd"/><path fill="#000000" fill-opacity="0.0" d="m303.5846 438.81937l75.65668 37.82837l0 93.24246l-75.65668 37.82837l-75.65666 -37.82837l0 -93.24246z" fill-rule="evenodd"/><path stroke="#000000" stroke-width="8.0" stroke-linejoin="round" stroke-linecap="butt" d="m303.5846 438.81937l75.65668 37.82837l0 93.24246l-75.65668 37.82837l-75.65666 -37.82837l0 -93.24246z" fill-rule="evenodd"/><path fill="#c8a508" d="m235.55069 580.23816l75.65668 37.82837l0 93.24249l-75.65668 37.82837l-75.65668 -37.82837l0 -93.24249z" fill-rule="evenodd"/><path fill="#ffee32" d="m219.71628 584.2106l59.762512 29.881287l0 101.7746l-59.762512 29.881287l-59.762497 -29.881287l0 -101.7746z" fill-rule="evenodd"/><path fill="#ffd100" d="m230.05182 589.28046l50.231964 25.115967l0 101.165405l-50.231964 25.116028l-50.231964 -25.116028l0 -101.165405z" fill-rule="evenodd"/><path fill="#000000" fill-opacity="0.0" d="m235.55069 580.52954l75.65668 37.82837l0 93.24249l-75.65668 37.82831l-75.65668 -37.82831l0 -93.24249z" fill-rule="evenodd"/><path stroke="#000000" stroke-width="8.0" stroke-linejoin="round" stroke-linecap="butt" d="m235.55069 580.52954l75.65668 37.82837l0 93.24249l-75.65668 37.82831l-75.65668 -37.82831l0 -93.24249z" fill-rule="evenodd"/><path fill="#c8a508" d="m317.06177 710.9686l75.65668 37.82837l0 93.24249l-75.65668 37.82831l-75.65666 -37.82831l0 -93.24249z" fill-rule="evenodd"/><path fill="#ffee32" d="m301.2274 714.94104l59.76248 29.881226l0 101.77466l-59.76248 29.881287l-59.762512 -29.881287l0 -101.77466z" fill-rule="evenodd"/><path fill="#ffd100" d="m311.5629 720.0109l50.231995 25.115967l0 101.165405l-50.231995 25.115967l-50.231964 -25.115967l0 -101.165405z" fill-rule="evenodd"/><path fill="#000000" fill-opacity="0.0" d="m317.06177 711.26l75.65668 37.82837l0 93.24243l-75.65668 37.82837l-75.65666 -37.82837l0 -93.24243z" fill-rule="evenodd"/><path stroke="#000000" stroke-width="8.0" stroke-linejoin="round" stroke-linecap="butt" d="m317.06177 711.26l75.65668 37.82837l0 93.24243l-75.65668 37.82837l-75.65666 -37.82837l0 -93.24243z" fill-rule="evenodd"/><path fill="#c8a508" d="m609.51385 436.0717l75.65668 37.82834l0 93.24249l-75.65668 37.82837l-75.65662 -37.82837l0 -93.24249z" fill-rule="evenodd"/><path fill="#ffee32" d="m593.6795 440.04407l59.76245 29.881256l0 101.77463l-59.76245 29.881287l-59.762512 -29.881287l0 -101.77463z" fill-rule="evenodd"/><path fill="#ffd100" d="m604.015 445.11395l50.231995 25.115997l0 101.165375l-50.231995 25.116028l-50.231995 -25.116028l0 -101.165375z" fill-rule="evenodd"/><path fill="#000000" fill-opacity="0.0" d="m609.51385 436.36307l75.65668 37.82834l0 93.24249l-75.65668 37.82837l-75.65662 -37.82837l0 -93.24249z" fill-rule="evenodd"/><path stroke="#000000" stroke-width="8.0" stroke-linejoin="round" stroke-linecap="butt" d="m609.51385 436.36307l75.65668 37.82834l0 93.24249l-75.65668 37.82837l-75.65662 -37.82837l0 -93.24249z" fill-rule="evenodd"/><path fill="#c8a508" d="m691.02496 566.8021l75.65668 37.82837l0 93.24249l-75.65668 37.82831l-75.65668 -37.82831l0 -93.24249z" fill-rule="evenodd"/><path fill="#ffee32" d="m675.19055 570.77454l59.762512 29.881226l0 101.77466l-59.762512 29.881287l-59.76245 -29.881287l0 -101.77466z" fill-rule="evenodd"/><path fill="#ffd100" d="m685.5261 575.8444l50.231934 25.115967l0 101.165405l-50.231934 25.116028l-50.231995 -25.116028l0 -101.165405z" fill-rule="evenodd"/><path fill="#000000" fill-opacity="0.0" d="m691.02496 567.0935l75.65668 37.82837l0 93.24249l-75.65668 37.82831l-75.65668 -37.82831l0 -93.24249z" fill-rule="evenodd"/><path stroke="#000000" stroke-width="8.0" stroke-linejoin="round" stroke-linecap="butt" d="m691.02496 567.0935l75.65668 37.82837l0 93.24249l-75.65668 37.82831l-75.65668 -37.82831l0 -93.24249z" fill-rule="evenodd"/><path fill="#c8a508" d="m989.77527 307.79755l75.65662 37.82837l0 93.24246l-75.65662 37.82837l-75.65668 -37.82837l0 -93.24246z" fill-rule="evenodd"/><path fill="#ffee32" d="m973.94086 311.76993l59.762512 29.881287l0 101.77463l-59.762512 29.881256l-59.762512 -29.881256l0 -101.77463z" fill-rule="evenodd"/><path fill="#ffd100" d="m984.27637 316.8398l50.231934 25.115997l0 101.165405l-50.231934 25.115997l-50.231934 -25.115997l0 -101.165405z" fill-rule="evenodd"/><path fill="#000000" fill-opacity="0.0" d="m989.77527 308.08893l75.65662 37.82834l0 93.24249l-75.65662 37.82834l-75.65668 -37.82834l0 -93.24249z" fill-rule="evenodd"/><path stroke="#000000" stroke-width="8.0" stroke-linejoin="round" stroke-linecap="butt" d="m989.77527 308.08893l75.65662 37.82834l0 93.24249l-75.65662 37.82834l-75.65668 -37.82834l0 -93.24249z" fill-rule="evenodd"/><path fill="#c8a508" d="m1071.2864 438.528l75.65662 37.82834l0 93.24246l-75.65662 37.82837l-75.65674 -37.82837l0 -93.24246z" fill-rule="evenodd"/><path fill="#ffee32" d="m1055.4519 442.5004l59.762573 29.881256l0 101.77466l-59.762573 29.881226l-59.76245 -29.881226l0 -101.77466z" fill-rule="evenodd"/><path fill="#ffd100" d="m1065.7875 447.57028l50.231934 25.115997l0 101.165405l-50.231934 25.115967l-50.231995 -25.115967l0 -101.165405z" fill-rule="evenodd"/><path fill="#000000" fill-opacity="0.0" d="m1071.2864 438.81937l75.65662 37.82837l0 93.24246l-75.65662 37.82837l-75.65674 -37.82837l0 -93.24246z" fill-rule="evenodd"/><path stroke="#000000" stroke-width="8.0" stroke-linejoin="round" stroke-linecap="butt" d="m1071.2864 438.81937l75.65662 37.82837l0 93.24246l-75.65662 37.82837l-75.65674 -37.82837l0 -93.24246z" fill-rule="evenodd"/><path fill="#c8a508" d="m524.127 39.63465l75.65668 37.828354l0 93.24247l-75.65668 37.828354l-75.65668 -37.828354l0 -93.24247z" fill-rule="evenodd"/><path fill="#ffee32" d="m508.2926 43.607033l59.762512 29.881264l0 101.77463l-59.762512 29.881271l-59.762512 -29.881271l0 -101.77463z" fill-rule="evenodd"/><path fill="#ffd100" d="m518.6281 48.67692l50.231995 25.116001l0 101.16539l-50.231995 25.115997l-50.231934 -25.115997l0 -101.16539z" fill-rule="evenodd"/><path fill="#000000" fill-opacity="0.0" d="m524.127 39.92602l75.65668 37.828358l0 93.24248l-75.65668 37.828354l-75.65668 -37.828354l0 -93.24248z" fill-rule="evenodd"/><path stroke="#000000" stroke-width="8.0" stroke-linejoin="round" stroke-linecap="butt" d="m524.127 39.92602l75.65668 37.828358l0 93.24248l-75.65668 37.828354l-75.65668 -37.828354l0 -93.24248z" fill-rule="evenodd"/><path fill="#c8a508" d="m605.6381 170.36511l75.65668 37.828354l0 93.24248l-75.65668 37.82834l-75.65668 -37.82834l0 -93.24248z" fill-rule="evenodd"/><path fill="#ffee32" d="m589.8037 174.3375l59.762512 29.881256l0 101.77463l-59.762512 29.881287l-59.762512 -29.881287l0 -101.77463z" fill-rule="evenodd"/><path fill="#ffd100" d="m600.1392 179.40738l50.231995 25.115997l0 101.165375l-50.231995 25.115997l-50.231934 -25.115997l0 -101.165375z" fill-rule="evenodd"/><path fill="#000000" fill-opacity="0.0" d="m605.6381 170.65648l75.65668 37.828354l0 93.24246l-75.65668 37.82837l-75.65668 -37.82837l0 -93.24246z" fill-rule="evenodd"/><path stroke="#000000" stroke-width="8.0" stroke-linejoin="round" stroke-linecap="butt" d="m605.6381 170.65648l75.65668 37.828354l0 93.24246l-75.65668 37.82837l-75.65668 -37.82837l0 -93.24246z" fill-rule="evenodd"/><path fill="#c8a508" d="m74.94458 316.35944l75.65668 37.82834l0 93.24246l-75.65668 37.82837l-75.65668 -37.82837l0 -93.24246z" fill-rule="evenodd"/><path fill="#ffee32" d="m59.110176 320.33182l59.762497 29.881256l0 101.77463l-59.762497 29.881256l-59.7625 -29.881256l0 -101.77463z" fill-rule="evenodd"/><path fill="#ffd100" d="m69.44571 325.4017l50.23197 25.115997l0 101.165375l-50.23197 25.115997l-50.23197 -25.115997l0 -101.165375z" fill-rule="evenodd"/><path fill="#000000" fill-opacity="0.0" d="m74.94458 316.6508l75.65668 37.82837l0 93.24246l-75.65668 37.82837l-75.65668 -37.82837l0 -93.24246z" fill-rule="evenodd"/><path stroke="#000000" stroke-width="8.0" stroke-linejoin="round" stroke-linecap="butt" d="m74.94458 316.6508l75.65668 37.82837l0 93.24246l-75.65668 37.82837l-75.65668 -37.82837l0 -93.24246z" fill-rule="evenodd"/><path fill="#c8a508" d="m156.45567 447.08987l75.65668 37.82837l0 93.24246l-75.65668 37.82837l-75.656685 -37.82837l0 -93.24246z" fill-rule="evenodd"/><path fill="#ffee32" d="m140.62126 451.06226l59.762512 29.881256l0 101.77463l-59.762512 29.881287l-59.762497 -29.881287l0 -101.77463z" fill-rule="evenodd"/><path fill="#ffd100" d="m150.9568 456.13214l50.231964 25.115997l0 101.165375l-50.231964 25.116028l-50.23197 -25.116028l0 -101.165375z" fill-rule="evenodd"/><path fill="#000000" fill-opacity="0.0" d="m156.45567 447.38126l75.65668 37.82834l0 93.24249l-75.65668 37.82837l-75.656685 -37.82837l0 -93.24249z" fill-rule="evenodd"/><path stroke="#000000" stroke-width="8.0" stroke-linejoin="round" stroke-linecap="butt" d="m156.45567 447.38126l75.65668 37.82834l0 93.24249l-75.65668 37.82837l-75.656685 -37.82837l0 -93.24249z" fill-rule="evenodd"/><path fill="#c8a508" d="m834.8538 307.79755l75.65668 37.82837l0 93.24246l-75.65668 37.82837l-75.65668 -37.82837l0 -93.24246z" fill-rule="evenodd"/><path fill="#ffee32" d="m819.0194 311.76993l59.762512 29.881287l0 101.77463l-59.762512 29.881256l-59.76245 -29.881256l0 -101.77463z" fill-rule="evenodd"/><path fill="#ffd100" d="m829.355 316.8398l50.231934 25.115997l0 101.165405l-50.231934 25.115997l-50.231995 -25.115997l0 -101.165405z" fill-rule="evenodd"/><path fill="#000000" fill-opacity="0.0" d="m834.8538 308.08893l75.65668 37.82834l0 93.24249l-75.65668 37.82834l-75.65668 -37.82834l0 -93.24249z" fill-rule="evenodd"/><path stroke="#000000" stroke-width="8.0" stroke-linejoin="round" stroke-linecap="butt" d="m834.8538 308.08893l75.65668 37.82834l0 93.24249l-75.65668 37.82834l-75.65668 -37.82834l0 -93.24249z" fill-rule="evenodd"/><path fill="#c8a508" d="m916.3649 438.528l75.65668 37.82834l0 93.24246l-75.65668 37.82837l-75.65668 -37.82837l0 -93.24246z" fill-rule="evenodd"/><path fill="#ffee32" d="m900.5305 442.5004l59.762512 29.881256l0 101.77466l-59.762512 29.881226l-59.762512 -29.881226l0 -101.77466z" fill-rule="evenodd"/><path fill="#ffd100" d="m910.866 447.57028l50.231995 25.115997l0 101.165405l-50.231995 25.115967l-50.231934 -25.115967l0 -101.165405z" fill-rule="evenodd"/><path fill="#000000" fill-opacity="0.0" d="m916.3649 438.81937l75.65668 37.82837l0 93.24246l-75.65668 37.82837l-75.65668 -37.82837l0 -93.24246z" fill-rule="evenodd"/><path stroke="#000000" stroke-width="8.0" stroke-linejoin="round" stroke-linecap="butt" d="m916.3649 438.81937l75.65668 37.82837l0 93.24246l-75.65668 37.82837l-75.65668 -37.82837l0 -93.24246z" fill-rule="evenodd"/></g></svg>