<svg version="1.1" viewBox="0.0 0.0 481.6010498687664 485.0" fill="none" stroke="none" stroke-linecap="square" stroke-miterlimit="10" xmlns:xlink="http://www.w3.org/1999/xlink" xmlns="http://www.w3.org/2000/svg"><clipPath id="p.0"><path d="m0 0l481.60104 0l0 485.0l-481.60104 0l0 -485.0z" clip-rule="nonzero"/></clipPath><g clip-path="url(#p.0)"><path fill="#000000" fill-opacity="0.0" d="m0 0l481.60104 0l0 485.0l-481.60104 0z" fill-rule="evenodd"/><path fill="#ffee32" d="m357.21213 455.52216l-1.64328 0l0 0c-1.6723633 0 -3.2762146 -0.66433716 -4.4587708 -1.8468933c-1.1825256 -1.1825256 -1.8468933 -2.786377 -1.8468933 -4.45874l0 -98.30411c0 -6.1035156E-5 6.1035156E-5 -1.2207031E-4 1.2207031E-4 -1.2207031E-4l14.254456 1.2207031E-4l0 0c6.1035156E-5 0 1.2207031E-4 6.1035156E-5 1.2207031E-4 1.2207031E-4l-1.2207031E-4 98.303986l0 0c0 3.4825134 -2.82312 6.3056335 -6.3056335 6.3056335z" fill-rule="evenodd"/><path fill="#c8a508" d="m369.07242 456.93726l-4.59433 0l0 0c-2.291626 0 -4.4894104 -0.9103699 -6.1098633 -2.5307922c-1.6204224 -1.6204529 -2.5307617 -3.8182068 -2.5307617 -6.1098633l0 -97.25629c0 -1.2207031E-4 6.1035156E-5 -1.8310547E-4 1.8310547E-4 -1.8310547E-4l21.875397 1.8310547E-4l0 0c1.2207031E-4 0 1.8310547E-4 6.1035156E-5 1.8310547E-4 1.5258789E-4l-1.8310547E-4 97.256134l0 0c0 4.7720947 -3.8685303 8.6406555 -8.640625 8.6406555z" fill-rule="evenodd"/><path fill="#000000" fill-opacity="0.0" d="m365.66843 458.4641l-5.922119 0l0 0c-2.953949 0 -5.7869263 -1.1734314 -7.8756714 -3.262207c-2.088745 -2.088745 -3.262207 -4.9217224 -3.262207 -7.875641l0 -96.818634c0 -1.2207031E-4 1.2207031E-4 -2.4414062E-4 2.4414062E-4 -2.4414062E-4l28.197601 2.4414062E-4l0 0c1.2207031E-4 0 2.4414062E-4 9.1552734E-5 2.4414062E-4 2.4414062E-4l-2.4414062E-4 96.81839l0 0c0 6.1512756 -4.986603 11.137848 -11.137848 11.137848z" fill-rule="evenodd"/><path stroke="#000000" stroke-width="8.0" stroke-linejoin="round" stroke-linecap="butt" d="m365.66843 458.4641l-5.922119 0l0 0c-2.953949 0 -5.7869263 -1.1734314 -7.8756714 -3.262207c-2.088745 -2.088745 -3.262207 -4.9217224 -3.262207 -7.875641l0 -96.818634c0 -1.2207031E-4 1.2207031E-4 -2.4414062E-4 2.4414062E-4 -2.4414062E-4l28.197601 2.4414062E-4l0 0c1.2207031E-4 0 2.4414062E-4 9.1552734E-5 2.4414062E-4 2.4414062E-4l-2.4414062E-4 96.81839l0 0c0 6.1512756 -4.986603 11.137848 -11.137848 11.137848z" fill-rule="evenodd"/><path fill="#ffd100" d="m363.42484 457.41742l-3.6148071 0l0 0c-1.8030701 0 -3.5322876 -0.7162781 -4.807251 -1.9912415c-1.2749634 -1.2749634 -1.9912109 -3.004181 -1.9912109 -4.8072205l0 -99.06464c0 -6.1035156E-5 6.1035156E-5 -1.2207031E-4 1.2207031E-4 -1.2207031E-4l17.211609 1.2207031E-4l0 0c6.1035156E-5 0 1.5258789E-4 9.1552734E-5 1.5258789E-4 1.5258789E-4l-1.5258789E-4 99.06448l0 0c0 3.7546692 -3.0437927 6.798462 -6.798462 6.798462z" fill-rule="evenodd"/><path fill="#c8a508" d="m389.98126 411.78986l-6.3910217 0l0 0c-3.1878357 0 -6.245117 -1.2663574 -8.499237 -3.5205078c-2.2541504 -2.2541199 -3.5205078 -5.3114014 -3.5205078 -8.499237l0 -49.265137c0 -1.2207031E-4 1.2207031E-4 -2.4414062E-4 2.4414062E-4 -2.4414062E-4l30.430237 2.4414062E-4l0 0c1.5258789E-4 0 2.746582E-4 1.2207031E-4 2.746582E-4 2.746582E-4l-2.746582E-4 49.264862l0 0c0 6.638336 -5.3814087 12.019745 -12.019714 12.019745z" fill-rule="evenodd"/><path stroke="#000000" stroke-width="8.0" stroke-linejoin="round" stroke-linecap="butt" d="m389.98126 411.78986l-6.3910217 0l0 0c-3.1878357 0 -6.245117 -1.2663574 -8.499237 -3.5205078c-2.2541504 -2.2541199 -3.5205078 -5.3114014 -3.5205078 -8.499237l0 -49.265137c0 -1.2207031E-4 1.2207031E-4 -2.4414062E-4 2.4414062E-4 -2.4414062E-4l30.430237 2.4414062E-4l0 0c1.5258789E-4 0 2.746582E-4 1.2207031E-4 2.746582E-4 2.746582E-4l-2.746582E-4 49.264862l0 0c0 6.638336 -5.3814087 12.019745 -12.019714 12.019745z" fill-rule="evenodd"/><path fill="#ffd100" d="m377.7425 401.4502l-5.855591 0l0 0c-2.9207764 0 -5.721924 -1.1602783 -7.7872314 -3.225586c-2.0653076 -2.065277 -3.2255554 -4.8664246 -3.2255554 -7.787201l0 -38.99881c0 -1.2207031E-4 9.1552734E-5 -2.4414062E-4 2.1362305E-4 -2.4414062E-4l27.880981 2.4414062E-4l0 0c1.2207031E-4 0 2.1362305E-4 9.1552734E-5 2.1362305E-4 2.4414062E-4l-2.1362305E-4 38.998566l0 0c0 6.082184 -4.930603 11.012787 -11.012817 11.012787z" fill-rule="evenodd"/><path fill="#ffd100" d="m384.08008 409.8453l-3.6858215 0l0 0c-1.838501 0 -3.6016846 -0.7303467 -4.9016724 -2.0303345c-1.3000183 -1.3000183 -2.0303345 -3.063202 -2.0303345 -4.9016724l0 -51.34485c0 -9.1552734E-5 6.1035156E-5 -1.5258789E-4 1.2207031E-4 -1.5258789E-4l17.549713 1.5258789E-4l0 0c9.1552734E-5 0 1.5258789E-4 6.1035156E-5 1.5258789E-4 1.5258789E-4l-1.5258789E-4 51.344696l0 0c0 3.8284302 -3.1035767 6.932007 -6.932007 6.932007z" fill-rule="evenodd"/><path fill="#ffee32" d="m456.28278 340.84576l1.2806702 0l0 0c1.3033447 0 2.5533142 -0.51776123 3.4749146 -1.4393616c0.92160034 -0.92160034 1.439331 -2.1715698 1.439331 -3.4749146l0 -57.919647c0 -6.1035156E-5 -3.0517578E-5 -9.1552734E-5 -9.1552734E-5 -9.1552734E-5l-11.1091 9.1552734E-5l0 0c-3.0517578E-5 0 -9.1552734E-5 3.0517578E-5 -9.1552734E-5 9.1552734E-5l9.1552734E-5 57.919556l0 0c0 2.7140808 2.2001953 4.914276 4.914276 4.914276z" fill-rule="evenodd"/><path fill="#c8a508" d="m447.03955 341.69574l3.580536 0l0 0c1.7859802 0 3.4988098 -0.70947266 4.7616577 -1.9723511c1.2628784 -1.2628784 1.9723511 -2.975708 1.9723511 -4.761688l0 -56.873077c0 -6.1035156E-5 -6.1035156E-5 -1.2207031E-4 -1.2207031E-4 -1.2207031E-4l-17.048462 1.2207031E-4l0 0c-6.1035156E-5 0 -1.2207031E-4 9.1552734E-5 -1.2207031E-4 1.5258789E-4l1.2207031E-4 56.872925l0 0c0 3.7191162 3.014923 6.7340393 6.7340393 6.7340393z" fill-rule="evenodd"/><path fill="#000000" fill-opacity="0.0" d="m449.6924 342.61285l4.6153564 0l0 0c2.3021545 0 4.5099792 -0.91452026 6.137848 -2.542389c1.6278381 -1.6278381 2.5423584 -3.8356934 2.5423584 -6.137848l0 -56.16394c0 -9.1552734E-5 -6.1035156E-5 -1.8310547E-4 -1.8310547E-4 -1.8310547E-4l-21.975586 1.8310547E-4l0 0c-9.1552734E-5 0 -1.8310547E-4 9.1552734E-5 -1.8310547E-4 1.8310547E-4l1.8310547E-4 56.163757l0 0c0 4.793976 3.886261 8.680237 8.680206 8.680237z" fill-rule="evenodd"/><path stroke="#000000" stroke-width="8.0" stroke-linejoin="round" stroke-linecap="butt" d="m449.6924 342.61285l4.6153564 0l0 0c2.3021545 0 4.5099792 -0.91452026 6.137848 -2.542389c1.6278381 -1.6278381 2.5423584 -3.8356934 2.5423584 -6.137848l0 -56.16394c0 -9.1552734E-5 -6.1035156E-5 -1.8310547E-4 -1.8310547E-4 -1.8310547E-4l-21.975586 1.8310547E-4l0 0c-9.1552734E-5 0 -1.8310547E-4 9.1552734E-5 -1.8310547E-4 1.8310547E-4l1.8310547E-4 56.163757l0 0c0 4.793976 3.886261 8.680237 8.680206 8.680237z" fill-rule="evenodd"/><path fill="#ffd100" d="m451.44095 341.98413l2.8171692 0l0 0c1.4052124 0 2.7528687 -0.558197 3.7464905 -1.5518494c0.9936218 -0.9936218 1.5518494 -2.341278 1.5518494 -3.7464905l0 -58.28839c0 -6.1035156E-5 -6.1035156E-5 -1.2207031E-4 -1.2207031E-4 -1.2207031E-4l-13.413727 1.2207031E-4l0 0c-6.1035156E-5 0 -1.2207031E-4 3.0517578E-5 -1.2207031E-4 9.1552734E-5l1.2207031E-4 58.2883l0 0c0 2.9262085 2.3721313 5.29834 5.29834 5.29834z" fill-rule="evenodd"/><path fill="#c8a508" d="m430.7444 314.5779l4.9808044 0l0 0c2.4844055 0 4.8670654 -0.9869385 6.62381 -2.7436829c1.7567444 -1.7567444 2.7436829 -4.1394043 2.7436829 -6.62381l0 -27.443329c0 -9.1552734E-5 -9.1552734E-5 -1.8310547E-4 -2.1362305E-4 -1.8310547E-4l-23.715576 1.8310547E-4l0 0c-1.2207031E-4 0 -2.1362305E-4 9.1552734E-5 -2.1362305E-4 2.1362305E-4l2.1362305E-4 27.443115l0 0c0 5.173523 4.1939697 9.367493 9.367493 9.367493z" fill-rule="evenodd"/><path stroke="#000000" stroke-width="8.0" stroke-linejoin="round" stroke-linecap="butt" d="m430.7444 314.5779l4.9808044 0l0 0c2.4844055 0 4.8670654 -0.9869385 6.62381 -2.7436829c1.7567444 -1.7567444 2.7436829 -4.1394043 2.7436829 -6.62381l0 -27.443329c0 -9.1552734E-5 -9.1552734E-5 -1.8310547E-4 -2.1362305E-4 -1.8310547E-4l-23.715576 1.8310547E-4l0 0c-1.2207031E-4 0 -2.1362305E-4 9.1552734E-5 -2.1362305E-4 2.1362305E-4l2.1362305E-4 27.443115l0 0c0 5.173523 4.1939697 9.367493 9.367493 9.367493z" fill-rule="evenodd"/><path fill="#ffd100" d="m440.28256 308.36737l4.5635376 0l0 0c2.2762756 0 4.45932 -0.90423584 6.0689087 -2.5138245c1.6095581 -1.6095581 2.5138245 -3.7926025 2.5138245 -6.0689087l0 -21.456757c0 -9.1552734E-5 -9.1552734E-5 -1.8310547E-4 -1.8310547E-4 -1.8310547E-4l-21.72882 1.8310547E-4l0 0c-1.2207031E-4 0 -1.8310547E-4 9.1552734E-5 -1.8310547E-4 1.8310547E-4l1.8310547E-4 21.456573l0 0c0 4.7401123 3.8426208 8.582733 8.582733 8.582733z" fill-rule="evenodd"/><path fill="#ffd100" d="m435.3434 313.4099l2.872528 0l0 0c1.4328003 0 2.8069458 -0.56918335 3.8200989 -1.5823364c1.0131226 -1.0131531 1.5823059 -2.387268 1.5823059 -3.8200684l0 -29.601624c0 -6.1035156E-5 -3.0517578E-5 -1.2207031E-4 -9.1552734E-5 -1.2207031E-4l-13.677246 1.2207031E-4l0 0c-6.1035156E-5 0 -1.2207031E-4 3.0517578E-5 -1.2207031E-4 9.1552734E-5l1.2207031E-4 29.601532l0 0c0 2.983673 2.4187317 5.402405 5.402405 5.402405z" fill-rule="evenodd"/><path fill="#ffee32" d="m106.89191 474.614l-1.6432724 0l0 0c-1.6723557 0 -3.2762222 -0.66433716 -4.458763 -1.8468628c-1.1825409 -1.1825562 -1.8468857 -2.7864075 -1.8468857 -4.4587708l0 -98.30411c0 -6.1035156E-5 5.340576E-5 -9.1552734E-5 1.2207031E-4 -9.1552734E-5l14.254448 9.1552734E-5l0 0c6.1035156E-5 0 1.1444092E-4 6.1035156E-5 1.1444092E-4 1.2207031E-4l-1.1444092E-4 98.303986l0 0c0 3.4825134 -2.8231354 6.3056335 -6.305649 6.3056335z" fill-rule="evenodd"/><path fill="#c8a508" d="m118.7522 476.0291l-4.5943146 0l0 0c-2.2916412 0 -4.4894257 -0.9103699 -6.1098557 -2.5307922c-1.6204376 -1.6204224 -2.5307846 -3.8182068 -2.5307846 -6.1098633l0 -97.25629c0 -1.2207031E-4 7.6293945E-5 -1.8310547E-4 1.7547607E-4 -1.8310547E-4l21.875427 1.8310547E-4l0 0c9.918213E-5 0 1.8310547E-4 6.1035156E-5 1.8310547E-4 1.8310547E-4l-1.8310547E-4 97.2561l0 0c0 4.7720947 -3.8685532 8.6406555 -8.640648 8.6406555z" fill-rule="evenodd"/><path fill="#000000" fill-opacity="0.0" d="m115.348206 477.55597l-5.9221115 0l0 0c-2.953949 0 -5.786911 -1.1734314 -7.8756638 -3.262207c-2.0887527 -2.088745 -3.262207 -4.921692 -3.262207 -7.875641l0 -96.818634c0 -1.2207031E-4 1.0681152E-4 -2.4414062E-4 2.3651123E-4 -2.4414062E-4l28.197609 2.4414062E-4l0 0c1.296997E-4 0 2.3651123E-4 1.2207031E-4 2.3651123E-4 2.4414062E-4l-2.3651123E-4 96.81839l0 0c0 6.1512756 -4.986595 11.137848 -11.137863 11.137848z" fill-rule="evenodd"/><path stroke="#000000" stroke-width="8.0" stroke-linejoin="round" stroke-linecap="butt" d="m115.348206 477.55597l-5.9221115 0l0 0c-2.953949 0 -5.786911 -1.1734314 -7.8756638 -3.262207c-2.0887527 -2.088745 -3.262207 -4.921692 -3.262207 -7.875641l0 -96.818634c0 -1.2207031E-4 1.0681152E-4 -2.4414062E-4 2.3651123E-4 -2.4414062E-4l28.197609 2.4414062E-4l0 0c1.296997E-4 0 2.3651123E-4 1.2207031E-4 2.3651123E-4 2.4414062E-4l-2.3651123E-4 96.81839l0 0c0 6.1512756 -4.986595 11.137848 -11.137863 11.137848z" fill-rule="evenodd"/><path fill="#ffd100" d="m113.104614 476.50928l-3.6148071 0l0 0c-1.8030624 0 -3.53228 -0.7162781 -4.8072433 -1.9912415c-1.2749557 -1.2749329 -1.9912186 -3.0041504 -1.9912186 -4.8072205l0 -99.064606c0 -9.1552734E-5 6.1035156E-5 -1.5258789E-4 1.373291E-4 -1.5258789E-4l17.211601 1.5258789E-4l0 0c7.6293945E-5 0 1.449585E-4 6.1035156E-5 1.449585E-4 1.2207031E-4l-1.449585E-4 99.06448l0 0c0 3.7546692 -3.0437775 6.798462 -6.7984695 6.798462z" fill-rule="evenodd"/><path fill="#c8a508" d="m139.66104 430.8817l-6.3910065 0l0 0c-3.1878357 0 -6.2451096 -1.2663574 -8.499245 -3.5205078c-2.2541351 -2.2541199 -3.5205002 -5.3114014 -3.5205002 -8.499237l0 -49.265106c0 -1.5258789E-4 1.1444092E-4 -2.746582E-4 2.5177002E-4 -2.746582E-4l30.43023 2.746582E-4l0 0c1.5258789E-4 0 2.593994E-4 9.1552734E-5 2.593994E-4 2.4414062E-4l-2.593994E-4 49.264862l0 0c0 6.638336 -5.3814087 12.019745 -12.01973 12.019745z" fill-rule="evenodd"/><path stroke="#000000" stroke-width="8.0" stroke-linejoin="round" stroke-linecap="butt" d="m139.66104 430.8817l-6.3910065 0l0 0c-3.1878357 0 -6.2451096 -1.2663574 -8.499245 -3.5205078c-2.2541351 -2.2541199 -3.5205002 -5.3114014 -3.5205002 -8.499237l0 -49.265106c0 -1.5258789E-4 1.1444092E-4 -2.746582E-4 2.5177002E-4 -2.746582E-4l30.43023 2.746582E-4l0 0c1.5258789E-4 0 2.593994E-4 9.1552734E-5 2.593994E-4 2.4414062E-4l-2.593994E-4 49.264862l0 0c0 6.638336 -5.3814087 12.019745 -12.01973 12.019745z" fill-rule="evenodd"/><path fill="#ffd100" d="m127.422295 420.54205l-5.855606 0l0 0c-2.9207764 0 -5.721924 -1.1602783 -7.787224 -3.2255554c-2.0653 -2.0653076 -3.2255707 -4.866455 -3.2255707 -7.7872314l0 -38.99881c0 -1.2207031E-4 9.918213E-5 -2.1362305E-4 2.2888184E-4 -2.1362305E-4l27.880966 2.1362305E-4l0 0c1.2207031E-4 0 2.2888184E-4 1.2207031E-4 2.2888184E-4 2.4414062E-4l-2.2888184E-4 38.998566l0 0c0 6.082184 -4.930603 11.012787 -11.0127945 11.012787z" fill-rule="evenodd"/><path fill="#ffd100" d="m133.75986 428.93716l-3.6858063 0l0 0c-1.8384857 0 -3.601677 -0.73031616 -4.9016876 -2.0303345c-1.300003 -1.3000183 -2.030342 -3.063202 -2.030342 -4.9016724l0 -51.34485c0 -6.1035156E-5 6.866455E-5 -1.5258789E-4 1.5258789E-4 -1.5258789E-4l17.549706 1.5258789E-4l0 0c9.1552734E-5 0 1.5258789E-4 6.1035156E-5 1.5258789E-4 1.5258789E-4l-1.5258789E-4 51.344696l0 0c0 3.8284302 -3.1035614 6.932007 -6.932022 6.932007z" fill-rule="evenodd"/><path fill="#c8a508" d="m43.48525 13.766493l31.560436 15.780226l0 37.561375l-31.560436 15.780228l-31.560436 -15.780228l0 -37.561375z" fill-rule="evenodd"/><path fill="#ffee32" d="m36.879875 15.392188l24.930126 12.46507l0 41.178783l-24.930126 12.465073l-24.930128 -12.465073l0 -41.178783z" fill-rule="evenodd"/><path fill="#ffd100" d="m41.191376 17.467035l20.954437 10.477222l0 41.004784l-20.954437 10.477226l-20.954433 -10.477226l0 -41.004784z" fill-rule="evenodd"/><path fill="#000000" fill-opacity="0.0" d="m43.48525 13.885737l31.560436 15.780225l0 37.56138l-31.560436 15.78022l-31.560436 -15.78022l0 -37.56138z" fill-rule="evenodd"/><path stroke="#000000" stroke-width="8.0" stroke-linejoin="round" stroke-linecap="butt" d="m43.48525 13.885737l31.560436 15.780225l0 37.56138l-31.560436 15.78022l-31.560436 -15.78022l0 -37.56138z" fill-rule="evenodd"/><path fill="#c8a508" d="m77.48787 67.26781l31.56044 15.78022l0 37.56138l-31.56044 15.780228l-31.560432 -15.780228l0 -37.56138z" fill-rule="evenodd"/><path fill="#ffee32" d="m70.8825 68.8935l24.930122 12.465065l0 41.178787l-24.930122 12.465073l-24.930126 -12.465073l0 -41.178787z" fill-rule="evenodd"/><path fill="#ffd100" d="m75.194 70.968346l20.954437 10.477226l0 41.004784l-20.954437 10.477226l-20.954433 -10.477226l0 -41.004784z" fill-rule="evenodd"/><path fill="#000000" fill-opacity="0.0" d="m77.48787 67.38705l31.56044 15.780228l0 37.56138l-31.56044 15.780228l-31.560432 -15.780228l0 -37.56138z" fill-rule="evenodd"/><path stroke="#000000" stroke-width="8.0" stroke-linejoin="round" stroke-linecap="butt" d="m77.48787 67.38705l31.56044 15.780228l0 37.56138l-31.56044 15.780228l-31.560432 -15.780228l0 -37.56138z" fill-rule="evenodd"/><path fill="#c8a508" d="m107.98393 13.766493l31.56044 15.780226l0 37.561375l-31.56044 15.780228l-31.560432 -15.780228l0 -37.561375z" fill-rule="evenodd"/><path fill="#ffee32" d="m101.37856 15.392188l24.930122 12.46507l0 41.178783l-24.930122 12.465073l-24.93013 -12.465073l0 -41.178783z" fill-rule="evenodd"/><path fill="#ffd100" d="m105.69006 17.467035l20.954437 10.477222l0 41.004784l-20.954437 10.477226l-20.95443 -10.477226l0 -41.004784z" fill-rule="evenodd"/><path fill="#000000" fill-opacity="0.0" d="m107.98393 13.885737l31.56044 15.780225l0 37.56138l-31.56044 15.78022l-31.560432 -15.78022l0 -37.56138z" fill-rule="evenodd"/><path stroke="#000000" stroke-width="8.0" stroke-linejoin="round" stroke-linecap="butt" d="m107.98393 13.885737l31.56044 15.780225l0 37.56138l-31.56044 15.78022l-31.560432 -15.78022l0 -37.56138z" fill-rule="evenodd"/><path fill="#c8a508" d="m141.98656 67.26781l31.56044 15.78022l0 37.56138l-31.56044 15.780228l-31.560432 -15.780228l0 -37.56138z" fill-rule="evenodd"/><path fill="#ffee32" d="m135.38118 68.8935l24.93013 12.465065l0 41.178787l-24.93013 12.465073l-24.930122 -12.465073l0 -41.178787z" fill-rule="evenodd"/><path fill="#ffd100" d="m139.69269 70.968346l20.954437 10.477226l0 41.004784l-20.954437 10.477226l-20.95443 -10.477226l0 -41.004784z" fill-rule="evenodd"/><path fill="#000000" fill-opacity="0.0" d="m141.98656 67.38705l31.56044 15.780228l0 37.56138l-31.56044 15.780228l-31.560432 -15.780228l0 -37.56138z" fill-rule="evenodd"/><path stroke="#000000" stroke-width="8.0" stroke-linejoin="round" stroke-linecap="butt" d="m141.98656 67.38705l31.56044 15.780228l0 37.56138l-31.56044 15.780228l-31.560432 -15.780228l0 -37.56138z" fill-rule="evenodd"/><path fill="#c8a508" d="m176.48524 120.26518l31.56044 15.780228l0 37.56137l-31.56044 15.780228l-31.56044 -15.780228l0 -37.56137z" fill-rule="evenodd"/><path fill="#ffee32" d="m169.87987 121.89088l24.93013 12.465065l0 41.178787l-24.93013 12.465073l-24.930115 -12.465073l0 -41.178787z" fill-rule="evenodd"/><path fill="#ffd100" d="m174.19138 123.96572l20.954437 10.477226l0 41.00479l-20.954437 10.477219l-20.954437 -10.477219l0 -41.00479z" fill-rule="evenodd"/><path fill="#000000" fill-opacity="0.0" d="m176.48524 120.38442l31.56044 15.780235l0 37.56137l-31.56044 15.780228l-31.56044 -15.780228l0 -37.56137z" fill-rule="evenodd"/><path stroke="#000000" stroke-width="8.0" stroke-linejoin="round" stroke-linecap="butt" d="m176.48524 120.38442l31.56044 15.780235l0 37.56137l-31.56044 15.780228l-31.56044 -15.780228l0 -37.56137z" fill-rule="evenodd"/><path fill="#c8a508" d="m210.48787 173.7665l31.56044 15.780228l0 37.56137l-31.56044 15.780228l-31.56044 -15.780228l0 -37.56137z" fill-rule="evenodd"/><path fill="#ffee32" d="m203.88249 175.39218l24.93013 12.465073l0 41.178787l-24.93013 12.465073l-24.930115 -12.465073l0 -41.178787z" fill-rule="evenodd"/><path fill="#ffd100" d="m208.194 177.46704l20.954437 10.477219l0 41.00479l-20.954437 10.477219l-20.954437 -10.477219l0 -41.00479z" fill-rule="evenodd"/><path fill="#000000" fill-opacity="0.0" d="m210.48787 173.88574l31.56044 15.780228l0 37.56137l-31.56044 15.780228l-31.56044 -15.780228l0 -37.56137z" fill-rule="evenodd"/><path stroke="#000000" stroke-width="8.0" stroke-linejoin="round" stroke-linecap="butt" d="m210.48787 173.88574l31.56044 15.780228l0 37.56137l-31.56044 15.780228l-31.56044 -15.780228l0 -37.56137z" fill-rule="evenodd"/><path fill="#c8a508" d="m240.98393 120.26518l31.56044 15.780228l0 37.56137l-31.56044 15.780228l-31.56044 -15.780228l0 -37.56137z" fill-rule="evenodd"/><path fill="#ffee32" d="m234.37856 121.89088l24.93013 12.465065l0 41.178787l-24.93013 12.465073l-24.930115 -12.465073l0 -41.178787z" fill-rule="evenodd"/><path fill="#ffd100" d="m238.69006 123.96572l20.954437 10.477226l0 41.00479l-20.954437 10.477219l-20.954437 -10.477219l0 -41.00479z" fill-rule="evenodd"/><path fill="#000000" fill-opacity="0.0" d="m240.98393 120.38442l31.56044 15.780235l0 37.56137l-31.56044 15.780228l-31.56044 -15.780228l0 -37.56137z" fill-rule="evenodd"/><path stroke="#000000" stroke-width="8.0" stroke-linejoin="round" stroke-linecap="butt" d="m240.98393 120.38442l31.56044 15.780235l0 37.56137l-31.56044 15.780228l-31.56044 -15.780228l0 -37.56137z" fill-rule="evenodd"/><path fill="#c8a508" d="m274.98657 173.7665l31.560425 15.780228l0 37.56137l-31.560425 15.780228l-31.560455 -15.780228l0 -37.56137z" fill-rule="evenodd"/><path fill="#ffee32" d="m268.3812 175.39218l24.930115 12.465073l0 41.178787l-24.930115 12.465073l-24.93013 -12.465073l0 -41.178787z" fill-rule="evenodd"/><path fill="#ffd100" d="m272.6927 177.46704l20.954437 10.477219l0 41.00479l-20.954437 10.477219l-20.954437 -10.477219l0 -41.00479z" fill-rule="evenodd"/><path fill="#000000" fill-opacity="0.0" d="m274.98657 173.88574l31.560425 15.780228l0 37.56137l-31.560425 15.780228l-31.560455 -15.780228l0 -37.56137z" fill-rule="evenodd"/><path stroke="#000000" stroke-width="8.0" stroke-linejoin="round" stroke-linecap="butt" d="m274.98657 173.88574l31.560425 15.780228l0 37.56137l-31.560425 15.780228l-31.560455 -15.780228l0 -37.56137z" fill-rule="evenodd"/><path fill="#c8a508" d="m172.98524 11.265181l31.56044 15.780226l0 37.561375l-31.56044 15.780228l-31.56044 -15.780228l0 -37.561375z" fill-rule="evenodd"/><path fill="#ffee32" d="m166.37987 12.890875l24.93013 12.465069l0 41.178787l-24.93013 12.465073l-24.930115 -12.465073l0 -41.178787z" fill-rule="evenodd"/><path fill="#ffd100" d="m170.69138 14.965723l20.954437 10.477222l0 41.004784l-20.954437 10.477226l-20.954437 -10.477226l0 -41.004784z" fill-rule="evenodd"/><path fill="#000000" fill-opacity="0.0" d="m172.98524 11.384425l31.56044 15.780225l0 37.56138l-31.56044 15.78022l-31.56044 -15.78022l0 -37.56138z" fill-rule="evenodd"/><path stroke="#000000" stroke-width="8.0" stroke-linejoin="round" stroke-linecap="butt" d="m172.98524 11.384425l31.56044 15.780225l0 37.56138l-31.56044 15.78022l-31.56044 -15.78022l0 -37.56138z" fill-rule="evenodd"/><path fill="#c8a508" d="m206.98787 64.766495l31.56044 15.78022l0 37.56138l-31.56044 15.780228l-31.56044 -15.780228l0 -37.56138z" fill-rule="evenodd"/><path fill="#ffee32" d="m200.38249 66.39219l24.93013 12.465065l0 41.178787l-24.93013 12.465073l-24.930115 -12.465073l0 -41.178787z" fill-rule="evenodd"/><path fill="#ffd100" d="m204.694 68.46703l20.954437 10.477226l0 41.004784l-20.954437 10.477226l-20.954437 -10.477226l0 -41.004784z" fill-rule="evenodd"/><path fill="#000000" fill-opacity="0.0" d="m206.98787 64.885735l31.56044 15.780228l0 37.56138l-31.56044 15.780228l-31.56044 -15.780228l0 -37.56138z" fill-rule="evenodd"/><path stroke="#000000" stroke-width="8.0" stroke-linejoin="round" stroke-linecap="butt" d="m206.98787 64.885735l31.56044 15.780228l0 37.56138l-31.56044 15.780228l-31.56044 -15.780228l0 -37.56138z" fill-rule="evenodd"/><path fill="#c8a508" d="m302.48657 117.76387l31.560425 15.780228l0 37.56137l-31.560425 15.780228l-31.560455 -15.780228l0 -37.56137z" fill-rule="evenodd"/><path fill="#ffee32" d="m295.8812 119.389565l24.930115 12.465065l0 41.178787l-24.930115 12.465073l-24.930145 -12.465073l0 -41.178787z" fill-rule="evenodd"/><path fill="#ffd100" d="m300.1927 121.46441l20.954437 10.477226l0 41.00479l-20.954437 10.477219l-20.954437 -10.477219l0 -41.00479z" fill-rule="evenodd"/><path fill="#000000" fill-opacity="0.0" d="m302.48657 117.88311l31.560425 15.780235l0 37.56137l-31.560425 15.780228l-31.560455 -15.780228l0 -37.56137z" fill-rule="evenodd"/><path stroke="#000000" stroke-width="8.0" stroke-linejoin="round" stroke-linecap="butt" d="m302.48657 117.88311l31.560425 15.780235l0 37.56137l-31.560425 15.780228l-31.560455 -15.780228l0 -37.56137z" fill-rule="evenodd"/><path fill="#c8a508" d="m336.4892 171.26518l31.560425 15.780228l0 37.56137l-31.560425 15.780228l-31.560455 -15.780228l0 -37.56137z" fill-rule="evenodd"/><path fill="#ffee32" d="m329.88382 172.89087l24.930115 12.465073l0 41.178787l-24.930115 12.465073l-24.930145 -12.465073l0 -41.178787z" fill-rule="evenodd"/><path fill="#ffd100" d="m334.1953 174.96573l20.954437 10.477219l0 41.00479l-20.954437 10.477219l-20.954437 -10.477219l0 -41.00479z" fill-rule="evenodd"/><path fill="#000000" fill-opacity="0.0" d="m336.4892 171.38443l31.560425 15.780228l0 37.56137l-31.560425 15.780228l-31.560455 -15.780228l0 -37.56137z" fill-rule="evenodd"/><path stroke="#000000" stroke-width="8.0" stroke-linejoin="round" stroke-linecap="butt" d="m336.4892 171.38443l31.560425 15.780228l0 37.56137l-31.560425 15.780228l-31.560455 -15.780228l0 -37.56137z" fill-rule="evenodd"/><path fill="#c8a508" d="m146.10861 175.26518l31.560425 15.780228l0 37.56137l-31.560425 15.780228l-31.56044 -15.780228l0 -37.56137z" fill-rule="evenodd"/><path fill="#ffee32" d="m139.50323 176.89087l24.93013 12.465073l0 41.178787l-24.93013 12.465073l-24.93013 -12.465073l0 -41.178787z" fill-rule="evenodd"/><path fill="#ffd100" d="m143.81474 178.96573l20.954422 10.477219l0 41.00479l-20.954422 10.477219l-20.954437 -10.477219l0 -41.00479z" fill-rule="evenodd"/><path fill="#000000" fill-opacity="0.0" d="m146.10861 175.38443l31.560425 15.780228l0 37.56137l-31.560425 15.780228l-31.56044 -15.780228l0 -37.56137z" fill-rule="evenodd"/><path stroke="#000000" stroke-width="8.0" stroke-linejoin="round" stroke-linecap="butt" d="m146.10861 175.38443l31.560425 15.780228l0 37.56137l-31.560425 15.780228l-31.56044 -15.780228l0 -37.56137z" fill-rule="evenodd"/><path fill="#c8a508" d="m180.11124 228.7665l31.560425 15.780228l0 37.56137l-31.560425 15.780212l-31.56044 -15.780212l0 -37.56137z" fill-rule="evenodd"/><path fill="#ffee32" d="m173.50586 230.39218l24.93013 12.465073l0 41.178787l-24.93013 12.465057l-24.93013 -12.465057l0 -41.178787z" fill-rule="evenodd"/><path fill="#ffd100" d="m177.81737 232.46704l20.954422 10.477219l0 41.004776l-20.954422 10.477234l-20.954437 -10.477234l0 -41.004776z" fill-rule="evenodd"/><path fill="#000000" fill-opacity="0.0" d="m180.11124 228.88574l31.560425 15.780228l0 37.561356l-31.560425 15.780243l-31.56044 -15.780243l0 -37.561356z" fill-rule="evenodd"/><path stroke="#000000" stroke-width="8.0" stroke-linejoin="round" stroke-linecap="butt" d="m180.11124 228.88574l31.560425 15.780228l0 37.561356l-31.560425 15.780243l-31.56044 -15.780243l0 -37.561356z" fill-rule="evenodd"/><path fill="#c8a508" d="m308.98526 227.76125l31.560425 15.780228l0 37.56137l-31.560425 15.780212l-31.560455 -15.780212l0 -37.56137z" fill-rule="evenodd"/><path fill="#ffee32" d="m302.37988 229.38693l24.930115 12.465073l0 41.178787l-24.930115 12.465057l-24.930145 -12.465057l0 -41.178787z" fill-rule="evenodd"/><path fill="#ffd100" d="m306.69138 231.46179l20.954437 10.477219l0 41.004776l-20.954437 10.477234l-20.954437 -10.477234l0 -41.004776z" fill-rule="evenodd"/><path fill="#000000" fill-opacity="0.0" d="m308.98526 227.8805l31.560425 15.780212l0 37.56137l-31.560425 15.780243l-31.560455 -15.780243l0 -37.56137z" fill-rule="evenodd"/><path stroke="#000000" stroke-width="8.0" stroke-linejoin="round" stroke-linecap="butt" d="m308.98526 227.8805l31.560425 15.780212l0 37.56137l-31.560425 15.780243l-31.560455 -15.780243l0 -37.56137z" fill-rule="evenodd"/><path fill="#c8a508" d="m342.98788 281.26254l31.560425 15.780243l0 37.56137l-31.560425 15.780212l-31.560455 -15.780212l0 -37.56137z" fill-rule="evenodd"/><path fill="#ffee32" d="m336.3825 282.88824l24.930115 12.465088l0 41.178772l-24.930115 12.465057l-24.930145 -12.465057l0 -41.178772z" fill-rule="evenodd"/><path fill="#ffd100" d="m340.694 284.9631l20.954437 10.477203l0 41.00479l-20.954437 10.477234l-20.954437 -10.477234l0 -41.00479z" fill-rule="evenodd"/><path fill="#000000" fill-opacity="0.0" d="m342.98788 281.3818l31.560425 15.780212l0 37.56137l-31.560425 15.780243l-31.560455 -15.780243l0 -37.56137z" fill-rule="evenodd"/><path stroke="#000000" stroke-width="8.0" stroke-linejoin="round" stroke-linecap="butt" d="m342.98788 281.3818l31.560425 15.780212l0 37.56137l-31.560425 15.780243l-31.560455 -15.780243l0 -37.56137z" fill-rule="evenodd"/><path fill="#c8a508" d="m149.11124 281.26254l31.560425 15.780243l0 37.56137l-31.560425 15.780212l-31.56044 -15.780212l0 -37.56137z" fill-rule="evenodd"/><path fill="#ffee32" d="m142.50586 282.88824l24.93013 12.465088l0 41.178772l-24.93013 12.465057l-24.93013 -12.465057l0 -41.178772z" fill-rule="evenodd"/><path fill="#ffd100" d="m146.81737 284.9631l20.954422 10.477203l0 41.00479l-20.954422 10.477234l-20.954437 -10.477234l0 -41.00479z" fill-rule="evenodd"/><path fill="#000000" fill-opacity="0.0" d="m149.11124 281.3818l31.560425 15.780212l0 37.56137l-31.560425 15.780243l-31.56044 -15.780243l0 -37.56137z" fill-rule="evenodd"/><path stroke="#000000" stroke-width="8.0" stroke-linejoin="round" stroke-linecap="butt" d="m149.11124 281.3818l31.560425 15.780212l0 37.56137l-31.560425 15.780243l-31.56044 -15.780243l0 -37.56137z" fill-rule="evenodd"/><path fill="#c8a508" d="m115.108604 227.76125l31.560432 15.780228l0 37.56137l-31.560432 15.780212l-31.560432 -15.780212l0 -37.56137z" fill-rule="evenodd"/><path fill="#ffee32" d="m108.503235 229.38693l24.93013 12.465073l0 41.178787l-24.93013 12.465057l-24.93013 -12.465057l0 -41.178787z" fill-rule="evenodd"/><path fill="#ffd100" d="m112.814735 231.46179l20.95443 10.477219l0 41.004776l-20.95443 10.477234l-20.95443 -10.477234l0 -41.004776z" fill-rule="evenodd"/><path fill="#000000" fill-opacity="0.0" d="m115.108604 227.8805l31.560432 15.780212l0 37.56137l-31.560432 15.780243l-31.560432 -15.780243l0 -37.56137z" fill-rule="evenodd"/><path stroke="#000000" stroke-width="8.0" stroke-linejoin="round" stroke-linecap="butt" d="m115.108604 227.8805l31.560432 15.780212l0 37.56137l-31.560432 15.780243l-31.560432 -15.780243l0 -37.56137z" fill-rule="evenodd"/><path fill="#c8a508" d="m336.4905 171.26518l31.560425 15.780228l0 37.56137l-31.560425 15.780228l-31.560455 -15.780228l0 -37.56137z" fill-rule="evenodd"/><path fill="#ffee32" d="m329.88513 172.89087l24.930115 12.465073l0 41.178787l-24.930115 12.465073l-24.930145 -12.465073l0 -41.178787z" fill-rule="evenodd"/><path fill="#ffd100" d="m334.19662 174.96573l20.954437 10.477219l0 41.00479l-20.954437 10.477219l-20.954437 -10.477219l0 -41.00479z" fill-rule="evenodd"/><path fill="#000000" fill-opacity="0.0" d="m336.4905 171.38443l31.560425 15.780228l0 37.56137l-31.560425 15.780228l-31.560455 -15.780228l0 -37.56137z" fill-rule="evenodd"/><path stroke="#000000" stroke-width="8.0" stroke-linejoin="round" stroke-linecap="butt" d="m336.4905 171.38443l31.560425 15.780228l0 37.56137l-31.560425 15.780228l-31.560455 -15.780228l0 -37.56137z" fill-rule="evenodd"/><path fill="#c8a508" d="m302.48788 117.76387l31.560425 15.780228l0 37.56137l-31.560425 15.780228l-31.560455 -15.780228l0 -37.56137z" fill-rule="evenodd"/><path fill="#ffee32" d="m295.8825 119.389565l24.930115 12.465065l0 41.178787l-24.930115 12.465073l-24.930145 -12.465073l0 -41.178787z" fill-rule="evenodd"/><path fill="#ffd100" d="m300.194 121.46441l20.954437 10.477226l0 41.00479l-20.954437 10.477219l-20.954437 -10.477219l0 -41.00479z" fill-rule="evenodd"/><path fill="#000000" fill-opacity="0.0" d="m302.48788 117.88311l31.560425 15.780235l0 37.56137l-31.560425 15.780228l-31.560455 -15.780228l0 -37.56137z" fill-rule="evenodd"/><path stroke="#000000" stroke-width="8.0" stroke-linejoin="round" stroke-linecap="butt" d="m302.48788 117.88311l31.560425 15.780235l0 37.56137l-31.560425 15.780228l-31.560455 -15.780228l0 -37.56137z" fill-rule="evenodd"/><path fill="#c8a508" d="m336.4892 64.766495l31.560425 15.78022l0 37.56138l-31.560425 15.780228l-31.560455 -15.780228l0 -37.56138z" fill-rule="evenodd"/><path fill="#ffee32" d="m329.88382 66.39219l24.930115 12.465065l0 41.178787l-24.930115 12.465073l-24.930145 -12.465073l0 -41.178787z" fill-rule="evenodd"/><path fill="#ffd100" d="m334.1953 68.46703l20.954437 10.477226l0 41.004784l-20.954437 10.477226l-20.954437 -10.477226l0 -41.004784z" fill-rule="evenodd"/><path fill="#000000" fill-opacity="0.0" d="m336.4892 64.885735l31.560425 15.780228l0 37.56138l-31.560425 15.780228l-31.560455 -15.780228l0 -37.56138z" fill-rule="evenodd"/><path stroke="#000000" stroke-width="8.0" stroke-linejoin="round" stroke-linecap="butt" d="m336.4892 64.885735l31.560425 15.780228l0 37.56138l-31.560425 15.780228l-31.560455 -15.780228l0 -37.56138z" fill-rule="evenodd"/><path fill="#c8a508" d="m302.48657 11.265181l31.560425 15.780226l0 37.561375l-31.560425 15.780228l-31.560455 -15.780228l0 -37.561375z" fill-rule="evenodd"/><path fill="#ffee32" d="m295.8812 12.890875l24.930115 12.465069l0 41.178787l-24.930115 12.465073l-24.930145 -12.465073l0 -41.178787z" fill-rule="evenodd"/><path fill="#ffd100" d="m300.1927 14.965723l20.954437 10.477222l0 41.004784l-20.954437 10.477226l-20.954437 -10.477226l0 -41.004784z" fill-rule="evenodd"/><path fill="#000000" fill-opacity="0.0" d="m302.48657 11.384425l31.560425 15.780225l0 37.56138l-31.560425 15.78022l-31.560455 -15.78022l0 -37.56138z" fill-rule="evenodd"/><path stroke="#000000" stroke-width="8.0" stroke-linejoin="round" stroke-linecap="butt" d="m302.48657 11.384425l31.560425 15.780225l0 37.56138l-31.560425 15.78022l-31.560455 -15.78022l0 -37.56138z" fill-rule="evenodd"/><path fill="#c8a508" d="m372.1086 331.26517l31.560425 15.780243l0 37.56137l-31.560425 15.780212l-31.560455 -15.780212l0 -37.56137z" fill-rule="evenodd"/><path fill="#ffee32" d="m365.50323 332.89087l24.930115 12.465088l0 41.178772l-24.930115 12.465057l-24.930115 -12.465057l0 -41.178772z" fill-rule="evenodd"/><path fill="#ffd100" d="m369.81473 334.96573l20.954437 10.477203l0 41.00479l-20.954437 10.477234l-20.954437 -10.477234l0 -41.00479z" fill-rule="evenodd"/><path fill="#000000" fill-opacity="0.0" d="m372.1086 331.38443l31.560425 15.780212l0 37.56137l-31.560425 15.780243l-31.560455 -15.780243l0 -37.56137z" fill-rule="evenodd"/><path stroke="#000000" stroke-width="8.0" stroke-linejoin="round" stroke-linecap="butt" d="m372.1086 331.38443l31.560425 15.780212l0 37.56137l-31.560425 15.780243l-31.560455 -15.780243l0 -37.56137z" fill-rule="evenodd"/><path fill="#c8a508" d="m338.106 277.76385l31.560425 15.780243l0 37.56137l-31.560425 15.780212l-31.560455 -15.780212l0 -37.56137z" fill-rule="evenodd"/><path fill="#ffee32" d="m331.5006 279.38956l24.930115 12.465088l0 41.178772l-24.930115 12.465057l-24.930115 -12.465057l0 -41.178772z" fill-rule="evenodd"/><path fill="#ffd100" d="m335.8121 281.46442l20.954437 10.477203l0 41.00479l-20.954437 10.477234l-20.954437 -10.477234l0 -41.00479z" fill-rule="evenodd"/><path fill="#000000" fill-opacity="0.0" d="m338.106 277.88312l31.560425 15.780212l0 37.56137l-31.560425 15.780243l-31.560455 -15.780243l0 -37.56137z" fill-rule="evenodd"/><path stroke="#000000" stroke-width="8.0" stroke-linejoin="round" stroke-linecap="butt" d="m338.106 277.88312l31.560425 15.780212l0 37.56137l-31.560425 15.780243l-31.560455 -15.780243l0 -37.56137z" fill-rule="evenodd"/><path fill="#c8a508" d="m79.36057 175.26518l31.56044 15.780228l0 37.56137l-31.56044 15.780228l-31.560432 -15.780228l0 -37.56137z" fill-rule="evenodd"/><path fill="#ffee32" d="m72.7552 176.89087l24.930122 12.465073l0 41.178787l-24.930122 12.465073l-24.93013 -12.465073l0 -41.178787z" fill-rule="evenodd"/><path fill="#ffd100" d="m77.0667 178.96573l20.954437 10.477219l0 41.00479l-20.954437 10.477219l-20.954433 -10.477219l0 -41.00479z" fill-rule="evenodd"/><path fill="#000000" fill-opacity="0.0" d="m79.36057 175.38443l31.56044 15.780228l0 37.56137l-31.56044 15.780228l-31.560432 -15.780228l0 -37.56137z" fill-rule="evenodd"/><path stroke="#000000" stroke-width="8.0" stroke-linejoin="round" stroke-linecap="butt" d="m79.36057 175.38443l31.56044 15.780228l0 37.56137l-31.56044 15.780228l-31.560432 -15.780228l0 -37.56137z" fill-rule="evenodd"/><path fill="#c8a508" d="m113.3632 228.7665l31.560432 15.780228l0 37.56137l-31.560432 15.780212l-31.560432 -15.780212l0 -37.56137z" fill-rule="evenodd"/><path fill="#ffee32" d="m106.75783 230.39218l24.93013 12.465073l0 41.178787l-24.93013 12.465057l-24.93013 -12.465057l0 -41.178787z" fill-rule="evenodd"/><path fill="#ffd100" d="m111.06933 232.46704l20.95443 10.477219l0 41.004776l-20.95443 10.477234l-20.95443 -10.477234l0 -41.004776z" fill-rule="evenodd"/><path fill="#000000" fill-opacity="0.0" d="m113.3632 228.88574l31.560432 15.780228l0 37.561356l-31.560432 15.780243l-31.560432 -15.780243l0 -37.561356z" fill-rule="evenodd"/><path stroke="#000000" stroke-width="8.0" stroke-linejoin="round" stroke-linecap="butt" d="m113.3632 228.88574l31.560432 15.780228l0 37.561356l-31.560432 15.780243l-31.560432 -15.780243l0 -37.561356z" fill-rule="evenodd"/><path fill="#c8a508" d="m366.85663 11.265181l31.560455 15.780226l0 37.561375l-31.560455 15.780228l-31.560425 -15.780228l0 -37.561375z" fill-rule="evenodd"/><path fill="#ffee32" d="m360.25125 12.890875l24.930145 12.465069l0 41.178787l-24.930145 12.465073l-24.930115 -12.465073l0 -41.178787z" fill-rule="evenodd"/><path fill="#ffd100" d="m364.56277 14.965723l20.954437 10.477222l0 41.004784l-20.954437 10.477226l-20.954437 -10.477226l0 -41.004784z" fill-rule="evenodd"/><path fill="#000000" fill-opacity="0.0" d="m366.85663 11.384425l31.560455 15.780225l0 37.56138l-31.560455 15.78022l-31.560425 -15.78022l0 -37.56138z" fill-rule="evenodd"/><path stroke="#000000" stroke-width="8.0" stroke-linejoin="round" stroke-linecap="butt" d="m366.85663 11.384425l31.560455 15.780225l0 37.56138l-31.560455 15.78022l-31.560425 -15.78022l0 -37.56138z" fill-rule="evenodd"/><path fill="#c8a508" d="m400.85925 64.766495l31.560455 15.78022l0 37.56138l-31.560455 15.780228l-31.560425 -15.780228l0 -37.56138z" fill-rule="evenodd"/><path fill="#ffee32" d="m394.25388 66.39219l24.930145 12.465065l0 41.178787l-24.930145 12.465073l-24.930115 -12.465073l0 -41.178787z" fill-rule="evenodd"/><path fill="#ffd100" d="m398.5654 68.46703l20.954437 10.477226l0 41.004784l-20.954437 10.477226l-20.954437 -10.477226l0 -41.004784z" fill-rule="evenodd"/><path fill="#000000" fill-opacity="0.0" d="m400.85925 64.885735l31.560455 15.780228l0 37.56138l-31.560455 15.780228l-31.560425 -15.780228l0 -37.56138z" fill-rule="evenodd"/><path stroke="#000000" stroke-width="8.0" stroke-linejoin="round" stroke-linecap="butt" d="m400.85925 64.885735l31.560455 15.780228l0 37.56138l-31.560455 15.780228l-31.560425 -15.780228l0 -37.56138z" fill-rule="evenodd"/><path fill="#c8a508" d="m84.98262 286.76123l31.56044 15.780243l0 37.56137l-31.56044 15.780212l-31.560432 -15.780212l0 -37.56137z" fill-rule="evenodd"/><path fill="#ffee32" d="m78.37725 288.38693l24.930122 12.465088l0 41.178772l-24.930122 12.465057l-24.93013 -12.465057l0 -41.178772z" fill-rule="evenodd"/><path fill="#ffd100" d="m82.68875 290.4618l20.954437 10.477203l0 41.00479l-20.954437 10.477234l-20.954433 -10.477234l0 -41.00479z" fill-rule="evenodd"/><path fill="#000000" fill-opacity="0.0" d="m84.98262 286.8805l31.56044 15.780212l0 37.56137l-31.56044 15.780243l-31.560432 -15.780243l0 -37.56137z" fill-rule="evenodd"/><path stroke="#000000" stroke-width="8.0" stroke-linejoin="round" stroke-linecap="butt" d="m84.98262 286.8805l31.56044 15.780212l0 37.56137l-31.56044 15.780243l-31.560432 -15.780243l0 -37.56137z" fill-rule="evenodd"/><path fill="#c8a508" d="m118.985245 340.26254l31.56044 15.780243l0 37.56137l-31.56044 15.780212l-31.560432 -15.780212l0 -37.56137z" fill-rule="evenodd"/><path fill="#ffee32" d="m112.379875 341.88824l24.930122 12.465088l0 41.178772l-24.930122 12.465057l-24.93013 -12.465057l0 -41.178772z" fill-rule="evenodd"/><path fill="#ffd100" d="m116.691376 343.9631l20.954437 10.477203l0 41.00479l-20.954437 10.477234l-20.95443 -10.477234l0 -41.00479z" fill-rule="evenodd"/><path fill="#000000" fill-opacity="0.0" d="m118.985245 340.3818l31.56044 15.780212l0 37.56137l-31.56044 15.780243l-31.560432 -15.780243l0 -37.56137z" fill-rule="evenodd"/><path stroke="#000000" stroke-width="8.0" stroke-linejoin="round" stroke-linecap="butt" d="m118.985245 340.3818l31.56044 15.780212l0 37.56137l-31.56044 15.780243l-31.560432 -15.780243l0 -37.56137z" fill-rule="evenodd"/><path fill="#c8a508" d="m240.98262 227.76125l31.56044 15.780228l0 37.56137l-31.56044 15.780212l-31.56044 -15.780212l0 -37.56137z" fill-rule="evenodd"/><path fill="#ffee32" d="m234.37724 229.38693l24.93013 12.465073l0 41.178787l-24.93013 12.465057l-24.930115 -12.465057l0 -41.178787z" fill-rule="evenodd"/><path fill="#ffd100" d="m238.68875 231.46179l20.954437 10.477219l0 41.004776l-20.954437 10.477234l-20.954437 -10.477234l0 -41.004776z" fill-rule="evenodd"/><path fill="#000000" fill-opacity="0.0" d="m240.98262 227.8805l31.56044 15.780212l0 37.56137l-31.56044 15.780243l-31.56044 -15.780243l0 -37.56137z" fill-rule="evenodd"/><path stroke="#000000" stroke-width="8.0" stroke-linejoin="round" stroke-linecap="butt" d="m240.98262 227.8805l31.56044 15.780212l0 37.56137l-31.56044 15.780243l-31.56044 -15.780243l0 -37.56137z" fill-rule="evenodd"/><path fill="#c8a508" d="m274.98526 281.26254l31.560425 15.780243l0 37.56137l-31.560425 15.780212l-31.560455 -15.780212l0 -37.56137z" fill-rule="evenodd"/><path fill="#ffee32" d="m268.37988 282.88824l24.930115 12.465088l0 41.178772l-24.930115 12.465057l-24.93013 -12.465057l0 -41.178772z" fill-rule="evenodd"/><path fill="#ffd100" d="m272.69138 284.9631l20.954437 10.477203l0 41.00479l-20.954437 10.477234l-20.954437 -10.477234l0 -41.00479z" fill-rule="evenodd"/><path fill="#000000" fill-opacity="0.0" d="m274.98526 281.3818l31.560425 15.780212l0 37.56137l-31.560425 15.780243l-31.560455 -15.780243l0 -37.56137z" fill-rule="evenodd"/><path stroke="#000000" stroke-width="8.0" stroke-linejoin="round" stroke-linecap="butt" d="m274.98526 281.3818l31.560425 15.780212l0 37.56137l-31.560425 15.780243l-31.560455 -15.780243l0 -37.56137z" fill-rule="evenodd"/><path fill="#c8a508" d="m402.60468 175.26518l31.560425 15.780228l0 37.56137l-31.560425 15.780228l-31.560455 -15.780228l0 -37.56137z" fill-rule="evenodd"/><path fill="#ffee32" d="m395.9993 176.89087l24.930115 12.465073l0 41.178787l-24.930115 12.465073l-24.930115 -12.465073l0 -41.178787z" fill-rule="evenodd"/><path fill="#ffd100" d="m400.3108 178.96573l20.954437 10.477219l0 41.00479l-20.954437 10.477219l-20.954437 -10.477219l0 -41.00479z" fill-rule="evenodd"/><path fill="#000000" fill-opacity="0.0" d="m402.60468 175.38443l31.560425 15.780228l0 37.56137l-31.560425 15.780228l-31.560455 -15.780228l0 -37.56137z" fill-rule="evenodd"/><path stroke="#000000" stroke-width="8.0" stroke-linejoin="round" stroke-linecap="butt" d="m402.60468 175.38443l31.560425 15.780228l0 37.56137l-31.560425 15.780228l-31.560455 -15.780228l0 -37.56137z" fill-rule="evenodd"/><path fill="#c8a508" d="m436.6073 228.7665l31.560425 15.780228l0 37.56137l-31.560425 15.780212l-31.560455 -15.780212l0 -37.56137z" fill-rule="evenodd"/><path fill="#ffee32" d="m430.00192 230.39218l24.930115 12.465073l0 41.178787l-24.930115 12.465057l-24.930115 -12.465057l0 -41.178787z" fill-rule="evenodd"/><path fill="#ffd100" d="m434.31342 232.46704l20.954437 10.477219l0 41.004776l-20.954437 10.477234l-20.954437 -10.477234l0 -41.004776z" fill-rule="evenodd"/><path fill="#000000" fill-opacity="0.0" d="m436.6073 228.88574l31.560425 15.780228l0 37.561356l-31.560425 15.780243l-31.560455 -15.780243l0 -37.561356z" fill-rule="evenodd"/><path stroke="#000000" stroke-width="8.0" stroke-linejoin="round" stroke-linecap="butt" d="m436.6073 228.88574l31.560425 15.780228l0 37.561356l-31.560425 15.780243l-31.560455 -15.780243l0 -37.561356z" fill-rule="evenodd"/></g></svg>