<svg version="1.1" viewBox="0.0 0.0 741.0 651.8005249343832" fill="none" stroke="none" stroke-linecap="square" stroke-miterlimit="10" xmlns:xlink="http://www.w3.org/1999/xlink" xmlns="http://www.w3.org/2000/svg"><clipPath id="p.0"><path d="m0 0l741.0 0l0 651.80054l-741.0 0l0 -651.80054z" clip-rule="nonzero"/></clipPath><g clip-path="url(#p.0)"><path fill="#464746" d="m0 0l741.0 0l0 651.80054l-741.0 0z" fill-rule="evenodd"/><path fill="#f29724" d="m87.999886 307.22784l0 103.48996l0 0c0 13.557465 -6.2220535 24.547943 -13.897339 24.547943c-7.675293 0 -13.89735 -10.9904785 -13.89735 -24.547943l0 -103.48996l0 0c0 -13.557465 6.2220573 -24.547974 13.89735 -24.547974c7.6752853 0 13.897339 10.990509 13.897339 24.547974z" fill-rule="evenodd"/><path fill="#ffd100" d="m80.34358 304.32343l0 105.836945l0 0c0 13.864929 -5.581024 25.104675 -12.465561 25.104675c-6.8845444 0 -12.465565 -11.239746 -12.465565 -25.104675l0 -105.836945l0 0c0 -13.864929 5.5810204 -25.104675 12.465565 -25.104675c6.8845367 0 12.465561 11.239746 12.465561 25.104675z" fill-rule="evenodd"/><path fill="#000000" fill-opacity="0.0" d="m90.033485 306.3504l0 105.24487l0 0c0 13.7873535 -7.1323624 24.964233 -15.93058 24.964233c-8.798218 0 -15.930584 -11.17688 -15.930584 -24.964233l0 -105.24487l0 0c0 -13.7873535 7.132366 -24.964203 15.930584 -24.964203c8.798218 0 15.93058 11.176849 15.93058 24.964203z" fill-rule="evenodd"/><path stroke="#323432" stroke-width="8.0" stroke-linejoin="round" stroke-linecap="butt" d="m90.033485 306.3504l0 105.24487l0 0c0 13.7873535 -7.1323624 24.964233 -15.93058 24.964233c-8.798218 0 -15.930584 -11.17688 -15.930584 -24.964233l0 -105.24487l0 0c0 -13.7873535 7.132366 -24.964203 15.930584 -24.964203c8.798218 0 15.93058 11.176849 15.93058 24.964203z" fill-rule="evenodd"/><path fill="#f29724" d="m115.794914 254.74837l0 76.52733l0 0c0 10.025299 -6.2220535 18.152405 -13.8973465 18.152405c-7.675293 0 -13.8973465 -8.127106 -13.8973465 -18.152405l0 -76.52733l0 0c0 -10.025284 6.2220535 -18.15239 13.8973465 -18.15239c7.675293 0 13.8973465 8.127106 13.8973465 18.15239z" fill-rule="evenodd"/><path fill="#f29724" d="m143.45532 284.82364l0 75.13797l0 0c0 9.843262 -4.9773254 17.822815 -11.117172 17.822815c-6.139839 0 -11.117165 -7.979553 -11.117165 -17.822815l0 -75.13797l0 0c0 -9.843262 4.9773254 -17.822815 11.117165 -17.822815c6.139847 0 11.117172 7.979553 11.117172 17.822815z" fill-rule="evenodd"/><path fill="#ffd100" d="m106.3214 255.44328l0 75.137955l0 0c0 9.843262 -4.101166 17.822815 -9.160217 17.822815c-5.0590515 0 -9.160217 -7.979553 -9.160217 -17.822815l0 -75.137955l0 0c0 -9.843277 4.101166 -17.82283 9.160217 -17.82283c5.0590515 0 9.160217 7.979553 9.160217 17.82283z" fill-rule="evenodd"/><path fill="#000000" fill-opacity="0.0" d="m115.79533 254.74811l0 76.52734l0 0c0 10.025269 -6.2220535 18.152374 -13.8973465 18.152374c-7.675293 0 -13.8973465 -8.127106 -13.8973465 -18.152374l0 -76.52734l0 0c0 -10.025284 6.2220535 -18.15239 13.8973465 -18.15239c7.675293 0 13.8973465 8.127106 13.8973465 18.15239z" fill-rule="evenodd"/><path stroke="#323432" stroke-width="8.0" stroke-linejoin="round" stroke-linecap="butt" d="m115.79533 254.74811l0 76.52734l0 0c0 10.025269 -6.2220535 18.152374 -13.8973465 18.152374c-7.675293 0 -13.8973465 -8.127106 -13.8973465 -18.152374l0 -76.52734l0 0c0 -10.025284 6.2220535 -18.15239 13.8973465 -18.15239c7.675293 0 13.8973465 8.127106 13.8973465 18.15239z" fill-rule="evenodd"/><path fill="#ffd100" d="m134.16203 283.10522l0 76.52734l0 0c0 10.025269 -4.5182037 18.152374 -10.091682 18.152374c-5.5734787 0 -10.091675 -8.127106 -10.091675 -18.152374l0 -76.52734l0 0c0 -10.025299 4.518196 -18.152405 10.091675 -18.152405c5.5734787 0 10.091682 8.127106 10.091682 18.152405z" fill-rule="evenodd"/><path fill="#000000" fill-opacity="0.0" d="m144.59863 284.1295l0 76.52734l0 0c0 10.025299 -6.854355 18.152405 -15.309616 18.152405c-8.455269 0 -15.309616 -8.127106 -15.309616 -18.152405l0 -76.52734l0 0c0 -10.025269 6.854347 -18.152374 15.309616 -18.152374c8.455261 0 15.309616 8.127106 15.309616 18.152374z" fill-rule="evenodd"/><path stroke="#323432" stroke-width="8.0" stroke-linejoin="round" stroke-linecap="butt" d="m144.59863 284.1295l0 76.52734l0 0c0 10.025299 -6.854355 18.152405 -15.309616 18.152405c-8.455269 0 -15.309616 -8.127106 -15.309616 -18.152405l0 -76.52734l0 0c0 -10.025269 6.854347 -18.152374 15.309616 -18.152374c8.455261 0 15.309616 8.127106 15.309616 18.152374z" fill-rule="evenodd"/><path fill="#ffd100" d="m99.55661 253.75708l29.51094 0l0 78.50882l-29.51094 0z" fill-rule="evenodd"/><path fill="#ffd100" d="m75.695274 269.6729l18.313736 0l0 62.593445l-18.313736 0z" fill-rule="evenodd"/><path fill="#f29724" d="m703.0442 281.9712l0 115.90729l0 0c0 15.184174 -5.880066 27.493347 -13.133545 27.493347c-7.253418 0 -13.133545 -12.309174 -13.133545 -27.493347l0 -115.90729l0 0c0 -15.184143 5.880127 -27.493347 13.133545 -27.493347c7.253479 0 13.133545 12.309204 13.133545 27.493347z" fill-rule="evenodd"/><path fill="#ffd100" d="m697.3053 276.5629l0 118.53586l0 0c0 15.528534 -5.274292 28.116882 -11.780457 28.116882c-6.5061646 0 -11.780457 -12.588348 -11.780457 -28.116882l0 -118.53586l0 0c0 -15.528534 5.274292 -28.116882 11.780457 -28.116882c6.5061646 0 11.780457 12.588348 11.780457 28.116882z" fill-rule="evenodd"/><path fill="#000000" fill-opacity="0.0" d="m703.856 280.9885l0 117.87274l0 0c0 15.44165 -6.7404175 27.959564 -15.055054 27.959564c-8.314636 0 -15.055054 -12.517914 -15.055054 -27.959564l0 -117.87274l0 0c0 -15.44162 6.7404175 -27.959564 15.055054 -27.959564c8.314636 0 15.055054 12.517944 15.055054 27.959564z" fill-rule="evenodd"/><path stroke="#323432" stroke-width="8.0" stroke-linejoin="round" stroke-linecap="butt" d="m703.856 280.9885l0 117.87274l0 0c0 15.44165 -6.7404175 27.959564 -15.055054 27.959564c-8.314636 0 -15.055054 -12.517914 -15.055054 -27.959564l0 -117.87274l0 0c0 -15.44162 6.7404175 -27.959564 15.055054 -27.959564c8.314636 0 15.055054 12.517944 15.055054 27.959564z" fill-rule="evenodd"/><path fill="#f29724" d="m680.9359 250.97827l0 85.70953l0 0c0 11.22818 -5.880127 20.330414 -13.133545 20.330414c-7.253479 0 -13.133545 -9.102234 -13.133545 -20.330414l0 -85.70953l0 0c0 -11.22818 5.880066 -20.330414 13.133545 -20.330414c7.253418 0 13.133545 9.102234 13.133545 20.330414z" fill-rule="evenodd"/><path fill="#f29724" d="m654.6685 274.4391l0 84.15344l0 0c0 11.0243225 -4.7037354 19.961304 -10.506165 19.961304c-5.802368 0 -10.506165 -8.936981 -10.506165 -19.961304l0 -84.15344l0 0c0 -11.0243225 4.7037964 -19.961288 10.506165 -19.961288c5.802429 0 10.506165 8.936966 10.506165 19.961288z" fill-rule="evenodd"/><path fill="#ffd100" d="m647.6384 274.4398l0 84.15344l0 0c0 11.0243225 -3.8757935 19.961304 -8.656799 19.961304c-4.781006 0 -8.656738 -8.936981 -8.656738 -19.961304l0 -84.15344l0 0c0 -11.0243225 3.8757324 -19.961304 8.656738 -19.961304c4.781006 0 8.656799 8.936981 8.656799 19.961304z" fill-rule="evenodd"/><path fill="#000000" fill-opacity="0.0" d="m656.41254 273.66165l0 85.70953l0 0c0 11.22818 -5.484497 20.330414 -12.249939 20.330414c-6.765442 0 -12.249878 -9.102234 -12.249878 -20.330414l0 -85.70953l0 0c0 -11.22818 5.484436 -20.330399 12.249878 -20.330399c6.765442 0 12.249939 9.102219 12.249939 20.330399z" fill-rule="evenodd"/><path stroke="#323432" stroke-width="8.0" stroke-linejoin="round" stroke-linecap="butt" d="m656.41254 273.66165l0 85.70953l0 0c0 11.22818 -5.484497 20.330414 -12.249939 20.330414c-6.765442 0 -12.249878 -9.102234 -12.249878 -20.330414l0 -85.70953l0 0c0 -11.22818 5.484436 -20.330399 12.249878 -20.330399c6.765442 0 12.249939 9.102219 12.249939 20.330399z" fill-rule="evenodd"/><path fill="#ffd100" d="m673.74316 250.97841l0 85.70952l0 0c0 11.22818 -4.2698364 20.330414 -9.537048 20.330414c-5.267151 0 -9.536987 -9.102234 -9.536987 -20.330414l0 -85.70952l0 0c0 -11.22818 4.2698364 -20.330414 9.536987 -20.330414c5.267212 0 9.537048 9.102234 9.537048 20.330414z" fill-rule="evenodd"/><path fill="#000000" fill-opacity="0.0" d="m680.9355 250.97798l0 85.70952l0 0c0 11.22818 -5.880066 20.330414 -13.133545 20.330414c-7.253418 0 -13.133545 -9.102234 -13.133545 -20.330414l0 -85.70952l0 0c0 -11.22818 5.880127 -20.330414 13.133545 -20.330414c7.253479 0 13.133545 9.102234 13.133545 20.330414z" fill-rule="evenodd"/><path stroke="#323432" stroke-width="8.0" stroke-linejoin="round" stroke-linecap="butt" d="m680.9355 250.97798l0 85.70952l0 0c0 11.22818 -5.880066 20.330414 -13.133545 20.330414c-7.253418 0 -13.133545 -9.102234 -13.133545 -20.330414l0 -85.70952l0 0c0 -11.22818 5.880127 -20.330414 13.133545 -20.330414c7.253479 0 13.133545 9.102234 13.133545 20.330414z" fill-rule="evenodd"/><path fill="#ffd100" d="m645.85474 246.48378l27.889038 0l0 87.92876l-27.889038 0z" fill-rule="evenodd"/><path fill="#ffd100" d="m673.74384 258.80392l17.30719 0l0 70.10376l-17.30719 0z" fill-rule="evenodd"/><path fill="#f29724" d="m481.33365 452.9537l0 110.17239l0 0c0 14.432861 -8.543274 26.133057 -19.08194 26.133057c-10.538666 0 -19.08194 -11.700195 -19.08194 -26.133057l0 -110.17239l0 0c0 -14.432861 8.543274 -26.133026 19.08194 -26.133026c10.538666 0 19.08194 11.700165 19.08194 26.133026z" fill-rule="evenodd"/><path fill="#f29724" d="m443.16937 483.11063l0 108.17215l0 0c0 14.170837 -6.834198 25.65863 -15.264587 25.65863c-8.430389 0 -15.264557 -11.487793 -15.264557 -25.65863l0 -108.17215l0 0c0 -14.170837 6.8341675 -25.65857 15.264557 -25.65857c8.430389 0 15.264587 11.487732 15.264587 25.65857z" fill-rule="evenodd"/><path fill="#ffd100" d="m432.95517 483.11154l0 108.17215l0 0c0 14.170837 -5.6311646 25.65857 -12.577545 25.65857c-6.946411 0 -12.577576 -11.487732 -12.577576 -25.65857l0 -108.17215l0 0c0 -14.170868 5.6311646 -25.6586 12.577576 -25.6586c6.9463806 0 12.577545 11.487732 12.577545 25.6586z" fill-rule="evenodd"/><path fill="#000000" fill-opacity="0.0" d="m445.70328 482.1113l0 110.17239l0 0c0 14.432861 -7.968506 26.133057 -17.798126 26.133057c-9.82962 0 -17.798096 -11.700195 -17.798096 -26.133057l0 -110.17239l0 0c0 -14.432861 7.9684753 -26.133026 17.798096 -26.133026c9.82962 0 17.798126 11.700165 17.798126 26.133026z" fill-rule="evenodd"/><path stroke="#323432" stroke-width="8.0" stroke-linejoin="round" stroke-linecap="butt" d="m445.70328 482.1113l0 110.17239l0 0c0 14.432861 -7.968506 26.133057 -17.798126 26.133057c-9.82962 0 -17.798096 -11.700195 -17.798096 -26.133057l0 -110.17239l0 0c0 -14.432861 7.9684753 -26.133026 17.798096 -26.133026c9.82962 0 17.798126 11.700165 17.798126 26.133026z" fill-rule="evenodd"/><path fill="#ffd100" d="m470.88324 452.9539l0 110.17239l0 0c0 14.432861 -6.2037964 26.133057 -13.856506 26.133057c-7.6527405 0 -13.856506 -11.700195 -13.856506 -26.133057l0 -110.17239l0 0c0 -14.432892 6.203766 -26.133026 13.856506 -26.133026c7.65271 0 13.856506 11.700134 13.856506 26.133026z" fill-rule="evenodd"/><path fill="#000000" fill-opacity="0.0" d="m481.33307 452.95334l0 110.17239l0 0c0 14.432861 -8.543274 26.133057 -19.08194 26.133057c-10.538635 0 -19.08191 -11.700195 -19.08191 -26.133057l0 -110.17239l0 0c0 -14.432861 8.543274 -26.133026 19.08191 -26.133026c10.538666 0 19.08194 11.700165 19.08194 26.133026z" fill-rule="evenodd"/><path stroke="#323432" stroke-width="8.0" stroke-linejoin="round" stroke-linecap="butt" d="m481.33307 452.95334l0 110.17239l0 0c0 14.432861 -8.543274 26.133057 -19.08194 26.133057c-10.538635 0 -19.08191 -11.700195 -19.08191 -26.133057l0 -110.17239l0 0c0 -14.432861 8.543274 -26.133026 19.08191 -26.133026c10.538666 0 19.08194 11.700165 19.08194 26.133026z" fill-rule="evenodd"/><path fill="#ffd100" d="m430.36368 447.17642l40.520386 0l0 113.025055l-40.520386 0z" fill-rule="evenodd"/><path fill="#ffffff" d="m-0.001312336 -7.0l743.0552 0l0 269.98425l-743.0552 0z" fill-rule="evenodd"/><path fill="#f29724" d="m492.04327 133.81998l60.97638 30.48819l0 68.91339l-60.97638 30.48819l-60.97635 -30.48819l0 -68.91339z" fill-rule="evenodd"/><path stroke="#323432" stroke-width="8.0" stroke-linejoin="round" stroke-linecap="butt" d="m492.04327 133.81998l60.97638 30.48819l0 68.91339l-60.97638 30.48819l-60.97635 -30.48819l0 -68.91339z" fill-rule="evenodd"/><path fill="#ffd100" d="m492.0433 147.77165l50.881866 25.440948l0 51.102356l-50.881866 25.440948l-50.881866 -25.440948l0 -51.102356z" fill-rule="evenodd"/><path fill="#f29724" d="m432.04852 35.631l60.97635 30.488186l0 68.91339l-60.97635 30.48819l-60.97635 -30.48819l0 -68.91339z" fill-rule="evenodd"/><path stroke="#323432" stroke-width="8.0" stroke-linejoin="round" stroke-linecap="butt" d="m432.04852 35.631l60.97635 30.488186l0 68.91339l-60.97635 30.48819l-60.97635 -30.48819l0 -68.91339z" fill-rule="evenodd"/><path fill="#ffd100" d="m432.04855 49.582676l50.881866 25.440945l0 51.102364l-50.881866 25.44094l-50.881866 -25.44094l0 -51.102364z" fill-rule="evenodd"/><path fill="#f29724" d="m188.59972 35.631l60.97635 30.488186l0 68.91339l-60.97635 30.48819l-60.97635 -30.48819l0 -68.91339z" fill-rule="evenodd"/><path stroke="#323432" stroke-width="8.0" stroke-linejoin="round" stroke-linecap="butt" d="m188.59972 35.631l60.97635 30.488186l0 68.91339l-60.97635 30.48819l-60.97635 -30.48819l0 -68.91339z" fill-rule="evenodd"/><path fill="#ffd100" d="m188.59973 49.582676l50.881866 25.440945l0 51.102364l-50.881866 25.44094l-50.881866 -25.44094l0 -51.102364z" fill-rule="evenodd"/><path fill="#f29724" d="m676.41077 234.09032l60.97632 30.488174l0 68.91339l-60.97632 30.48819l-60.97638 -30.48819l0 -68.91339z" fill-rule="evenodd"/><path stroke="#323432" stroke-width="8.0" stroke-linejoin="round" stroke-linecap="butt" d="m676.41077 234.09032l60.97632 30.488174l0 68.91339l-60.97632 30.48819l-60.97638 -30.48819l0 -68.91339z" fill-rule="evenodd"/><path fill="#ffd100" d="m676.41077 248.04199l50.881836 25.440948l0 51.102356l-50.881836 25.440948l-50.881897 -25.440948l0 -51.102356z" fill-rule="evenodd"/><path fill="#f29724" d="m554.458 234.09032l60.97632 30.488174l0 68.91339l-60.97632 30.48819l-60.97638 -30.48819l0 -68.91339z" fill-rule="evenodd"/><path stroke="#323432" stroke-width="8.0" stroke-linejoin="round" stroke-linecap="butt" d="m554.458 234.09032l60.97632 30.488174l0 68.91339l-60.97632 30.48819l-60.97638 -30.48819l0 -68.91339z" fill-rule="evenodd"/><path fill="#ffd100" d="m554.458 248.04199l50.881836 25.440948l0 51.102356l-50.881836 25.440948l-50.881866 -25.440948l0 -51.102356z" fill-rule="evenodd"/><path fill="#f29724" d="m432.50522 234.09032l60.97635 30.488174l0 68.91339l-60.97635 30.48819l-60.97635 -30.48819l0 -68.91339z" fill-rule="evenodd"/><path stroke="#323432" stroke-width="8.0" stroke-linejoin="round" stroke-linecap="butt" d="m432.50522 234.09032l60.97635 30.488174l0 68.91339l-60.97635 30.48819l-60.97635 -30.48819l0 -68.91339z" fill-rule="evenodd"/><path fill="#ffd100" d="m432.50525 248.04199l50.881866 25.440948l0 51.102356l-50.881866 25.440948l-50.881866 -25.440948l0 -51.102356z" fill-rule="evenodd"/><path fill="#f29724" d="m310.55246 234.09032l60.97635 30.488174l0 68.91339l-60.97635 30.48819l-60.976334 -30.48819l0 -68.91339z" fill-rule="evenodd"/><path stroke="#323432" stroke-width="8.0" stroke-linejoin="round" stroke-linecap="butt" d="m310.55246 234.09032l60.97635 30.488174l0 68.91339l-60.97635 30.48819l-60.976334 -30.48819l0 -68.91339z" fill-rule="evenodd"/><path fill="#ffd100" d="m310.5525 248.04199l50.881866 25.440948l0 51.102356l-50.881866 25.440948l-50.881866 -25.440948l0 -51.102356z" fill-rule="evenodd"/><path fill="#f29724" d="m188.59972 234.09032l60.97635 30.488174l0 68.91339l-60.97635 30.48819l-60.97635 -30.48819l0 -68.91339z" fill-rule="evenodd"/><path stroke="#323432" stroke-width="8.0" stroke-linejoin="round" stroke-linecap="butt" d="m188.59972 234.09032l60.97635 30.488174l0 68.91339l-60.97635 30.48819l-60.97635 -30.48819l0 -68.91339z" fill-rule="evenodd"/><path fill="#ffd100" d="m188.59973 248.04199l50.881866 25.440948l0 51.102356l-50.881866 25.440948l-50.881866 -25.440948l0 -51.102356z" fill-rule="evenodd"/><path fill="#f29724" d="m66.646965 234.09032l60.97635 30.488174l0 68.91339l-60.97635 30.48819l-60.976353 -30.48819l0 -68.91339z" fill-rule="evenodd"/><path stroke="#323432" stroke-width="8.0" stroke-linejoin="round" stroke-linecap="butt" d="m66.646965 234.09032l60.97635 30.488174l0 68.91339l-60.97635 30.48819l-60.976353 -30.48819l0 -68.91339z" fill-rule="evenodd"/><path fill="#ffd100" d="m66.64698 248.04199l50.881866 25.440948l0 51.102356l-50.881866 25.440948l-50.881866 -25.440948l0 -51.102356z" fill-rule="evenodd"/><path fill="#f29724" d="m493.0249 332.42627l60.97638 30.48819l0 68.91339l-60.97638 30.48819l-60.97635 -30.48819l0 -68.91339z" fill-rule="evenodd"/><path stroke="#323432" stroke-width="8.0" stroke-linejoin="round" stroke-linecap="butt" d="m493.0249 332.42627l60.97638 30.48819l0 68.91339l-60.97638 30.48819l-60.97635 -30.48819l0 -68.91339z" fill-rule="evenodd"/><path fill="#ffd100" d="m493.02493 346.37796l50.881866 25.440948l0 51.102356l-50.881866 25.440948l-50.881866 -25.440948l0 -51.102356z" fill-rule="evenodd"/><path fill="#f29724" d="m371.07217 332.42627l60.97635 30.48819l0 68.91339l-60.97635 30.48819l-60.97638 -30.48819l0 -68.91339z" fill-rule="evenodd"/><path stroke="#323432" stroke-width="8.0" stroke-linejoin="round" stroke-linecap="butt" d="m371.07217 332.42627l60.97635 30.48819l0 68.91339l-60.97635 30.48819l-60.97638 -30.48819l0 -68.91339z" fill-rule="evenodd"/><path fill="#ffd100" d="m371.07217 346.37796l50.881866 25.440948l0 51.102356l-50.881866 25.440948l-50.881866 -25.440948l0 -51.102356z" fill-rule="evenodd"/><path fill="#f29724" d="m249.1194 332.42627l60.976364 30.48819l0 68.91339l-60.976364 30.48819l-60.97635 -30.48819l0 -68.91339z" fill-rule="evenodd"/><path stroke="#323432" stroke-width="8.0" stroke-linejoin="round" stroke-linecap="butt" d="m249.1194 332.42627l60.976364 30.48819l0 68.91339l-60.976364 30.48819l-60.97635 -30.48819l0 -68.91339z" fill-rule="evenodd"/><path fill="#ffd100" d="m249.11942 346.37796l50.881866 25.440948l0 51.102356l-50.881866 25.440948l-50.88185 -25.440948l0 -51.102356z" fill-rule="evenodd"/><path fill="#f29724" d="m370.09055 133.81998l60.97635 30.48819l0 68.91339l-60.97635 30.48819l-60.97635 -30.48819l0 -68.91339z" fill-rule="evenodd"/><path stroke="#323432" stroke-width="8.0" stroke-linejoin="round" stroke-linecap="butt" d="m370.09055 133.81998l60.97635 30.48819l0 68.91339l-60.97635 30.48819l-60.97635 -30.48819l0 -68.91339z" fill-rule="evenodd"/><path fill="#ffd100" d="m370.09055 147.77165l50.881866 25.440948l0 51.102356l-50.881866 25.440948l-50.881866 -25.440948l0 -51.102356z" fill-rule="evenodd"/><path fill="#f29724" d="m248.13777 133.81998l60.976364 30.48819l0 68.91339l-60.976364 30.48819l-60.97635 -30.48819l0 -68.91339z" fill-rule="evenodd"/><path stroke="#323432" stroke-width="8.0" stroke-linejoin="round" stroke-linecap="butt" d="m248.13777 133.81998l60.976364 30.48819l0 68.91339l-60.976364 30.48819l-60.97635 -30.48819l0 -68.91339z" fill-rule="evenodd"/><path fill="#ffd100" d="m248.1378 147.77165l50.88185 25.440948l0 51.102356l-50.88185 25.440948l-50.881866 -25.440948l0 -51.102356z" fill-rule="evenodd"/><path fill="#f29724" d="m126.18502 133.81998l60.976357 30.48819l0 68.91339l-60.976357 30.48819l-60.97635 -30.48819l0 -68.91339z" fill-rule="evenodd"/><path stroke="#323432" stroke-width="8.0" stroke-linejoin="round" stroke-linecap="butt" d="m126.18502 133.81998l60.976357 30.48819l0 68.91339l-60.976357 30.48819l-60.97635 -30.48819l0 -68.91339z" fill-rule="evenodd"/><path fill="#ffd100" d="m126.185036 147.77165l50.881874 25.440948l0 51.102356l-50.881874 25.440948l-50.88186 -25.440948l0 -51.102356z" fill-rule="evenodd"/><path fill="#f29724" d="m613.99603 133.81998l60.97638 30.48819l0 68.91339l-60.97638 30.48819l-60.97632 -30.48819l0 -68.91339z" fill-rule="evenodd"/><path stroke="#323432" stroke-width="8.0" stroke-linejoin="round" stroke-linecap="butt" d="m613.99603 133.81998l60.97638 30.48819l0 68.91339l-60.97638 30.48819l-60.97632 -30.48819l0 -68.91339z" fill-rule="evenodd"/><path fill="#ffd100" d="m613.99603 147.77165l50.881897 25.440948l0 51.102356l-50.881897 25.440948l-50.881836 -25.440948l0 -51.102356z" fill-rule="evenodd"/><path fill="#f29724" d="m432.04852 432.54962l60.97635 30.48819l0 68.91342l-60.97635 30.48816l-60.97635 -30.48816l0 -68.91342z" fill-rule="evenodd"/><path stroke="#323432" stroke-width="8.0" stroke-linejoin="round" stroke-linecap="butt" d="m432.04852 432.54962l60.97635 30.48819l0 68.91342l-60.97635 30.48816l-60.97635 -30.48816l0 -68.91342z" fill-rule="evenodd"/><path fill="#ffd100" d="m432.04855 446.5013l50.881866 25.440948l0 51.102356l-50.881866 25.440918l-50.881866 -25.440918l0 -51.102356z" fill-rule="evenodd"/><path fill="#f29724" d="m310.0958 432.54962l60.97635 30.48819l0 68.91342l-60.97635 30.48816l-60.976364 -30.48816l0 -68.91342z" fill-rule="evenodd"/><path stroke="#323432" stroke-width="8.0" stroke-linejoin="round" stroke-linecap="butt" d="m310.0958 432.54962l60.97635 30.48819l0 68.91342l-60.97635 30.48816l-60.976364 -30.48816l0 -68.91342z" fill-rule="evenodd"/><path fill="#ffd100" d="m310.0958 446.5013l50.881866 25.440948l0 51.102356l-50.881866 25.440918l-50.881866 -25.440918l0 -51.102356z" fill-rule="evenodd"/><path fill="#ffee32" d="m225.80052 269.42783l20.0 0l0 59.212585l-20.0 0z" fill-rule="evenodd"/><path fill="#ffee32" d="m348.80054 269.42783l20.0 0l0 59.212585l-20.0 0z" fill-rule="evenodd"/><path fill="#ffee32" d="m471.1496 68.42782l17.700806 0l0 59.2126l-17.700806 0z" fill-rule="evenodd"/><path fill="#ffee32" d="m407.80054 171.42783l20.0 0l0 59.2126l-20.0 0z" fill-rule="evenodd"/><path fill="#ffee32" d="m285.80054 171.42783l20.0 0l0 59.2126l-20.0 0z" fill-rule="evenodd"/><path fill="#ffee32" d="m222.80052 68.42782l20.0 0l0 59.2126l-20.0 0z" fill-rule="evenodd"/><path fill="#ffee32" d="m163.80052 171.42783l20.0 0l0 59.2126l-20.0 0z" fill-rule="evenodd"/><path fill="#ffee32" d="m102.80052 269.42783l20.0 0l0 59.212585l-20.0 0z" fill-rule="evenodd"/><path fill="#ffee32" d="m285.80054 367.42783l20.0 0l0 59.212585l-20.0 0z" fill-rule="evenodd"/><path fill="#ffee32" d="m529.80054 367.42783l20.0 0l0 59.212585l-20.0 0z" fill-rule="evenodd"/><path fill="#ffee32" d="m469.30054 269.42783l20.0 0l0 59.212585l-20.0 0z" fill-rule="evenodd"/><path fill="#ffee32" d="m589.80054 269.42783l20.0 0l0 59.212585l-20.0 0z" fill-rule="evenodd"/><path fill="#ffee32" d="m713.85565 269.42783l20.0 0l0 59.212585l-20.0 0z" fill-rule="evenodd"/><path fill="#ffee32" d="m651.80054 171.42783l20.0 0l0 59.2126l-20.0 0z" fill-rule="evenodd"/><path fill="#ffee32" d="m529.80054 171.42783l20.0 0l0 59.2126l-20.0 0z" fill-rule="evenodd"/><path fill="#ffee32" d="m469.30185 470.42783l20.0 0l0 59.212616l-20.0 0z" fill-rule="evenodd"/><path fill="#ffee32" d="m348.80054 470.42783l20.0 0l0 59.212616l-20.0 0z" fill-rule="evenodd"/><path fill="#ffee32" d="m407.80054 367.42783l20.0 0l0 59.212585l-20.0 0z" fill-rule="evenodd"/><path fill="#ffee32" d="m188.29921 51.721786l0 -12.503941l20.0 12.503941z" fill-rule="evenodd"/><path fill="#ffee32" d="m195.47768 43.674564l49.13385 23.464565l-4.2204742 8.850395l-49.13385 -23.464565z" fill-rule="evenodd"/><path fill="#ffee32" d="m612.60046 151.03629l0 -13.941879l21.026001 13.941879z" fill-rule="evenodd"/><path fill="#ffee32" d="m620.14716 142.06364l51.65448 26.162994l-4.4370117 9.868179l-51.65442 -26.16298z" fill-rule="evenodd"/><path fill="#ffee32" d="m659.2966 169.09448l12.503967 0l0 12.0l-12.503967 0z" fill-rule="evenodd"/><path fill="#ffee32" d="m430.10178 53.159653l0 -13.941891l21.026001 13.941891z" fill-rule="evenodd"/><path fill="#ffee32" d="m437.6485 44.187004l51.65442 26.162994l-4.436981 9.868187l-51.65442 -26.162994z" fill-rule="evenodd"/><path fill="#ffee32" d="m476.7979 71.21785l12.503937 0l0 12.0l-12.503937 0z" fill-rule="evenodd"/><path fill="#ffee32" d="m490.7119 151.09435l0 -13.842911l20.946106 13.842911z" fill-rule="evenodd"/><path fill="#ffee32" d="m498.22995 142.1854l51.45816 25.977234l-4.420166 9.798126l-51.4581 -25.977234z" fill-rule="evenodd"/><path fill="#ffee32" d="m537.2306 169.02432l12.456421 0l0 11.914795l-12.456421 0z" fill-rule="evenodd"/><path fill="#ffee32" d="m368.65558 151.0376l0 -13.941879l21.026001 13.941879z" fill-rule="evenodd"/><path fill="#ffee32" d="m376.2023 142.06496l51.65442 26.162994l-4.436981 9.868179l-51.65442 -26.16298z" fill-rule="evenodd"/><path fill="#ffee32" d="m415.3517 169.0958l12.503937 0l0 12.0l-12.503937 0z" fill-rule="evenodd"/><path fill="#ffee32" d="m246.60046 151.0376l0 -13.941879l21.026001 13.941879z" fill-rule="evenodd"/><path fill="#ffee32" d="m254.14719 142.06496l51.65442 26.162994l-4.436981 9.868179l-51.65442 -26.16298z" fill-rule="evenodd"/><path fill="#ffee32" d="m293.2966 169.0958l12.503937 0l0 12.0l-12.503937 0z" fill-rule="evenodd"/><path fill="#ffee32" d="m674.6556 250.5376l0 -13.941879l21.026001 13.941879z" fill-rule="evenodd"/><path fill="#ffee32" d="m682.20233 241.56496l51.65442 26.16298l-4.4370117 9.868195l-51.65442 -26.16298z" fill-rule="evenodd"/><path fill="#ffee32" d="m721.3517 268.5958l12.503967 0l0 12.0l-12.503967 0z" fill-rule="evenodd"/><path fill="#ffee32" d="m549.6884 250.5376l0 -13.941879l21.026001 13.941879z" fill-rule="evenodd"/><path fill="#ffee32" d="m557.2351 241.56496l51.65442 26.16298l-4.4369507 9.868195l-51.65442 -26.16298z" fill-rule="evenodd"/><path fill="#ffee32" d="m596.3845 268.5958l12.503906 0l0 12.0l-12.503906 0z" fill-rule="evenodd"/><path fill="#ffee32" d="m429.64377 250.5376l0 -13.941879l21.026001 13.941879z" fill-rule="evenodd"/><path fill="#ffee32" d="m437.1905 241.56496l51.65442 26.16298l-4.436981 9.868195l-51.65442 -26.16298z" fill-rule="evenodd"/><path fill="#ffee32" d="m476.3399 268.5958l12.503937 0l0 12.0l-12.503937 0z" fill-rule="evenodd"/><path fill="#ffee32" d="m309.59915 250.5376l0 -13.941879l21.026001 13.941879z" fill-rule="evenodd"/><path fill="#ffee32" d="m317.14587 241.56496l51.65442 26.16298l-4.436981 9.868195l-51.65442 -26.16298z" fill-rule="evenodd"/><path fill="#ffee32" d="m356.2953 268.5958l12.503937 0l0 12.0l-12.503937 0z" fill-rule="evenodd"/><path fill="#ffee32" d="m186.59915 250.5376l0 -13.941879l21.026001 13.941879z" fill-rule="evenodd"/><path fill="#ffee32" d="m194.14587 241.56496l51.65442 26.16298l-4.436981 9.868195l-51.65442 -26.16298z" fill-rule="evenodd"/><path fill="#ffee32" d="m233.29527 268.5958l12.503937 0l0 12.0l-12.503937 0z" fill-rule="evenodd"/><path fill="#ffee32" d="m63.599155 250.5376l0 -13.941879l21.026005 13.941879z" fill-rule="evenodd"/><path fill="#ffee32" d="m71.145874 241.56496l51.654427 26.16298l-4.436989 9.868195l-51.65442 -26.16298z" fill-rule="evenodd"/><path fill="#ffee32" d="m110.29527 268.5958l12.503937 0l0 12.0l-12.503937 0z" fill-rule="evenodd"/><path fill="#ffee32" d="m490.59915 348.1938l0 -13.941895l21.026001 13.941895z" fill-rule="evenodd"/><path fill="#ffee32" d="m498.14587 339.22113l51.65442 26.162994l-4.4369507 9.868195l-51.65445 -26.162994z" fill-rule="evenodd"/><path fill="#ffee32" d="m537.2953 366.25198l12.503906 0l0 12.0l-12.503906 0z" fill-rule="evenodd"/><path fill="#ffee32" d="m368.59915 349.0258l0 -13.941895l21.026001 13.941895z" fill-rule="evenodd"/><path fill="#ffee32" d="m376.14587 340.05313l51.65442 26.162994l-4.436981 9.868195l-51.65442 -26.162994z" fill-rule="evenodd"/><path fill="#ffee32" d="m415.2953 367.08398l12.503937 0l0 12.0l-12.503937 0z" fill-rule="evenodd"/><path fill="#ffee32" d="m246.59915 349.0258l0 -13.941895l21.026001 13.941895z" fill-rule="evenodd"/><path fill="#ffee32" d="m254.14587 340.05313l51.65442 26.162994l-4.436981 9.868195l-51.65442 -26.162994z" fill-rule="evenodd"/><path fill="#ffee32" d="m293.2953 367.08398l12.503937 0l0 12.0l-12.503937 0z" fill-rule="evenodd"/><path fill="#ffee32" d="m309.59915 450.01266l0 -13.941895l21.026001 13.941895z" fill-rule="evenodd"/><path fill="#ffee32" d="m317.14587 441.04l51.65442 26.162994l-4.436981 9.868195l-51.65442 -26.162994z" fill-rule="evenodd"/><path fill="#ffee32" d="m356.2953 468.07086l12.503937 0l0 12.0l-12.503937 0z" fill-rule="evenodd"/><path fill="#ffee32" d="m430.10178 447.91556l0 -13.941895l21.026001 13.941895z" fill-rule="evenodd"/><path fill="#ffee32" d="m437.6485 438.9429l51.65442 26.162994l-4.436981 9.868195l-51.65442 -26.162994z" fill-rule="evenodd"/><path fill="#ffee32" d="m476.7979 465.97375l12.503937 0l0 12.0l-12.503937 0z" fill-rule="evenodd"/></g></svg>