<svg version="1.1" viewBox="0.0 0.0 652.1233595800525 146.3202099737533" fill="none" stroke="none" stroke-linecap="square" stroke-miterlimit="10" xmlns:xlink="http://www.w3.org/1999/xlink" xmlns="http://www.w3.org/2000/svg"><clipPath id="p.0"><path d="m0 0l652.12335 0l0 146.3202l-652.12335 0l0 -146.3202z" clip-rule="nonzero"/></clipPath><g clip-path="url(#p.0)"><path fill="#000000" fill-opacity="0.0" d="m0 0l652.12335 0l0 146.3202l-652.12335 0z" fill-rule="evenodd"/><path fill="#464746" d="m15.209643 13.118698c-1.7529278 0 -3.480813 0.083951 -5.1836576 0.25185394c-1.686141 0.16790295 -3.2971568 0.3731184 -4.8330717 0.61564255l0 0.16790295c0.31720495 19.831165 1.6527605 39.662334 4.006692 59.4935c2.3539314 19.831154 4.766285 39.54106 7.2370872 59.1297l0.15025139 0c2.2537632 0.35446167 4.1986866 0.5316925 5.8347435 0.5316925c1.4357243 0 2.7211952 -0.08395386 3.8564415 -0.2518463c1.1352215 -0.18655396 2.3622704 -0.3917694 3.6811466 -0.61564636c0.8347206 -1.4924774 1.5525932 -3.609909 2.1535969 -6.352318c0.6177063 -2.7610626 1.2354126 -5.596756 1.853096 -8.507065c0.6177063 -2.9289627 1.2604561 -5.680702 1.9282188 -8.255211c0.66778946 -2.5931625 1.4607887 -4.402771 2.378975 -5.428856l0.15024948 0c0.93488693 1.6044083 1.7612686 3.7871475 2.4791412 6.5482025c0.7178726 2.7424088 1.435749 5.578102 2.1535988 8.507072c0.7178726 2.9103088 1.4107056 5.6620483 2.0784683 8.255211c0.66778946 2.574501 1.4607887 4.552025 2.378975 5.932564l10.217064 0c0.8848038 0 1.686142 -0.121276855 2.4040146 -0.36380005c1.4357224 -19.943092 3.0968208 -39.76493 4.983322 -59.465508c1.9031754 -19.719234 3.6227264 -39.494434 5.158615 -59.325596l-0.1502533 -0.167902c-3.3889847 -0.35445976 -6.8280525 -0.53169155 -10.317226 -0.53169155c-1.8363953 0 -3.6811485 0.05596733 -5.5342445 0.167902c-1.8363914 0.111935616 -3.6310654 0.40110207 -5.3839912 0.86749744l0 0.167902c-0.4006691 5.0557346 -0.6844673 10.764423 -0.85142136 17.126068c-0.1502533 6.361641 -0.30050278 12.863201 -0.45075226 19.504688c-0.1502533 6.6414795 -0.3338852 13.1430435 -0.5509224 19.504692c-0.20033264 6.361641 -0.5008354 12.005035 -0.9015045 16.930176c-0.6177063 -1.7163391 -1.3105392 -4.346817 -2.0784721 -7.8914185c-0.7679558 -3.5632706 -1.5442543 -7.173172 -2.328888 -10.82972c-0.7679596 -3.6752014 -1.5359154 -6.9679604 -2.3038483 -9.878273c-0.7679596 -2.9289703 -1.3522606 -4.5706863 -1.7529297 -4.925144c-0.10016632 0.11193466 -0.15024948 0.23319626 -0.15024948 0.3637886c0 0.11193466 -0.05842209 0.27983856 -0.17529297 0.5037079c-1.1185417 5.167671 -2.2203827 10.242058 -3.305519 15.223175c-1.0684624 4.9811096 -2.2704678 10.055496 -3.6060238 15.223167c-1.1352215 -4.943802 -1.8614349 -10.5032425 -2.1786385 -16.67833c-0.30050278 -6.193737 -0.45075226 -12.499413 -0.45075226 -18.917027c0 -6.41761 0 -12.779251 0 -19.084932c0 -6.3056774 -0.20033646 -11.986383 -0.60100555 -17.042116c-1.8530941 -0.11193466 -3.8063564 -0.22387028 -5.859785 -0.33580494c-2.036728 -0.111935616 -4.0818176 -0.16790295 -6.135247 -0.16790295z" fill-rule="evenodd"/><path fill="#464746" d="m134.61429 11.978359c-1.4273834 0 -2.8735504 0.062963486 -4.338501 0.18889046c-1.9365692 0.16790295 -3.8063507 0.42908573 -5.6093597 0.7835455c-1.7863235 0.3358059 -3.2971878 0.736907 -4.53257 1.2033024c0.30049896 8.245883 0.42570496 15.81083 0.3756256 22.694836c-0.050086975 6.8840103 -0.38396454 14.281052 -1.0016708 22.191132l-0.1502533 0c-2.554268 0.22386932 -5.325569 0.4850502 -8.313889 0.78354645c-0.857193 0.080718994 -1.6970215 0.121082306 -2.519516 0.121082306c-2.0287552 0 -3.9518585 -0.24557495 -5.7693253 -0.73672485l-0.1502533 0c-1.2353897 -7.3504066 -1.853096 -14.747448 -1.853096 -22.191132c0 -7.4436817 -0.467453 -15.120565 -1.4023361 -23.030643c-1.4357224 -0.46639442 -2.9716187 -0.69959354 -4.6076965 -0.69959354c-1.6360626 0 -3.305519 0.05596733 -5.0083694 0.167902c-1.6861343 0.111935616 -3.3806458 0.23319912 -5.0834885 0.36378956c-0.40467834 0.026863098 -0.8050308 0.040294647 -1.2010498 0.040294647c-1.2540741 0 -2.464737 -0.134696 -3.632019 -0.4040842l-0.45075226 0l0 0.16790295c-0.10016632 5.857937 -0.1836319 12.424795 -0.25041962 19.700573c-0.050086975 7.2757835 -0.025039673 14.840725 0.07512665 22.69484c0.116867065 7.8541145 0.25041962 15.680248 0.40066528 23.478382c0.1502533 7.7794876 0.32554626 15.139221 0.5258789 22.0792c0.21704102 6.939972 0.45075226 13.189682 0.7011719 18.749123c0.25041962 5.5594406 0.48413086 9.943558 0.7011719 13.152374c0.76930237 -0.4845581 1.8433151 -0.7268219 3.2220078 -0.7268219c0.26683044 0 0.54507446 0.009063721 0.8347702 0.02722168c1.803009 0.11193848 3.7312317 0.2891693 5.7846603 0.5316925c2.0534286 0.22387695 4.1068573 0.33581543 6.160286 0.33581543c2.0534286 0 3.6894913 -0.4011078 4.9081955 -1.2033081c0.51754 -3.6752014 0.8013382 -7.3690643 0.8514252 -11.0815735c0.050079346 -3.7311707 0.025039673 -7.546303 -0.07512665 -11.445366c-0.10016632 -3.8990707 -0.17529297 -7.798149 -0.22537231 -11.697212c-0.050086975 -3.8990784 0.07511902 -7.8541183 0.3756256 -11.86512c2.971634 -0.8021927 5.9432755 -1.2033005 8.914886 -1.2033005c2.9883194 0 5.968292 0.2891693 8.939934 0.8674927l0.15024567 0.16790771c0.41736603 3.6752014 0.6761322 7.5183105 0.7762985 11.529312c0.10016632 4.011009 0.17529297 8.022026 0.22537994 12.03302c0.050079346 4.011009 0.15024567 8.050011 0.30049896 12.116974c0.16693878 4.0669785 0.50083923 7.994034 1.0016708 11.781174l0.1502533 0c1.2353973 -0.11193848 2.7462616 -0.16790771 4.5325623 -0.16790771l5.534256 0c1.9031677 0 3.85643 -0.05596924 5.859787 -0.16790771c2.0033417 -0.11193848 3.8814697 -0.34513855 5.6343994 -0.69958496l-4.1569366 -120.3582c-1.552597 -0.111935616 -3.280487 -0.19588661 -5.183655 -0.25185394c-0.4716339 -0.01399231 -0.94532776 -0.020988464 -1.4211273 -0.020988464z" fill-rule="evenodd"/><path fill="#464746" d="m187.96504 36.852734c1.3057251 0 2.5923615 0.28789902 3.859909 0.86370087c2.3539276 1.2499428 4.223709 3.199482 5.6093597 5.848606c1.3856659 2.630474 2.1869965 5.5501137 2.4040222 8.758919c0.10017395 1.9402084 0.22537231 4.029663 0.3756256 6.268368c0.1502533 2.2387009 0.22537231 3.4140205 0.22537231 3.5259552l0.32554626 11.697216l0 8.255211c0 0.22386932 -0.03338623 1.1939697 -0.10015869 2.9103165c-0.050094604 1.7163391 -0.12521362 3.72184 -0.22538757 6.01651c-0.20033264 2.406601 -0.27545166 4.328148 -0.22537231 5.764656c0.050079346 1.4365005 0.025039673 2.677124 -0.07511902 3.72184c-0.10017395 1.0260696 -0.35894775 1.9681854 -0.77630615 2.8263626c-0.40066528 0.8581619 -1.0684357 1.9681778 -2.0033417 3.3300629c-1.5359039 1.9588699 -3.430725 3.3673859 -5.684494 4.2255554c-1.884964 0.7177353 -3.7699432 1.0766068 -5.654907 1.0766068c-0.36878967 0 -0.73757935 -0.01373291 -1.1063843 -0.04120636c-2.253769 -0.16790771 -4.3572845 -0.8861542 -6.310547 -2.1547546c-1.9532471 -1.2686005 -3.4390717 -3.0409088 -4.457443 -5.3169174c-1.0350647 -3.78714 -1.6527557 -7.7701645 -1.8530884 -11.949066c-0.20033264 -4.197571 -0.55926514 -8.301849 -1.0767975 -12.312859c-0.20033264 -4.8132095 -0.22537231 -9.626419 -0.07511902 -14.439629c0.15023804 -4.8132095 0.63438416 -9.393223 1.4524231 -13.740032c1.2353973 -4.8132095 3.647766 -8.768246 7.237076 -11.86512c1.6360779 -1.3805275 3.530899 -2.3599625 5.684494 -2.9382935c0.82421875 -0.22133636 1.641098 -0.33200836 2.4506378 -0.33200836zm-1.1408844 -23.63561c-3.1275024 0 -6.260254 0.34030724 -9.398254 1.0209255c-3.9399261 0.8581686 -7.60437 2.2013893 -10.993362 4.029663c-1.3188629 0.9327946 -2.4958344 1.968193 -3.530899 3.1061993c-3.1719513 4.0110073 -5.3005066 8.628334 -6.385666 13.851965c-1.0684509 5.2049828 -1.6611023 10.391308 -1.7779694 15.558979c-0.50083923 9.048084 -0.57595825 18.077518 -0.22537231 27.088291c0.36727905 8.992119 0.7011719 17.95626 1.0016785 26.892403c0.10015869 3.320732 0.38397217 6.6134872 0.8514099 9.878273c0.467453 3.2647629 1.4190369 6.3336487 2.8547668 9.206657c0.91819763 2.29467 2.095169 4.160248 3.530899 5.596756c1.4357452 1.4178314 3.0467682 2.593155 4.833069 3.5259552c1.8030243 0.91412354 3.706192 1.5670929 5.709549 1.9588623c2.0033417 0.4104309 4.0818176 0.72758484 6.2354126 0.95144653c1.4858093 0.11193848 2.9653778 0.16790771 4.4386597 0.16790771c1.4732971 0 2.9403381 -0.05596924 4.4010925 -0.16790771c2.9215546 -0.2238617 5.818054 -0.8022003 8.689514 -1.7349854c3.188675 -0.9141388 6.1853333 -2.2013855 8.990021 -3.8617706c2.8213806 -1.6603699 5.108536 -3.8617554 6.8614655 -6.604164c1.8363953 -3.3394012 3.2136993 -7.042595 4.131897 -11.109558c0.93489075 -4.0669785 1.5025024 -8.105972 1.7028351 -12.116974l0.47579956 -5.680702c0.40066528 -5.9512177 0.5509186 -11.790497 0.4507599 -17.517845c-0.10017395 -5.7273483 0.008346558 -11.63192 0.325531 -17.713726c0.10017395 -2.873001 0.12521362 -5.7086906 0.07513428 -8.507065c-0.050079346 -2.8170357 -0.18363953 -5.6527214 -0.40066528 -8.507069c-0.2003479 -1.8469276 -0.48414612 -3.6565475 -0.8514252 -5.428852c-0.35058594 -1.7723007 -0.8848114 -3.5166206 -1.6026764 -5.2329636c-1.2353973 -4.0110054 -3.338913 -7.508976 -6.310547 -10.493914c-2.9716187 -2.5185394 -6.3355713 -4.44009 -10.091858 -5.764657c-3.7395782 -1.3245668 -7.5876617 -2.0987825 -11.544266 -2.3226528c-0.815155 -0.046318054 -1.6306763 -0.069478035 -2.4465332 -0.069478035z" fill-rule="evenodd"/><path fill="#464746" d="m268.61197 13.118698c-1.7529297 0 -3.480835 0.083951 -5.183655 0.25185394c-1.6861572 0.16790295 -3.2971802 0.3731184 -4.8330994 0.61564255l0 0.16790295c0.3171997 19.831165 1.652771 39.662334 4.006714 59.4935c2.3539124 19.831154 4.7662964 39.54106 7.237091 59.1297l0.15023804 0c2.2537537 0.35446167 4.1986694 0.5316925 5.8347473 0.5316925c1.43573 0 2.721222 -0.08395386 3.8564453 -0.2518463c1.1352234 -0.18655396 2.3622742 -0.3917694 3.6811523 -0.61564636c0.8347168 -1.4924774 1.5525818 -3.609909 2.153595 -6.352318c0.6176758 -2.7610626 1.2353821 -5.596756 1.8530884 -8.507065c0.6177063 -2.9289627 1.260437 -5.680702 1.9282227 -8.255211c0.66778564 -2.5931625 1.4607544 -4.402771 2.3789673 -5.428856l0.15023804 0c0.934906 1.6044083 1.7612915 3.7871475 2.4791565 6.5482025c0.717865 2.7424088 1.43573 5.578102 2.153595 8.507072c0.717865 2.9103088 1.410675 5.6620483 2.0784607 8.255211c0.66778564 2.574501 1.4607849 4.552025 2.3789978 5.932564l10.217041 0c0.88482666 0 1.6861572 -0.121276855 2.4040222 -0.36380005c1.43573 -19.943092 3.0968323 -39.76493 4.9833374 -59.465508c1.9031677 -19.719234 3.6227112 -39.494434 5.1586 -59.325596l-0.15023804 -0.167902c-3.3890076 -0.35445976 -6.8280945 -0.53169155 -10.31723 -0.53169155c-1.8364258 0 -3.6811523 0.05596733 -5.5342407 0.167902c-1.8364258 0.111935616 -3.631073 0.40110207 -5.3840027 0.86749744l0 0.167902c-0.40066528 5.0557346 -0.68447876 10.764423 -0.8514099 17.126068c-0.15026855 6.361641 -0.3005066 12.863201 -0.45077515 19.504688c-0.15023804 6.6414795 -0.33389282 13.1430435 -0.5509033 19.504692c-0.2003479 6.361641 -0.5008545 12.005035 -0.9015198 16.930176c-0.6177063 -1.7163391 -1.3105164 -4.346817 -2.0784607 -7.8914185c-0.76794434 -3.5632706 -1.5442505 -7.173172 -2.328888 -10.82972c-0.76794434 -3.6752014 -1.5359192 -6.9679604 -2.3038635 -9.878273c-0.76794434 -2.9289703 -1.3522644 -4.5706863 -1.7529297 -4.925144c-0.10015869 0.11193466 -0.15023804 0.23319626 -0.15023804 0.3637886c0 0.11193466 -0.058441162 0.27983856 -0.17529297 0.5037079c-1.1185303 5.167671 -2.2203674 10.242058 -3.3055115 15.223175c-1.0684509 4.9811096 -2.2704773 10.055496 -3.6060486 15.223167c-1.1352234 -4.943802 -1.8614197 -10.5032425 -2.1786194 -16.67833c-0.3005066 -6.193737 -0.45074463 -12.499413 -0.45074463 -18.917027c0 -6.41761 0 -12.779251 0 -19.084932c0 -6.3056774 -0.2003479 -11.986383 -0.6010132 -17.042116c-1.8530884 -0.11193466 -3.806366 -0.22387028 -5.8598022 -0.33580494c-2.0367126 -0.111935616 -4.0818176 -0.16790295 -6.1352234 -0.16790295z" fill-rule="evenodd"/><path fill="#464746" d="m386.1322 13.622406c-3.372284 0 -7.2621155 0.06529617 -11.669495 0.19588661c-4.4073486 0.11193466 -8.973297 0.22387028 -13.697876 0.33580494c-4.7245483 0.111935616 -9.424072 0.25185394 -14.098541 0.4197569c-4.657776 0.167902 -8.981659 0.37311745 -12.971649 0.61564255c-0.5175476 9.850288 -0.8263855 19.653933 -0.9265747 29.410944c-0.10015869 9.73835 -0.10015869 19.476707 0 29.215057c0.10018921 9.73835 0.25042725 19.514023 0.45077515 29.326988c0.20031738 9.794319 0.3005066 19.672592 0.3005066 29.634811c6.964966 0.63990784 14.142609 0.95983887 21.532959 0.95983887c3.1672668 0 6.3736267 -0.058761597 9.619049 -0.17628479c8.219482 -0.31137085 16.333282 -0.46704102 24.34137 -0.46704102c2.5480347 0 5.0853577 0.01576233 7.6119995 0.047286987c0.8180542 -3.4513397 1.2771301 -7.1545334 1.3773193 -11.109566c0.10015869 -3.95504 0.050079346 -7.7608337 -0.15026855 -11.417374l0 -0.36379242c-2.6681824 0.09273529 -5.307068 0.13909912 -7.916687 0.13909912c-4.215515 0 -8.354614 -0.12099457 -12.417267 -0.36296844c-6.560974 -0.41042328 -13.222076 -0.61564636 -19.983368 -0.61564636l-0.15026855 -0.16790009c-0.20031738 -2.7610626 -0.38397217 -6.203064 -0.5509033 -10.326012c-0.15026855 -4.1229477 0.03338623 -7.8447876 0.5509033 -11.165527c0.5175476 -0.4663849 1.4941711 -0.7555618 2.9299011 -0.8674927c1.43573 -0.11193848 3.046753 -0.16790009 4.833069 -0.16790009c1.803009 0 3.6727905 -0.02798462 5.609375 -0.08395386c1.9532471 -0.05596924 3.6978455 -0.31715393 5.233734 -0.78354645c-0.10015869 -4.234871 -0.050079346 -8.301849 0.15026855 -12.20092c0.2170105 -3.8990707 0.06677246 -7.7981415 -0.45077515 -11.69722l0 -0.1679039c-3.1886597 -0.11193466 -6.3689575 -0.16790009 -9.540924 -0.16790009c-3.1719666 0 -6.302185 -0.1212616 -9.390686 -0.3637886l-0.15023804 -0.1679039c-0.717865 -3.0968742 -0.9015198 -6.389633 -0.55093384 -9.878273c0.36727905 -3.4886436 0.500824 -6.902664 0.40066528 -10.242058l0.15026855 -0.1679039l0.47576904 0c3.3723145 -0.335804 6.75296 -0.5037079 10.141937 -0.5037079c3.3890076 0 6.7696533 0.02798462 10.141937 0.08395004c0.8472595 0.01399231 1.6929321 0.020988464 2.5370789 0.020988464c2.5323486 0 5.050598 -0.06296158 7.554779 -0.18888855c3.3389282 -0.1679039 6.6444397 -0.6529541 9.916565 -1.4551582l0 -0.1958847c0 -4.0110054 0.12521362 -8.077978 0.37564087 -12.200924c0.26712036 -4.122944 0.14190674 -8.18992 -0.37564087 -12.200925c0 -0.11193466 -1.0267029 -0.22387028 -3.0801392 -0.33580494c-2.0534363 -0.13059044 -4.7746277 -0.19588661 -8.163635 -0.19588661z" fill-rule="evenodd"/><path fill="#464746" d="m463.1347 48.388382c0.3656311 0 0.7312927 0.6309204 1.0969238 1.892765c0.56762695 1.9402046 1.2353821 5.6620445 2.003357 11.165524c0.76794434 5.4848175 1.6611023 13.161697 2.6794739 23.030647c-1.9365845 0 -3.8815002 0.02797699 -5.8347473 0.08394623c-0.6510925 0.01865387 -1.2901306 0.02798462 -1.9170837 0.02798462c-1.2539368 0 -2.4596558 -0.03731537 -3.617157 -0.11193085c0.717865 -5.8579407 1.3522644 -11.30545 1.9031677 -16.34253c0.56762695 -5.037075 1.085144 -9.215984 1.5526123 -12.536728c0.46743774 -3.3393936 0.97662354 -5.55011 1.5275269 -6.6321526c0.20199585 -0.38501358 0.40396118 -0.5775261 0.6059265 -0.5775261zm8.859894 -35.969276c-3.372284 0.35445976 -6.110199 0.5596752 -8.213715 0.6156435c-2.1035156 0.05596733 -3.823059 0.083951 -5.1586304 0.083951l-3.2303772 0c-0.8180237 0 -1.585968 0.05596733 -2.3038635 0.16790295c-2.4707642 9.178676 -4.7328796 18.413322 -6.786316 27.703934c-2.0534363 9.271954 -3.956604 18.2081 -5.7095337 26.808453c-1.7362366 8.600342 -3.2471008 16.715645 -4.532593 24.345879c-1.2687683 7.6115875 -2.3706055 14.337021 -3.3055115 20.1763c-0.9181824 5.8392715 -1.6360474 10.596519 -2.153595 14.271721c-0.500824 3.675209 -0.8514099 5.9139023 -1.0517578 6.7161026c0.10015869 0.11193848 0.2003479 0.16790771 0.3005066 0.16790771c2.3261108 -0.037322998 4.4463196 -0.05596924 6.360626 -0.05596924c3.8286133 0 6.8336487 0.07461548 9.015045 0.22387695c1.6444092 0.11192322 2.9799805 0.16789246 4.006714 0.16789246c1.0267029 0 1.7445679 -0.05596924 2.153595 -0.16789246c0.10015869 0 0.17529297 -0.02798462 0.22537231 -0.08395386c0.050079346 -0.05596924 0.12521362 -0.08395386 0.22537231 -0.08395386c0.934906 -1.9588623 1.652771 -4.197571 2.153595 -6.7161026c0.5175171 -2.5185394 1.0016785 -5.1210327 1.4524231 -7.807472c0.46743774 -2.7050934 0.9348755 -5.288933 1.4023438 -7.7515106c0.46743774 -2.4625702 1.0600891 -4.6079865 1.7779541 -6.436264c1.1185303 0 2.0116882 -0.02798462 2.6794739 -0.08395386c0.66778564 -0.05596924 1.285492 -0.08394623 1.8531189 -0.08394623l1.9282227 0c0.717865 0 1.7445679 0.11193085 3.0801392 0.33580017c0.717865 1.7163467 1.3772888 3.7778091 1.978302 6.1844177c0.6176758 2.406601 1.2103577 4.934471 1.7779541 7.583603c0.56762695 2.6304703 1.1352234 5.204979 1.7028503 7.7235184c0.56762695 2.5185394 1.1519165 4.6919403 1.7529297 6.520218l0.17529297 0c3.2721252 0.8022003 6.7529297 1.2872467 10.442444 1.4551544c0.7885437 0.03968811 1.5627441 0.059539795 2.3225708 0.059539795c2.8113708 0 5.426178 -0.271698 7.8444214 -0.815094l0 -0.16790771l-11.544281 -60.193092c-0.4006958 -1.9402084 -0.95996094 -4.5706787 -1.6778259 -7.891426c-0.717865 -3.3207397 -1.4941406 -6.986614 -2.328888 -10.99762c-0.8180237 -4.0110054 -1.6611023 -8.189911 -2.5292053 -12.536728c-0.86813354 -4.365471 -1.6861572 -8.469757 -2.4541016 -12.3128605c-0.76794434 -3.8431053 -1.4858093 -7.2851105 -2.153595 -10.326012c-0.66778564 -3.0409012 -1.1602783 -5.3075876 -1.477478 -6.8000565z" fill-rule="evenodd"/><path fill="#464746" d="m534.5654 34.84492c3.1727295 0 5.809143 1.069107 7.9093018 3.2073174c1.43573 1.2685966 2.4624023 2.966278 3.0801392 5.0930443c0.6176758 2.1081085 0.8180542 4.2255516 0.6010132 6.352318c-0.20037842 2.1081085 -0.8430786 4.0576477 -1.9282227 5.848606c-1.0684814 1.7723045 -2.5793457 2.8823318 -4.532593 3.3300705c-1.979126 0.37612915 -4.0613403 0.5641899 -6.246765 0.5641899c-0.5244751 0 -1.0549316 -0.01083374 -1.5913086 -0.032497406c-2.7713013 -0.11193466 -5.3339233 -0.2891655 -7.687866 -0.5316925l-0.17529297 0c-0.20031738 -1.2499428 -0.3255005 -2.789051 -0.37561035 -4.617321c-0.050109863 -1.8469315 -0.07513428 -3.7405014 -0.07513428 -5.680706c0 -1.9588661 -0.025024414 -3.8804207 -0.07513428 -5.764656c-0.050048828 -1.9028969 -0.1251831 -3.5912514 -0.2253418 -5.0650635c3.5892944 -1.6230583 7.12854 -2.5185394 10.617737 -2.6864433c0.237854 -0.011444092 0.4729004 -0.017166138 0.7050781 -0.017166138zm-32.6922 98.796326c-0.005554199 0.0011749268 -0.010986328 0.0023651123 -0.016357422 0.0035552979c0.005493164 0 0.010955811 -0.0011901855 0.016357422 -0.0035552979zm27.660217 -123.32367c-3.3497314 0 -6.632019 0.18746948 -9.846802 0.5624113c-6.86145 0.8022003 -13.163635 1.660368 -18.906555 2.5745068c0.20031738 1.4924688 0.37561035 4.3374853 0.5258789 8.53505c0.15023804 4.1789074 0.27545166 9.225311 0.37561035 15.139219c0.11685181 5.895252 0.25042725 12.368828 0.40066528 19.420738c0.15026855 7.0332527 0.25042725 14.131802 0.3005066 21.29565c0.050079346 7.1638412 0.07513428 14.103821 0.07513428 20.819923c0 6.6974564 0 12.6300125 0 17.797676c0 5.1490173 -0.050079346 9.29995 -0.15026855 12.452782c-0.09741211 3.0664215 -0.2421875 4.6416626 -0.4343872 4.725708l0 0c0.2539978 -0.053604126 0.711792 -0.08039856 1.3734741 -0.08039856c0.67611694 0 1.565094 0.02798462 2.6669617 0.08395386c1.4802246 0.07461548 3.079193 0.11192322 4.796875 0.11192322c0.8588562 0 1.747406 -0.00932312 2.6655579 -0.02798462c2.7713013 -0.05595398 5.567627 -0.19587708 8.389038 -0.41975403c2.82135 -0.2425232 5.1085205 -0.7648773 6.86145 -1.5670929c-0.10015869 -2.1640778 -0.25878906 -5.083725 -0.47576904 -8.758911c-0.20037842 -3.675209 -0.3756714 -7.546303 -0.5258789 -11.613266c-0.15026855 -4.0669785 -0.22540283 -8.012695 -0.22540283 -11.837135c0 -3.8431091 0.15026855 -7.089226 0.45074463 -9.738358l0.3005371 0.5316925c2.1535645 2.966278 4.30719 6.3989563 6.4607544 10.298027c2.1536255 3.8990784 4.1569214 7.854126 6.010071 11.86512c1.8530884 4.011017 3.5475464 7.854126 5.083496 11.529312c1.5358887 3.675209 2.8129883 6.828041 3.8313599 9.458519l0.17529297 0c2.5133057 0.1831665 4.996826 0.27474976 7.4504395 0.27474976c2.0447998 0 4.0687866 -0.06359863 6.0721436 -0.1907959c4.4073486 -0.2798462 8.405701 -0.41975403 11.995056 -0.41975403l-0.15026855 0c-1.5358887 -4.7012787 -3.430725 -9.253304 -5.6845093 -13.65609c-2.2537231 -4.4214325 -4.616028 -8.749588 -7.086792 -12.984467c-2.4541016 -4.2535324 -4.966614 -8.469749 -7.5375977 -12.648666c-2.5542603 -4.197563 -4.908203 -8.41378 -7.0618286 -12.648659l0 -0.16790771l0.75128174 0c4.9248657 -0.33580017 8.998352 -1.8749084 12.220398 -4.617317c3.2387085 -2.7610703 5.834778 -6.2124023 7.788025 -10.353996c3.1886597 -5.9512215 4.699463 -12.107651 4.5325317 -18.469292c-0.15020752 -6.361641 -1.5609131 -12.172939 -4.2320557 -17.43389c-2.654419 -5.279604 -6.393982 -9.6917095 -11.21875 -13.236322c-4.824707 -3.5632687 -10.258789 -5.522133 -16.302185 -5.8765926c-3.9923706 -0.48687744 -7.8970947 -0.73031425 -11.714233 -0.73031425z" fill-rule="evenodd"/><path fill="#464746" d="m634.9188 13.622406c-3.3722534 0 -7.262085 0.06529617 -11.669434 0.19588661c-4.4074097 0.11193466 -8.973328 0.22387028 -13.697876 0.33580494c-4.7246094 0.111935616 -9.424133 0.25185394 -14.098572 0.4197569c-4.657776 0.167902 -8.981689 0.37311745 -12.97168 0.61564255c-0.5175171 9.850288 -0.826355 19.653933 -0.9265137 29.410944c-0.10015869 9.73835 -0.10015869 19.476707 0 29.215057c0.10015869 9.73835 0.25042725 19.514023 0.45074463 29.326988c0.20031738 9.794319 0.30047607 19.672592 0.30047607 29.634811c6.964966 0.63990784 14.142639 0.95983887 21.532959 0.95983887c3.1672974 0 6.373657 -0.058761597 9.61908 -0.17628479c8.219482 -0.31137085 16.333252 -0.46704102 24.34137 -0.46704102c2.5480347 0 5.085388 0.01576233 7.6119995 0.047286987c0.8180542 -3.4513397 1.2771606 -7.1545334 1.3773193 -11.109566c0.10015869 -3.95504 0.050048828 -7.7608337 -0.15026855 -11.417374l0 -0.36379242c-2.6681519 0.09273529 -5.307068 0.13909912 -7.916687 0.13909912c-4.215515 0 -8.354614 -0.12099457 -12.417297 -0.36296844c-6.560913 -0.41042328 -13.222046 -0.61564636 -19.983337 -0.61564636l-0.15026855 -0.16790009c-0.20031738 -2.7610626 -0.38397217 -6.203064 -0.5509033 -10.326012c-0.15026855 -4.1229477 0.03338623 -7.8447876 0.5509033 -11.165527c0.5175171 -0.4663849 1.4942017 -0.7555618 2.9298706 -0.8674927c1.43573 -0.11193848 3.046753 -0.16790009 4.833069 -0.16790009c1.8030396 0 3.6728516 -0.02798462 5.609375 -0.08395386c1.9533081 -0.05596924 3.697876 -0.31715393 5.2337646 -0.78354645c-0.10015869 -4.234871 -0.050109863 -8.301849 0.15026855 -12.20092c0.21704102 -3.8990707 0.06677246 -7.7981415 -0.45074463 -11.69722l0 -0.1679039c-3.1886597 -0.11193466 -6.3690186 -0.16790009 -9.540955 -0.16790009c-3.171997 0 -6.302185 -0.1212616 -9.390686 -0.3637886l-0.15026855 -0.1679039c-0.7178345 -3.0968742 -0.90148926 -6.389633 -0.5509033 -9.878273c0.36730957 -3.4886436 0.5008545 -6.902664 0.40063477 -10.242058l0.15026855 -0.1679039l0.47583008 0c3.3722534 -0.335804 6.7529297 -0.5037079 10.141907 -0.5037079c3.388977 0 6.7696533 0.02798462 10.141968 0.08395004c0.847229 0.01399231 1.6928711 0.020988464 2.5370483 0.020988464c2.5323486 0 5.050598 -0.06296158 7.5548096 -0.18888855c3.3388672 -0.1679039 6.644409 -0.6529541 9.916565 -1.4551582l0 -0.1958847c0 -4.0110054 0.1251831 -8.077978 0.37561035 -12.200924c0.26708984 -4.122944 0.14190674 -8.18992 -0.37561035 -12.200925c0 -0.11193466 -1.0267334 -0.22387028 -3.0802002 -0.33580494c-2.0534058 -0.13059044 -4.774597 -0.19588661 -8.163635 -0.19588661z" fill-rule="evenodd"/><path stroke="#2a2b2a" stroke-width="4.0" stroke-linejoin="round" stroke-linecap="butt" d="m15.209643 13.118698c-1.7529278 0 -3.480813 0.083951 -5.1836576 0.25185394c-1.686141 0.16790295 -3.2971568 0.3731184 -4.8330717 0.61564255l0 0.16790295c0.31720495 19.831165 1.6527605 39.662334 4.006692 59.4935c2.3539314 19.831154 4.766285 39.54106 7.2370872 59.1297l0.15025139 0c2.2537632 0.35446167 4.1986866 0.5316925 5.8347435 0.5316925c1.4357243 0 2.7211952 -0.08395386 3.8564415 -0.2518463c1.1352215 -0.18655396 2.3622704 -0.3917694 3.6811466 -0.61564636c0.8347206 -1.4924774 1.5525932 -3.609909 2.1535969 -6.352318c0.6177063 -2.7610626 1.2354126 -5.596756 1.853096 -8.507065c0.6177063 -2.9289627 1.2604561 -5.680702 1.9282188 -8.255211c0.66778946 -2.5931625 1.4607887 -4.402771 2.378975 -5.428856l0.15024948 0c0.93488693 1.6044083 1.7612686 3.7871475 2.4791412 6.5482025c0.7178726 2.7424088 1.435749 5.578102 2.1535988 8.507072c0.7178726 2.9103088 1.4107056 5.6620483 2.0784683 8.255211c0.66778946 2.574501 1.4607887 4.552025 2.378975 5.932564l10.217064 0c0.8848038 0 1.686142 -0.121276855 2.4040146 -0.36380005c1.4357224 -19.943092 3.0968208 -39.76493 4.983322 -59.465508c1.9031754 -19.719234 3.6227264 -39.494434 5.158615 -59.325596l-0.1502533 -0.167902c-3.3889847 -0.35445976 -6.8280525 -0.53169155 -10.317226 -0.53169155c-1.8363953 0 -3.6811485 0.05596733 -5.5342445 0.167902c-1.8363914 0.111935616 -3.6310654 0.40110207 -5.3839912 0.86749744l0 0.167902c-0.4006691 5.0557346 -0.6844673 10.764423 -0.85142136 17.126068c-0.1502533 6.361641 -0.30050278 12.863201 -0.45075226 19.504688c-0.1502533 6.6414795 -0.3338852 13.1430435 -0.5509224 19.504692c-0.20033264 6.361641 -0.5008354 12.005035 -0.9015045 16.930176c-0.6177063 -1.7163391 -1.3105392 -4.346817 -2.0784721 -7.8914185c-0.7679558 -3.5632706 -1.5442543 -7.173172 -2.328888 -10.82972c-0.7679596 -3.6752014 -1.5359154 -6.9679604 -2.3038483 -9.878273c-0.7679596 -2.9289703 -1.3522606 -4.5706863 -1.7529297 -4.925144c-0.10016632 0.11193466 -0.15024948 0.23319626 -0.15024948 0.3637886c0 0.11193466 -0.05842209 0.27983856 -0.17529297 0.5037079c-1.1185417 5.167671 -2.2203827 10.242058 -3.305519 15.223175c-1.0684624 4.9811096 -2.2704678 10.055496 -3.6060238 15.223167c-1.1352215 -4.943802 -1.8614349 -10.5032425 -2.1786385 -16.67833c-0.30050278 -6.193737 -0.45075226 -12.499413 -0.45075226 -18.917027c0 -6.41761 0 -12.779251 0 -19.084932c0 -6.3056774 -0.20033646 -11.986383 -0.60100555 -17.042116c-1.8530941 -0.11193466 -3.8063564 -0.22387028 -5.859785 -0.33580494c-2.036728 -0.111935616 -4.0818176 -0.16790295 -6.135247 -0.16790295z" fill-rule="evenodd"/><path stroke="#2a2b2a" stroke-width="4.0" stroke-linejoin="round" stroke-linecap="butt" d="m134.61429 11.978359c-1.4273834 0 -2.8735504 0.062963486 -4.338501 0.18889046c-1.9365692 0.16790295 -3.8063507 0.42908573 -5.6093597 0.7835455c-1.7863235 0.3358059 -3.2971878 0.736907 -4.53257 1.2033024c0.30049896 8.245883 0.42570496 15.81083 0.3756256 22.694836c-0.050086975 6.8840103 -0.38396454 14.281052 -1.0016708 22.191132l-0.1502533 0c-2.554268 0.22386932 -5.325569 0.4850502 -8.313889 0.78354645c-0.857193 0.080718994 -1.6970215 0.121082306 -2.519516 0.121082306c-2.0287552 0 -3.9518585 -0.24557495 -5.7693253 -0.73672485l-0.1502533 0c-1.2353897 -7.3504066 -1.853096 -14.747448 -1.853096 -22.191132c0 -7.4436817 -0.467453 -15.120565 -1.4023361 -23.030643c-1.4357224 -0.46639442 -2.9716187 -0.69959354 -4.6076965 -0.69959354c-1.6360626 0 -3.305519 0.05596733 -5.0083694 0.167902c-1.6861343 0.111935616 -3.3806458 0.23319912 -5.0834885 0.36378956c-0.40467834 0.026863098 -0.8050308 0.040294647 -1.2010498 0.040294647c-1.2540741 0 -2.464737 -0.134696 -3.632019 -0.4040842l-0.45075226 0l0 0.16790295c-0.10016632 5.857937 -0.1836319 12.424795 -0.25041962 19.700573c-0.050086975 7.2757835 -0.025039673 14.840725 0.07512665 22.69484c0.116867065 7.8541145 0.25041962 15.680248 0.40066528 23.478382c0.1502533 7.7794876 0.32554626 15.139221 0.5258789 22.0792c0.21704102 6.939972 0.45075226 13.189682 0.7011719 18.749123c0.25041962 5.5594406 0.48413086 9.943558 0.7011719 13.152374c0.76930237 -0.4845581 1.8433151 -0.7268219 3.2220078 -0.7268219c0.26683044 0 0.54507446 0.009063721 0.8347702 0.02722168c1.803009 0.11193848 3.7312317 0.2891693 5.7846603 0.5316925c2.0534286 0.22387695 4.1068573 0.33581543 6.160286 0.33581543c2.0534286 0 3.6894913 -0.4011078 4.9081955 -1.2033081c0.51754 -3.6752014 0.8013382 -7.3690643 0.8514252 -11.0815735c0.050079346 -3.7311707 0.025039673 -7.546303 -0.07512665 -11.445366c-0.10016632 -3.8990707 -0.17529297 -7.798149 -0.22537231 -11.697212c-0.050086975 -3.8990784 0.07511902 -7.8541183 0.3756256 -11.86512c2.971634 -0.8021927 5.9432755 -1.2033005 8.914886 -1.2033005c2.9883194 0 5.968292 0.2891693 8.939934 0.8674927l0.15024567 0.16790771c0.41736603 3.6752014 0.6761322 7.5183105 0.7762985 11.529312c0.10016632 4.011009 0.17529297 8.022026 0.22537994 12.03302c0.050079346 4.011009 0.15024567 8.050011 0.30049896 12.116974c0.16693878 4.0669785 0.50083923 7.994034 1.0016708 11.781174l0.1502533 0c1.2353973 -0.11193848 2.7462616 -0.16790771 4.5325623 -0.16790771l5.534256 0c1.9031677 0 3.85643 -0.05596924 5.859787 -0.16790771c2.0033417 -0.11193848 3.8814697 -0.34513855 5.6343994 -0.69958496l-4.1569366 -120.3582c-1.552597 -0.111935616 -3.280487 -0.19588661 -5.183655 -0.25185394c-0.4716339 -0.01399231 -0.94532776 -0.020988464 -1.4211273 -0.020988464z" fill-rule="evenodd"/><path stroke="#2a2b2a" stroke-width="4.0" stroke-linejoin="round" stroke-linecap="butt" d="m187.96504 36.852734c1.3057251 0 2.5923615 0.28789902 3.859909 0.86370087c2.3539276 1.2499428 4.223709 3.199482 5.6093597 5.848606c1.3856659 2.630474 2.1869965 5.5501137 2.4040222 8.758919c0.10017395 1.9402084 0.22537231 4.029663 0.3756256 6.268368c0.1502533 2.2387009 0.22537231 3.4140205 0.22537231 3.5259552l0.32554626 11.697216l0 8.255211c0 0.22386932 -0.03338623 1.1939697 -0.10015869 2.9103165c-0.050094604 1.7163391 -0.12521362 3.72184 -0.22538757 6.01651c-0.20033264 2.406601 -0.27545166 4.328148 -0.22537231 5.764656c0.050079346 1.4365005 0.025039673 2.677124 -0.07511902 3.72184c-0.10017395 1.0260696 -0.35894775 1.9681854 -0.77630615 2.8263626c-0.40066528 0.8581619 -1.0684357 1.9681778 -2.0033417 3.3300629c-1.5359039 1.9588699 -3.430725 3.3673859 -5.684494 4.2255554c-1.884964 0.7177353 -3.7699432 1.0766068 -5.654907 1.0766068c-0.36878967 0 -0.73757935 -0.01373291 -1.1063843 -0.04120636c-2.253769 -0.16790771 -4.3572845 -0.8861542 -6.310547 -2.1547546c-1.9532471 -1.2686005 -3.4390717 -3.0409088 -4.457443 -5.3169174c-1.0350647 -3.78714 -1.6527557 -7.7701645 -1.8530884 -11.949066c-0.20033264 -4.197571 -0.55926514 -8.301849 -1.0767975 -12.312859c-0.20033264 -4.8132095 -0.22537231 -9.626419 -0.07511902 -14.439629c0.15023804 -4.8132095 0.63438416 -9.393223 1.4524231 -13.740032c1.2353973 -4.8132095 3.647766 -8.768246 7.237076 -11.86512c1.6360779 -1.3805275 3.530899 -2.3599625 5.684494 -2.9382935c0.82421875 -0.22133636 1.641098 -0.33200836 2.4506378 -0.33200836zm-1.1408844 -23.63561c-3.1275024 0 -6.260254 0.34030724 -9.398254 1.0209255c-3.9399261 0.8581686 -7.60437 2.2013893 -10.993362 4.029663c-1.3188629 0.9327946 -2.4958344 1.968193 -3.530899 3.1061993c-3.1719513 4.0110073 -5.3005066 8.628334 -6.385666 13.851965c-1.0684509 5.2049828 -1.6611023 10.391308 -1.7779694 15.558979c-0.50083923 9.048084 -0.57595825 18.077518 -0.22537231 27.088291c0.36727905 8.992119 0.7011719 17.95626 1.0016785 26.892403c0.10015869 3.320732 0.38397217 6.6134872 0.8514099 9.878273c0.467453 3.2647629 1.4190369 6.3336487 2.8547668 9.206657c0.91819763 2.29467 2.095169 4.160248 3.530899 5.596756c1.4357452 1.4178314 3.0467682 2.593155 4.833069 3.5259552c1.8030243 0.91412354 3.706192 1.5670929 5.709549 1.9588623c2.0033417 0.4104309 4.0818176 0.72758484 6.2354126 0.95144653c1.4858093 0.11193848 2.9653778 0.16790771 4.4386597 0.16790771c1.4732971 0 2.9403381 -0.05596924 4.4010925 -0.16790771c2.9215546 -0.2238617 5.818054 -0.8022003 8.689514 -1.7349854c3.188675 -0.9141388 6.1853333 -2.2013855 8.990021 -3.8617706c2.8213806 -1.6603699 5.108536 -3.8617554 6.8614655 -6.604164c1.8363953 -3.3394012 3.2136993 -7.042595 4.131897 -11.109558c0.93489075 -4.0669785 1.5025024 -8.105972 1.7028351 -12.116974l0.47579956 -5.680702c0.40066528 -5.9512177 0.5509186 -11.790497 0.4507599 -17.517845c-0.10017395 -5.7273483 0.008346558 -11.63192 0.325531 -17.713726c0.10017395 -2.873001 0.12521362 -5.7086906 0.07513428 -8.507065c-0.050079346 -2.8170357 -0.18363953 -5.6527214 -0.40066528 -8.507069c-0.2003479 -1.8469276 -0.48414612 -3.6565475 -0.8514252 -5.428852c-0.35058594 -1.7723007 -0.8848114 -3.5166206 -1.6026764 -5.2329636c-1.2353973 -4.0110054 -3.338913 -7.508976 -6.310547 -10.493914c-2.9716187 -2.5185394 -6.3355713 -4.44009 -10.091858 -5.764657c-3.7395782 -1.3245668 -7.5876617 -2.0987825 -11.544266 -2.3226528c-0.815155 -0.046318054 -1.6306763 -0.069478035 -2.4465332 -0.069478035z" fill-rule="evenodd"/><path stroke="#2a2b2a" stroke-width="4.0" stroke-linejoin="round" stroke-linecap="butt" d="m268.61197 13.118698c-1.7529297 0 -3.480835 0.083951 -5.183655 0.25185394c-1.6861572 0.16790295 -3.2971802 0.3731184 -4.8330994 0.61564255l0 0.16790295c0.3171997 19.831165 1.652771 39.662334 4.006714 59.4935c2.3539124 19.831154 4.7662964 39.54106 7.237091 59.1297l0.15023804 0c2.2537537 0.35446167 4.1986694 0.5316925 5.8347473 0.5316925c1.43573 0 2.721222 -0.08395386 3.8564453 -0.2518463c1.1352234 -0.18655396 2.3622742 -0.3917694 3.6811523 -0.61564636c0.8347168 -1.4924774 1.5525818 -3.609909 2.153595 -6.352318c0.6176758 -2.7610626 1.2353821 -5.596756 1.8530884 -8.507065c0.6177063 -2.9289627 1.260437 -5.680702 1.9282227 -8.255211c0.66778564 -2.5931625 1.4607544 -4.402771 2.3789673 -5.428856l0.15023804 0c0.934906 1.6044083 1.7612915 3.7871475 2.4791565 6.5482025c0.717865 2.7424088 1.43573 5.578102 2.153595 8.507072c0.717865 2.9103088 1.410675 5.6620483 2.0784607 8.255211c0.66778564 2.574501 1.4607849 4.552025 2.3789978 5.932564l10.217041 0c0.88482666 0 1.6861572 -0.121276855 2.4040222 -0.36380005c1.43573 -19.943092 3.0968323 -39.76493 4.9833374 -59.465508c1.9031677 -19.719234 3.6227112 -39.494434 5.1586 -59.325596l-0.15023804 -0.167902c-3.3890076 -0.35445976 -6.8280945 -0.53169155 -10.31723 -0.53169155c-1.8364258 0 -3.6811523 0.05596733 -5.5342407 0.167902c-1.8364258 0.111935616 -3.631073 0.40110207 -5.3840027 0.86749744l0 0.167902c-0.40066528 5.0557346 -0.68447876 10.764423 -0.8514099 17.126068c-0.15026855 6.361641 -0.3005066 12.863201 -0.45077515 19.504688c-0.15023804 6.6414795 -0.33389282 13.1430435 -0.5509033 19.504692c-0.2003479 6.361641 -0.5008545 12.005035 -0.9015198 16.930176c-0.6177063 -1.7163391 -1.3105164 -4.346817 -2.0784607 -7.8914185c-0.76794434 -3.5632706 -1.5442505 -7.173172 -2.328888 -10.82972c-0.76794434 -3.6752014 -1.5359192 -6.9679604 -2.3038635 -9.878273c-0.76794434 -2.9289703 -1.3522644 -4.5706863 -1.7529297 -4.925144c-0.10015869 0.11193466 -0.15023804 0.23319626 -0.15023804 0.3637886c0 0.11193466 -0.058441162 0.27983856 -0.17529297 0.5037079c-1.1185303 5.167671 -2.2203674 10.242058 -3.3055115 15.223175c-1.0684509 4.9811096 -2.2704773 10.055496 -3.6060486 15.223167c-1.1352234 -4.943802 -1.8614197 -10.5032425 -2.1786194 -16.67833c-0.3005066 -6.193737 -0.45074463 -12.499413 -0.45074463 -18.917027c0 -6.41761 0 -12.779251 0 -19.084932c0 -6.3056774 -0.2003479 -11.986383 -0.6010132 -17.042116c-1.8530884 -0.11193466 -3.806366 -0.22387028 -5.8598022 -0.33580494c-2.0367126 -0.111935616 -4.0818176 -0.16790295 -6.1352234 -0.16790295z" fill-rule="evenodd"/><path stroke="#2a2b2a" stroke-width="4.0" stroke-linejoin="round" stroke-linecap="butt" d="m386.1322 13.622406c-3.372284 0 -7.2621155 0.06529617 -11.669495 0.19588661c-4.4073486 0.11193466 -8.973297 0.22387028 -13.697876 0.33580494c-4.7245483 0.111935616 -9.424072 0.25185394 -14.098541 0.4197569c-4.657776 0.167902 -8.981659 0.37311745 -12.971649 0.61564255c-0.5175476 9.850288 -0.8263855 19.653933 -0.9265747 29.410944c-0.10015869 9.73835 -0.10015869 19.476707 0 29.215057c0.10018921 9.73835 0.25042725 19.514023 0.45077515 29.326988c0.20031738 9.794319 0.3005066 19.672592 0.3005066 29.634811c6.964966 0.63990784 14.142609 0.95983887 21.532959 0.95983887c3.1672668 0 6.3736267 -0.058761597 9.619049 -0.17628479c8.219482 -0.31137085 16.333282 -0.46704102 24.34137 -0.46704102c2.5480347 0 5.0853577 0.01576233 7.6119995 0.047286987c0.8180542 -3.4513397 1.2771301 -7.1545334 1.3773193 -11.109566c0.10015869 -3.95504 0.050079346 -7.7608337 -0.15026855 -11.417374l0 -0.36379242c-2.6681824 0.09273529 -5.307068 0.13909912 -7.916687 0.13909912c-4.215515 0 -8.354614 -0.12099457 -12.417267 -0.36296844c-6.560974 -0.41042328 -13.222076 -0.61564636 -19.983368 -0.61564636l-0.15026855 -0.16790009c-0.20031738 -2.7610626 -0.38397217 -6.203064 -0.5509033 -10.326012c-0.15026855 -4.1229477 0.03338623 -7.8447876 0.5509033 -11.165527c0.5175476 -0.4663849 1.4941711 -0.7555618 2.9299011 -0.8674927c1.43573 -0.11193848 3.046753 -0.16790009 4.833069 -0.16790009c1.803009 0 3.6727905 -0.02798462 5.609375 -0.08395386c1.9532471 -0.05596924 3.6978455 -0.31715393 5.233734 -0.78354645c-0.10015869 -4.234871 -0.050079346 -8.301849 0.15026855 -12.20092c0.2170105 -3.8990707 0.06677246 -7.7981415 -0.45077515 -11.69722l0 -0.1679039c-3.1886597 -0.11193466 -6.3689575 -0.16790009 -9.540924 -0.16790009c-3.1719666 0 -6.302185 -0.1212616 -9.390686 -0.3637886l-0.15023804 -0.1679039c-0.717865 -3.0968742 -0.9015198 -6.389633 -0.55093384 -9.878273c0.36727905 -3.4886436 0.500824 -6.902664 0.40066528 -10.242058l0.15026855 -0.1679039l0.47576904 0c3.3723145 -0.335804 6.75296 -0.5037079 10.141937 -0.5037079c3.3890076 0 6.7696533 0.02798462 10.141937 0.08395004c0.8472595 0.01399231 1.6929321 0.020988464 2.5370789 0.020988464c2.5323486 0 5.050598 -0.06296158 7.554779 -0.18888855c3.3389282 -0.1679039 6.6444397 -0.6529541 9.916565 -1.4551582l0 -0.1958847c0 -4.0110054 0.12521362 -8.077978 0.37564087 -12.200924c0.26712036 -4.122944 0.14190674 -8.18992 -0.37564087 -12.200925c0 -0.11193466 -1.0267029 -0.22387028 -3.0801392 -0.33580494c-2.0534363 -0.13059044 -4.7746277 -0.19588661 -8.163635 -0.19588661z" fill-rule="evenodd"/><path stroke="#2a2b2a" stroke-width="4.0" stroke-linejoin="round" stroke-linecap="butt" d="m463.1347 48.388382c0.3656311 0 0.7312927 0.6309204 1.0969238 1.892765c0.56762695 1.9402046 1.2353821 5.6620445 2.003357 11.165524c0.76794434 5.4848175 1.6611023 13.161697 2.6794739 23.030647c-1.9365845 0 -3.8815002 0.02797699 -5.8347473 0.08394623c-0.6510925 0.01865387 -1.2901306 0.02798462 -1.9170837 0.02798462c-1.2539368 0 -2.4596558 -0.03731537 -3.617157 -0.11193085c0.717865 -5.8579407 1.3522644 -11.30545 1.9031677 -16.34253c0.56762695 -5.037075 1.085144 -9.215984 1.5526123 -12.536728c0.46743774 -3.3393936 0.97662354 -5.55011 1.5275269 -6.6321526c0.20199585 -0.38501358 0.40396118 -0.5775261 0.6059265 -0.5775261zm8.859894 -35.969276c-3.372284 0.35445976 -6.110199 0.5596752 -8.213715 0.6156435c-2.1035156 0.05596733 -3.823059 0.083951 -5.1586304 0.083951l-3.2303772 0c-0.8180237 0 -1.585968 0.05596733 -2.3038635 0.16790295c-2.4707642 9.178676 -4.7328796 18.413322 -6.786316 27.703934c-2.0534363 9.271954 -3.956604 18.2081 -5.7095337 26.808453c-1.7362366 8.600342 -3.2471008 16.715645 -4.532593 24.345879c-1.2687683 7.6115875 -2.3706055 14.337021 -3.3055115 20.1763c-0.9181824 5.8392715 -1.6360474 10.596519 -2.153595 14.271721c-0.500824 3.675209 -0.8514099 5.9139023 -1.0517578 6.7161026c0.10015869 0.11193848 0.2003479 0.16790771 0.3005066 0.16790771c2.3261108 -0.037322998 4.4463196 -0.05596924 6.360626 -0.05596924c3.8286133 0 6.8336487 0.07461548 9.015045 0.22387695c1.6444092 0.11192322 2.9799805 0.16789246 4.006714 0.16789246c1.0267029 0 1.7445679 -0.05596924 2.153595 -0.16789246c0.10015869 0 0.17529297 -0.02798462 0.22537231 -0.08395386c0.050079346 -0.05596924 0.12521362 -0.08395386 0.22537231 -0.08395386c0.934906 -1.9588623 1.652771 -4.197571 2.153595 -6.7161026c0.5175171 -2.5185394 1.0016785 -5.1210327 1.4524231 -7.807472c0.46743774 -2.7050934 0.9348755 -5.288933 1.4023438 -7.7515106c0.46743774 -2.4625702 1.0600891 -4.6079865 1.7779541 -6.436264c1.1185303 0 2.0116882 -0.02798462 2.6794739 -0.08395386c0.66778564 -0.05596924 1.285492 -0.08394623 1.8531189 -0.08394623l1.9282227 0c0.717865 0 1.7445679 0.11193085 3.0801392 0.33580017c0.717865 1.7163467 1.3772888 3.7778091 1.978302 6.1844177c0.6176758 2.406601 1.2103577 4.934471 1.7779541 7.583603c0.56762695 2.6304703 1.1352234 5.204979 1.7028503 7.7235184c0.56762695 2.5185394 1.1519165 4.6919403 1.7529297 6.520218l0.17529297 0c3.2721252 0.8022003 6.7529297 1.2872467 10.442444 1.4551544c0.7885437 0.03968811 1.5627441 0.059539795 2.3225708 0.059539795c2.8113708 0 5.426178 -0.271698 7.8444214 -0.815094l0 -0.16790771l-11.544281 -60.193092c-0.4006958 -1.9402084 -0.95996094 -4.5706787 -1.6778259 -7.891426c-0.717865 -3.3207397 -1.4941406 -6.986614 -2.328888 -10.99762c-0.8180237 -4.0110054 -1.6611023 -8.189911 -2.5292053 -12.536728c-0.86813354 -4.365471 -1.6861572 -8.469757 -2.4541016 -12.3128605c-0.76794434 -3.8431053 -1.4858093 -7.2851105 -2.153595 -10.326012c-0.66778564 -3.0409012 -1.1602783 -5.3075876 -1.477478 -6.8000565z" fill-rule="evenodd"/><path stroke="#2a2b2a" stroke-width="4.0" stroke-linejoin="round" stroke-linecap="butt" d="m534.5654 34.84492c3.1727295 0 5.809143 1.069107 7.9093018 3.2073174c1.43573 1.2685966 2.4624023 2.966278 3.0801392 5.0930443c0.6176758 2.1081085 0.8180542 4.2255516 0.6010132 6.352318c-0.20037842 2.1081085 -0.8430786 4.0576477 -1.9282227 5.848606c-1.0684814 1.7723045 -2.5793457 2.8823318 -4.532593 3.3300705c-1.979126 0.37612915 -4.0613403 0.5641899 -6.246765 0.5641899c-0.5244751 0 -1.0549316 -0.01083374 -1.5913086 -0.032497406c-2.7713013 -0.11193466 -5.3339233 -0.2891655 -7.687866 -0.5316925l-0.17529297 0c-0.20031738 -1.2499428 -0.3255005 -2.789051 -0.37561035 -4.617321c-0.050109863 -1.8469315 -0.07513428 -3.7405014 -0.07513428 -5.680706c0 -1.9588661 -0.025024414 -3.8804207 -0.07513428 -5.764656c-0.050048828 -1.9028969 -0.1251831 -3.5912514 -0.2253418 -5.0650635c3.5892944 -1.6230583 7.12854 -2.5185394 10.617737 -2.6864433c0.237854 -0.011444092 0.4729004 -0.017166138 0.7050781 -0.017166138zm-32.6922 98.796326c-0.005554199 0.0011749268 -0.010986328 0.0023651123 -0.016357422 0.0035552979c0.005493164 0 0.010955811 -0.0011901855 0.016357422 -0.0035552979zm27.660217 -123.32367c-3.3497314 0 -6.632019 0.18746948 -9.846802 0.5624113c-6.86145 0.8022003 -13.163635 1.660368 -18.906555 2.5745068c0.20031738 1.4924688 0.37561035 4.3374853 0.5258789 8.53505c0.15023804 4.1789074 0.27545166 9.225311 0.37561035 15.139219c0.11685181 5.895252 0.25042725 12.368828 0.40066528 19.420738c0.15026855 7.0332527 0.25042725 14.131802 0.3005066 21.29565c0.050079346 7.1638412 0.07513428 14.103821 0.07513428 20.819923c0 6.6974564 0 12.6300125 0 17.797676c0 5.1490173 -0.050079346 9.29995 -0.15026855 12.452782c-0.09741211 3.0664215 -0.2421875 4.6416626 -0.4343872 4.725708l0 0c0.2539978 -0.053604126 0.711792 -0.08039856 1.3734741 -0.08039856c0.67611694 0 1.565094 0.02798462 2.6669617 0.08395386c1.4802246 0.07461548 3.079193 0.11192322 4.796875 0.11192322c0.8588562 0 1.747406 -0.00932312 2.6655579 -0.02798462c2.7713013 -0.05595398 5.567627 -0.19587708 8.389038 -0.41975403c2.82135 -0.2425232 5.1085205 -0.7648773 6.86145 -1.5670929c-0.10015869 -2.1640778 -0.25878906 -5.083725 -0.47576904 -8.758911c-0.20037842 -3.675209 -0.3756714 -7.546303 -0.5258789 -11.613266c-0.15026855 -4.0669785 -0.22540283 -8.012695 -0.22540283 -11.837135c0 -3.8431091 0.15026855 -7.089226 0.45074463 -9.738358l0.3005371 0.5316925c2.1535645 2.966278 4.30719 6.3989563 6.4607544 10.298027c2.1536255 3.8990784 4.1569214 7.854126 6.010071 11.86512c1.8530884 4.011017 3.5475464 7.854126 5.083496 11.529312c1.5358887 3.675209 2.8129883 6.828041 3.8313599 9.458519l0.17529297 0c2.5133057 0.1831665 4.996826 0.27474976 7.4504395 0.27474976c2.0447998 0 4.0687866 -0.06359863 6.0721436 -0.1907959c4.4073486 -0.2798462 8.405701 -0.41975403 11.995056 -0.41975403l-0.15026855 0c-1.5358887 -4.7012787 -3.430725 -9.253304 -5.6845093 -13.65609c-2.2537231 -4.4214325 -4.616028 -8.749588 -7.086792 -12.984467c-2.4541016 -4.2535324 -4.966614 -8.469749 -7.5375977 -12.648666c-2.5542603 -4.197563 -4.908203 -8.41378 -7.0618286 -12.648659l0 -0.16790771l0.75128174 0c4.9248657 -0.33580017 8.998352 -1.8749084 12.220398 -4.617317c3.2387085 -2.7610703 5.834778 -6.2124023 7.788025 -10.353996c3.1886597 -5.9512215 4.699463 -12.107651 4.5325317 -18.469292c-0.15020752 -6.361641 -1.5609131 -12.172939 -4.2320557 -17.43389c-2.654419 -5.279604 -6.393982 -9.6917095 -11.21875 -13.236322c-4.824707 -3.5632687 -10.258789 -5.522133 -16.302185 -5.8765926c-3.9923706 -0.48687744 -7.8970947 -0.73031425 -11.714233 -0.73031425z" fill-rule="evenodd"/><path stroke="#2a2b2a" stroke-width="4.0" stroke-linejoin="round" stroke-linecap="butt" d="m634.9188 13.622406c-3.3722534 0 -7.262085 0.06529617 -11.669434 0.19588661c-4.4074097 0.11193466 -8.973328 0.22387028 -13.697876 0.33580494c-4.7246094 0.111935616 -9.424133 0.25185394 -14.098572 0.4197569c-4.657776 0.167902 -8.981689 0.37311745 -12.97168 0.61564255c-0.5175171 9.850288 -0.826355 19.653933 -0.9265137 29.410944c-0.10015869 9.73835 -0.10015869 19.476707 0 29.215057c0.10015869 9.73835 0.25042725 19.514023 0.45074463 29.326988c0.20031738 9.794319 0.30047607 19.672592 0.30047607 29.634811c6.964966 0.63990784 14.142639 0.95983887 21.532959 0.95983887c3.1672974 0 6.373657 -0.058761597 9.61908 -0.17628479c8.219482 -0.31137085 16.333252 -0.46704102 24.34137 -0.46704102c2.5480347 0 5.085388 0.01576233 7.6119995 0.047286987c0.8180542 -3.4513397 1.2771606 -7.1545334 1.3773193 -11.109566c0.10015869 -3.95504 0.050048828 -7.7608337 -0.15026855 -11.417374l0 -0.36379242c-2.6681519 0.09273529 -5.307068 0.13909912 -7.916687 0.13909912c-4.215515 0 -8.354614 -0.12099457 -12.417297 -0.36296844c-6.560913 -0.41042328 -13.222046 -0.61564636 -19.983337 -0.61564636l-0.15026855 -0.16790009c-0.20031738 -2.7610626 -0.38397217 -6.203064 -0.5509033 -10.326012c-0.15026855 -4.1229477 0.03338623 -7.8447876 0.5509033 -11.165527c0.5175171 -0.4663849 1.4942017 -0.7555618 2.9298706 -0.8674927c1.43573 -0.11193848 3.046753 -0.16790009 4.833069 -0.16790009c1.8030396 0 3.6728516 -0.02798462 5.609375 -0.08395386c1.9533081 -0.05596924 3.697876 -0.31715393 5.2337646 -0.78354645c-0.10015869 -4.234871 -0.050109863 -8.301849 0.15026855 -12.20092c0.21704102 -3.8990707 0.06677246 -7.7981415 -0.45074463 -11.69722l0 -0.1679039c-3.1886597 -0.11193466 -6.3690186 -0.16790009 -9.540955 -0.16790009c-3.171997 0 -6.302185 -0.1212616 -9.390686 -0.3637886l-0.15026855 -0.1679039c-0.7178345 -3.0968742 -0.90148926 -6.389633 -0.5509033 -9.878273c0.36730957 -3.4886436 0.5008545 -6.902664 0.40063477 -10.242058l0.15026855 -0.1679039l0.47583008 0c3.3722534 -0.335804 6.7529297 -0.5037079 10.141907 -0.5037079c3.388977 0 6.7696533 0.02798462 10.141968 0.08395004c0.847229 0.01399231 1.6928711 0.020988464 2.5370483 0.020988464c2.5323486 0 5.050598 -0.06296158 7.5548096 -0.18888855c3.3388672 -0.1679039 6.644409 -0.6529541 9.916565 -1.4551582l0 -0.1958847c0 -4.0110054 0.1251831 -8.077978 0.37561035 -12.200924c0.26708984 -4.122944 0.14190674 -8.18992 -0.37561035 -12.200925c0 -0.11193466 -1.0267334 -0.22387028 -3.0802002 -0.33580494c-2.0534058 -0.13059044 -4.774597 -0.19588661 -8.163635 -0.19588661z" fill-rule="evenodd"/></g></svg>